{
.appVersion = "3343";
.formatVersion = 3;
customParameters = (
{
name = panose;
value = (
0,
0,
0,
0,
0,
0,
0,
0,
0,
0
);
},
{
name = unicodeRanges;
value = (
0,
1,
2,
3,
4,
5,
6,
7,
9,
29,
31,
32,
33,
35,
36,
37,
38,
42,
45,
47,
60,
62
);
},
{
name = fsType;
value = (
);
},
{
name = glyphOrder;
value = (
.notdef,
CR,
space,
A,
Aacute,
Abreve,
uni01CD,
Acircumflex,
Adieresis,
Agrave,
Amacron,
Aogonek,
Aring,
Atilde,
AE,
AEacute,
B,
C,
Cacute,
Ccaron,
Ccedilla,
Cdotaccent,
D,
Dcaron,
Dcroat,
Eth,
E,
Eacute,
Ebreve,
Ecaron,
Ecircumflex,
Edieresis,
Edotaccent,
Egrave,
Emacron,
Eogonek,
uni018E,
uni1EBC,
uni018F,
F,
G,
Gbreve,
uni0122,
Gdotaccent,
H,
Hbar,
I,
IJ,
Iacute,
Ibreve,
Icircumflex,
Idieresis,
Idotaccent,
Igrave,
Imacron,
Iogonek,
Itilde,
J,
uni004A0301,
K,
uni0136,
L,
Lacute,
Lcaron,
uni013B,
Ldot,
Lslash,
M,
N,
Nacute,
Ncaron,
uni0145,
Ntilde,
Eng,
O,
Oacute,
Obreve,
Ocircumflex,
Odieresis,
Ograve,
Ohungarumlaut,
Omacron,
Oslash,
Otilde,
OE,
P,
Thorn,
Q,
R,
Racute,
Rcaron,
uni0156,
S,
Sacute,
Scaron,
Scedilla,
uni0218,
uni1E9E,
T,
Tcaron,
uni0162,
uni021A,
U,
Uacute,
Ubreve,
Ucircumflex,
Udieresis,
Ugrave,
Uhungarumlaut,
Umacron,
Uogonek,
Uring,
Utilde,
V,
W,
Wacute,
Wcircumflex,
Wdieresis,
Wgrave,
X,
Y,
Yacute,
Ycircumflex,
Ydieresis,
Ygrave,
uni1EF8,
Z,
Zacute,
Zcaron,
Zdotaccent,
uniA78B,
a,
aacute,
abreve,
uni01CE,
acircumflex,
adieresis,
agrave,
amacron,
aogonek,
aring,
atilde,
ae,
aeacute,
b,
c,
cacute,
ccaron,
ccedilla,
cdotaccent,
d,
dcaron,
dcroat,
eth,
e,
eacute,
ebreve,
ecaron,
ecircumflex,
edieresis,
edotaccent,
egrave,
emacron,
eogonek,
uni1EBD,
uni0259,
f,
g,
gbreve,
uni0123,
gdotaccent,
h,
hbar,
i,
dotlessi,
iacute,
ibreve,
icircumflex,
idieresis,
i.loclTRK,
igrave,
imacron,
iogonek,
itilde,
ij,
j,
uni0237,
uni006A0301,
k,
uni0137,
l,
lacute,
lcaron,
uni013C,
ldot,
lslash,
m,
n,
nacute,
ncaron,
uni0146,
ntilde,
eng,
o,
oacute,
obreve,
ocircumflex,
odieresis,
ograve,
ohungarumlaut,
omacron,
oslash,
otilde,
oe,
p,
thorn,
q,
r,
racute,
rcaron,

glyphs = (
{
glyphname = .notdef;
layers = (
{
layerId = m01;
shapes = (
{
closed = 1;
nodes = (
(22,0,l),
(423,0,l),
(547,700,l),
(146,700,l)
);
},
{
closed = 1;
nodes = (
(102,57,l),
(206,643,l),
(467,643,l),
(363,57,l)
);
}
);
userData = {
assembly = "NPUSHB[ ]	/* 39 values pushed */
4 1 1 0 2 3 1 2 103 0 3 0 0 3 87 0 3 3 0 95 0 0 3 0 79 0 0 7 6 5 4 0 3 0 3 17 5 6 23
CALL[ ]	/* CallFunction */";
};
width = 533;
}
);
note = .notdef;
},
{
glyphname = A;
kernLeft = A;
kernRight = A;
layers = (
{
anchors = (
{
name = bottom;
pos = (293,0);
},
{
name = ogonek;
pos = (608,0);
},
{
name = top;
pos = (417,700);
}
);
layerId = m01;
shapes = (
{
closed = 1;
nodes = (
(90,0,l),
(181,171,l),
(466,171,l),
(497,0,l),
(608,0,l),
(475,700,l),
(358,700,l),
(-22,0,l)
);
},
{
closed = 1;
nodes = (
(395,578,l),
(452,253,l),
(224,253,l)
);
}
);
userData = {
assembly = "NPUSHB[ ]	/* 40 values pushed */
9 1 4 0 1 76 5 1 4 0 2 1 4 2 104 0 0 0 33 77 3 1 1 1 34 1 78 8 8 8 10 8 10 17 17 17 16 6 8 26
CALL[ ]	/* CallFunction */";
};
width = 673;
}
);
note = A;
unicode = 65;
},
{
glyphname = Aogonek;
kernLeft = A;
layers = (
{
anchors = (
{
name = bottom;
pos = (293,0);
},
{
name = ogonek;
pos = (608,0);
},
{
name = top;
pos = (417,700);
}
);
layerId = m01;
shapes = (
{
closed = 1;
nodes = (
(90,0,l),
(181,171,l),
(466,171,l),
(495,10,l),
(436,-19,o),
(385,-86,o),
(385,-126,qs),
(385,-165,o),
(446,-206,o),
(495,-206,qs),
(535,-206,o),
(579,-193,q),
(590,-127,l),
(551,-142,o),
(519,-142,qs),
(496,-142,o),
(470,-122,o),
(470,-105,qs),
(470,-83,o),
(506,-46,o),
(549,-27,qs),
(608,0,l),
(475,700,l),
(358,700,l),
(-22,0,l)
);
},
{
closed = 1;
nodes = (
(395,578,l),
(452,253,l),
(224,253,l)
);
}
);
userData = {
assembly = "NPUSHB[ ]	/* 19 values pushed */
26 1 5 0 20 1 4 3 11 1 1 4 3 76 2 1 4 1 75
MPPEM[ ]	/* MeasurePixelPerEm */
PUSHB[ ]	/* 1 value pushed */
35
LT[ ]	/* LessThan */
IF[ ]	/* If */
NPUSHB[ ]	/* 30 values pushed */
6 1 5 0 3 4 5 3 104 0 0 0 33 77 0 4 4 34 77 0 1 1 2 97 0 2 2 38 2 78
ELSE[ ]	/* Else */
NPUSHB[ ]	/* 27 values pushed */
6 1 5 0 3 4 5 3 104 0 1 0 2 1 2 101 0 0 0 33 77 0 4 4 34 4 78
EIF[ ]	/* EndIf */
NPUSHB[ ]	/* 14 values pushed */
25 25 25 27 25 27 17 22 35 39 16 7 8 27
CALL[ ]	/* CallFunction */";
};
width = 673;
}
);
note = Aogonek;
unicode = 260;
},
{
glyphname = AE;
kernLeft = AE;
layers = (
{
anchors = (
{
name = bottom;
pos = (417,0);
},
{
name = top;
pos = (701,700);
}
);
layerId = m01;
shapes = (
{
closed = 1;
nodes = (
(93,0,l),
(203,149,l),
(461,149,l),
(435,0,l),
(821,0,l),
(836,84,l),
(557,84,l),
(597,313,l),
(847,313,l),
(861,396,l),
(610,396,l),
(650,616,l),
(930,616,l),
(945,700,l),
(491,700,l),
(-22,0,l)
);
},
{
closed = 1;
nodes = (
(544,617,l),
(476,232,l),
(262,232,l)
);
}
);
userData = {
assembly = "NPUSHB[ ]	/* 62 values pushed */
17 1 1 0 1 76 0 2 0 3 8 2 3 103 9 1 8 0 6 4 8 6 103 0 1 1 0 95 0 0 0 33 77 0 4 4 5 95 7 1 5 5 34 5 78 16 16 16 18 16 18 17 17 17 17 17 17 17 16 10 8 30
CALL[ ]	/* CallFunction */";
};
width = 921;
}
);
note = AE;
unicode = 198;
},
{
glyphname = B;
kernRight = B;
layers = (
{
layerId = m01;
shapes = (
{
closed = 1;
nodes = (
(300,0,ls),
(378,0,o),
(499,57,o),
(565,158,o),
(565,221,qs),
(565,273,o),
(506,358,o),
(456,376,q),
(519,397,o),
(591,491,o),
(591,548,qs),
(591,615,o),
(493,700,o),
(400,700,qs),
(147,700,l),
(23,0,l)
);
},
{
closed = 1;
nodes = (
(145,90,l),
(186,325,l),
(337,325,ls),
(397,325,o),
(458,272,o),
(458,224,qs),
(458,160,o),
(377,90,o),
(298,90,qs)
);
},
{
closed = 1;
nodes = (
(202,413,l),
(236,611,l),
(372,611,ls),
(428,611,o),
(480,564,o),
(480,524,qs),
(480,473,o),
(409,413,o),
(340,413,qs)
);
}
);
userData = {
assembly = "NPUSHB[ ]	/* 57 values pushed */
7 1 2 5 1 76 7 1 5 0 2 3 5 2 103 0 4 4 0 95 0 0 0 33 77 6 1 3 3 1 95 0 1 1 34 1 78 25 25 16 16 25 33 25 32 31 29 16 24 16 23 37 43 32 8 8 25
CALL[ ]	/* CallFunction */";
};
width = 614;
}
);
note = B;
unicode = 66;
},
{
glyphname = C;
kernLeft = C;
kernRight = B;
layers = (
{
anchors = (
{
name = bottom;
pos = (317,0);
},
{
name = top;
pos = (441,700);
}
);
layerId = m01;
shapes = (
{
closed = 1;
nodes = (
(457,-12,o),
(634,105,o),
(673,211,q),
(555,211,l),
(530,150,o),
(427,83,o),
(352,83,qs),
(263,83,o),
(163,186,o),
(163,279,qs),
(163,365,o),
(230,521,o),
(358,617,o),
(444,617,qs),
(519,617,o),
(601,547,o),
(603,484,q),
(721,484,l),
(719,592,o),
(583,712,o),
(460,712,qs),
(344,712,o),
(158,594,o),
(53,391,o),
(53,269,qs),
(53,195,o),
(111,68,o),
(237,-12,o),
(335,-12,qs)
);
}
);
userData = {
assembly = "NPUSHB[ ]	/* 51 values pushed */
0 1 2 4 2 1 4 128 0 4 3 2 4 3 126 0 2 2 0 97 0 0 0 39 77 0 3 3 5 97 6 1 5 5 40 5 78 0 0 0 28 0 27 18 37 34 18 38 7 8 27
CALL[ ]	/* CallFunction */";
};
width = 721;
}
);
note = C;
unicode = 67;
},
{
glyphname = Ccedilla;
kernLeft = C;
kernRight = Cacute;
layers = (
{
anchors = (
{
name = bottom;
pos = (271,-261);
},
{
name = top;
pos = (441,700);
}
);
layerId = m01;
shapes = (
{
closed = 1;
nodes = (
(309,-261,ls),
(369,-261,o),
(454,-194,o),
(454,-137,qs),
(454,-97,o),
(392,-55,o),
(341,-56,q),
(349,-12,l),
(466,-8,o),
(635,108,o),
(673,211,q),
(555,211,l),
(530,150,o),
(427,83,o),
(352,83,qs),
(263,83,o),
(163,186,o),
(163,279,qs),
(163,365,o),
(230,521,o),
(358,617,o),
(444,617,qs),
(519,617,o),
(601,547,o),
(603,484,q),
(721,484,l),
(719,592,o),
(583,712,o),
(460,712,qs),
(344,712,o),
(158,594,o),
(53,391,o),
(53,269,qs),
(53,203,o),
(100,85,o),
(203,2,o),
(281,-8,q),
(262,-115,l),
(317,-115,ls),
(372,-115,o),
(372,-148,qs),
(371,-172,o),
(334,-197,o),
(303,-197,qs),
(201,-197,l),
(190,-261,l)
);
}
);
userData = {
assembly = "NPUSHB[ ]	/* 71 values pushed */
8 1 7 5 1 76 0 3 4 6 4 3 6 128 0 6 5 4 6 5 126 0 8 0 1 0 8 1 105 0 0 0 9 0 9 99 0 4 4 2 97 0 2 2 39 77 0 5 5 7 97 0 7 7 40 7 78 45 43 17 18 18 37 34 18 40 35 32 10 8 31
CALL[ ]	/* CallFunction */";
};
width = 721;
}
);
note = Ccedilla;
unicode = 199;
},
{
glyphname = D;
kernRight = B;
layers = (
{
anchors = (
{
name = bottom;
pos = (306,0);
},
{
name = top;
pos = (430,700);
}
);
layerId = m01;
shapes = (
{
closed = 1;
nodes = (
(146,700,l),
(23,0,l),
(250,0,ls),
(364,0,o),
(560,93,o),
(680,280,o),
(680,416,qs),
(680,553,o),
(528,700,o),
(373,700,qs)
);
},
{
closed = 1;
nodes = (
(145,90,l),
(237,611,l),
(354,611,ls),
(466,611,o),
(570,510,o),
(570,408,qs),
(570,320,o),
(506,177,o),
(368,90,o),
(262,90,qs)
);
}
);
userData = {
assembly = "NPUSHB[ ]	/* 41 values pushed */
0 2 2 1 95 4 1 1 1 33 77 5 1 3 3 0 95 0 0 0 34 0 78 10 10 0 0 10 19 10 18 17 15 0 9 0 8 37 6 8 23
CALL[ ]	/* CallFunction */";
};
width = 699;
}
);
note = D;
unicode = 68;
},
{
glyphname = Dcroat;
kernRight = B;
layers = (
{
layerId = m01;
shapes = (
{
closed = 1;
nodes = (
(34,0,l),
(261,0,ls),
(390,0,o),
(488,53,qs),
(585,107,o),
(690,294,o),
(690,416,qs),
(690,553,o),
(538,700,o),
(384,700,qs),
(157,700,l),
(104,396,l),
(23,396,l),
(7,303,l),
(87,303,l)
);
},
{
closed = 1;
nodes = (
(156,90,l),
(193,303,l),
(382,303,l),
(398,396,l),
(210,396,l),
(248,611,l),
(365,611,ls),
(477,611,o),
(581,510,o),
(581,408,qs),
(581,311,o),
(545,240,qs),
(508,168,o),
(369,90,o),
(273,90,qs)
);
}
);
userData = {
assembly = "NPUSHB[ ]	/* 57 values pushed */
5 1 0 6 8 2 3 7 0 3 103 0 4 4 1 95 0 1 1 33 77 9 1 7 7 2 95 0 2 2 34 2 78 15 15 0 0 15 29 15 28 27 26 25 24 23 21 0 14 0 14 38 33 17 10 8 25
CALL[ ]	/* CallFunction */";
};
width = 710;
}
);
note = Dcroat;
unicode = 272;
},
{
glyphname = Eth;
kernRight = B;
layers = (
{
layerId = m01;
shapes = (
{
closed = 1;
nodes = (
(34,0,l),
(261,0,ls),
(390,0,o),
(488,53,qs),
(585,107,o),
(690,294,o),
(690,416,qs),
(690,553,o),
(538,700,o),
(384,700,qs),
(157,700,l),
(104,396,l),
(23,396,l),
(7,303,l),
(87,303,l)
);
},
{
closed = 1;
nodes = (
(156,90,l),
(193,303,l),
(382,303,l),
(398,396,l),
(210,396,l),
(248,611,l),
(365,611,ls),
(477,611,o),
(581,510,o),
(581,408,qs),
(581,311,o),
(545,240,qs),
(508,168,o),
(369,90,o),
(273,90,qs)
);
}
);
userData = {
assembly = "NPUSHB[ ]	/* 57 values pushed */
5 1 0 6 8 2 3 7 0 3 103 0 4 4 1 95 0 1 1 33 77 9 1 7 7 2 95 0 2 2 34 2 78 15 15 0 0 15 29 15 28 27 26 25 24 23 21 0 14 0 14 38 33 17 10 8 25
CALL[ ]	/* CallFunction */";
};
width = 710;
}
);
note = Eth;
unicode = 208;
},
{
glyphname = E;
kernRight = E;
layers = (
{
anchors = (
{
name = bottom;
pos = (228,0);
},
{
name = ogonek;
pos = (444,0);
},
{
name = top;
pos = (352,700);
}
);
layerId = m01;
shapes = (
{
closed = 1;
nodes = (
(444,0,l),
(460,89,l),
(144,89,l),
(186,326,l),
(457,326,l),
(473,414,l),
(202,414,l),
(236,611,l),
(552,611,l),
(568,700,l),
(146,700,l),
(22,0,l)
);
}
);
userData = {
assembly = "NPUSHB[ ]	/* 38 values pushed */
0 2 0 3 4 2 3 103 0 1 1 0 95 0 0 0 33 77 0 4 4 5 95 0 5 5 34 5 78 17 17 17 17 17 16 6 8 28
CALL[ ]	/* CallFunction */";
};
width = 544;
}
);
note = E;
unicode = 69;
},
{
glyphname = Eogonek;
layers = (
{
anchors = (
{
name = bottom;
pos = (228,0);
},
{
name = ogonek;
pos = (444,0);
},
{
name = top;
pos = (352,700);
}
);
layerId = m01;
shapes = (
{
closed = 1;
nodes = (
(312,0,l),
(263,-28,o),
(221,-90,o),
(221,-126,qs),
(221,-165,o),
(282,-206,o),
(331,-206,qs),
(371,-206,o),
(415,-193,q),
(426,-127,l),
(387,-142,o),
(355,-142,qs),
(332,-142,o),
(306,-122,o),
(306,-105,qs),
(306,-83,o),
(342,-46,o),
(385,-27,qs),
(444,0,l),
(460,89,l),
(144,89,l),
(186,326,l),
(457,326,l),
(473,414,l),
(202,414,l),
(236,611,l),
(552,611,l),
(568,700,l),
(146,700,l),
(22,0,l)
);
}
);
userData = {
assembly = "PUSHB[ ]	/* 6 values pushed */
19 1 5 7 1 76
MPPEM[ ]	/* MeasurePixelPerEm */
PUSHB[ ]	/* 1 value pushed */
35
LT[ ]	/* LessThan */
IF[ ]	/* If */
NPUSHB[ ]	/* 39 values pushed */
0 2 0 3 4 2 3 103 0 1 1 0 95 0 0 0 33 77 0 4 4 7 95 0 7 7 34 77 0 5 5 6 97 0 6 6 38 6 78
ELSE[ ]	/* Else */
NPUSHB[ ]	/* 36 values pushed */
0 2 0 3 4 2 3 103 0 5 0 6 5 6 101 0 1 1 0 95 0 0 0 33 77 0 4 4 7 95 0 7 7 34 7 78
EIF[ ]	/* EndIf */
NPUSHB[ ]	/* 11 values pushed */
21 35 39 17 17 17 17 16 8 8 30
CALL[ ]	/* CallFunction */";
};
width = 544;
}
);
note = Eogonek;
unicode = 280;
},
{
glyphname = uni018E;
layers = (
{
layerId = m01;
shapes = (
{
closed = 1;
nodes = (
(449,0,l),
(573,700,l),
(132,700,l),
(116,611,l),
(451,611,l),
(416,414,l),
(126,414,l),
(111,326,l),
(401,326,l),
(359,89,l),
(24,89,l),
(8,0,l)
);
}
);
userData = {
assembly = "NPUSHB[ ]	/* 38 values pushed */
0 2 0 1 0 2 1 103 0 3 3 4 95 0 4 4 33 77 0 0 0 5 95 0 5 5 34 5 78 17 17 17 17 17 16 6 8 28
CALL[ ]	/* CallFunction */";
};
width = 577;
}
);
note = uni018E;
unicode = (398,477);
},
{
glyphname = uni018F;
kernLeft = uni018F;
kernRight = B;
layers = (
{
layerId = m01;
shapes = (
{
closed = 1;
nodes = (
(444,-12,o),
(631,109,o),
(734,313,o),
(734,434,qs),
(734,507,o),
(672,633,o),
(545,712,o),
(451,712,qs),
(380,712,o),
(241,662,o),
(122,557,o),
(87,477,q),
(205,477,l),
(236,542,o),
(361,616,o),
(436,616,qs),
(521,616,o),
(622,513,o),
(622,425,qs),
(622,398,o),
(619,382,q),
(68,382,l),
(48,314,o),
(48,256,qs),
(48,182,o),
(112,60,o),
(237,-12,o),
(324,-12,qs)
);
},
{
closed = 1;
nodes = (
(254,85,o),
(156,174,o),
(156,253,qs),
(156,270,o),
(160,300,q),
(607,300,l),
(594,244,o),
(523,146,o),
(410,85,o),
(338,85,qs)
);
}
);
userData = {
assembly = "NPUSHB[ ]	/* 60 values pushed */
0 2 1 0 1 2 0 128 0 0 0 5 6 0 5 103 0 1 1 3 97 0 3 3 39 77 8 1 6 6 4 97 7 1 4 4 40 4 78 28 28 0 0 28 37 28 36 32 31 0 27 0 26 35 18 36 21 9 8 26
CALL[ ]	/* CallFunction */";
};
width = 752;
}
);
note = uni018F;
unicode = 399;
},
{
glyphname = F;
kernRight = F;
layers = (
{
layerId = m01;
shapes = (
{
closed = 1;
nodes = (
(128,0,l),
(184,317,l),
(462,317,l),
(478,406,l),
(200,406,l),
(236,611,l),
(559,611,l),
(575,700,l),
(146,700,l),
(22,0,l)
);
}
);
userData = {
assembly = "NPUSHB[ ]	/* 32 values pushed */
0 2 0 3 4 2 3 103 0 1 1 0 95 0 0 0 33 77 0 4 4 34 4 78 17 17 17 17 16 5 8 27
CALL[ ]	/* CallFunction */";
};
width = 528;
}
);
note = F;
unicode = 70;
},
{
glyphname = G;
kernLeft = C;
kernRight = G;
layers = (
{
anchors = (
{
name = bottom;
pos = (336,0);
},
{
name = top;
pos = (460,700);
}
);
layerId = m01;
shapes = (
{
closed = 1;
nodes = (
(411,-12,o),
(527,46,o),
(575,104,q),
(566,0,l),
(663,0,l),
(729,376,l),
(382,376,l),
(367,289,l),
(605,289,l),
(577,191,o),
(450,83,o),
(352,83,qs),
(265,83,o),
(165,193,o),
(165,288,qs),
(165,369,o),
(227,519,o),
(357,615,o),
(453,615,qs),
(528,615,o),
(612,551,o),
(617,494,q),
(737,494,l),
(732,596,o),
(588,712,o),
(467,712,qs),
(348,712,o),
(161,601,o),
(55,404,o),
(55,280,qs),
(55,205,o),
(114,72,o),
(236,-12,o),
(328,-12,qs)
);
}
);
userData = {
assembly = "PUSHB[ ]	/* 6 values pushed */
30 1 3 4 1 76
MPPEM[ ]	/* MeasurePixelPerEm */
PUSHB[ ]	/* 1 value pushed */
21
LT[ ]	/* LessThan */
IF[ ]	/* If */
NPUSHB[ ]	/* 39 values pushed */
0 1 2 5 2 1 5 128 0 5 0 4 3 5 4 103 0 2 2 0 97 0 0 0 39 77 0 3 3 6 97 8 7 2 6 6 34 6 78
ELSE[ ]	/* Else */
NPUSHB[ ]	/* 43 values pushed */
0 1 2 5 2 1 5 128 0 5 0 4 3 5 4 103 0 2 2 0 97 0 0 0 39 77 0 6 6 34 77 0 3 3 7 97 8 1 7 7 40 7 78
EIF[ ]	/* EndIf */
NPUSHB[ ]	/* 16 values pushed */
0 0 0 33 0 32 17 17 18 37 34 18 38 9 8 29
CALL[ ]	/* CallFunction */";
};
width = 759;
}
);
note = G;
unicode = 71;
},
{
glyphname = H;
layers = (
{
layerId = m01;
shapes = (
{
closed = 1;
nodes = (
(129,0,l),
(187,326,l),
(525,326,l),
(467,0,l),
(573,0,l),
(697,700,l),
(591,700,l),
(541,415,l),
(202,415,l),
(253,700,l),
(147,700,l),
(23,0,l)
);
}
);
userData = {
assembly = "NPUSHB[ ]	/* 30 values pushed */
0 1 0 4 3 1 4 104 2 1 0 0 33 77 5 1 3 3 34 3 78 17 17 17 17 17 16 6 8 28
CALL[ ]	/* CallFunction */";
};
width = 683;
}
);
note = H;
unicode = 72;
},
{
glyphname = Hbar;
layers = (
{
layerId = m01;
shapes = (
{
closed = 1;
nodes = (
(129,0,l),
(187,326,l),
(525,326,l),
(467,0,l),
(573,0,l),
(662,503,l),
(707,503,l),
(723,592,l),
(678,592,l),
(697,700,l),
(591,700,l),
(572,592,l),
(233,592,l),
(253,700,l),
(147,700,l),
(127,592,l),
(82,592,l),
(66,503,l),
(112,503,l),
(23,0,l)
);
},
{
closed = 1;
nodes = (
(218,503,l),
(556,503,l),
(541,415,l),
(202,415,l)
);
}
);
userData = {
assembly = "NPUSHB[ ]	/* 56 values pushed */
5 3 2 1 10 6 2 0 11 1 0 104 12 1 11 0 8 7 11 8 103 4 1 2 2 33 77 9 1 7 7 34 7 78 20 20 20 23 20 23 22 21 19 18 17 17 17 17 17 17 17 17 16 13 8 31
CALL[ ]	/* CallFunction */";
};
width = 683;
}
);
note = Hbar;
unicode = 294;
},
{
glyphname = I;
layers = (
{
anchors = (
{
name = bottom;
pos = (76,0);
},
{
name = ogonek;
pos = (129,0);
},
{
name = top;
pos = (200,700);
}
);
layerId = m01;
shapes = (
{
closed = 1;
nodes = (
(129,0,l),
(252,700,l),
(146,700,l),
(23,0,l)
);
}
);
userData = {
assembly = "NPUSHB[ ]	/* 16 values pushed */
0 0 0 33 77 0 1 1 34 1 78 17 16 2 8 24
CALL[ ]	/* CallFunction */";
};
width = 239;
}
);
note = I;
unicode = 73;
},
{
glyphname = Iogonek;
layers = (
{
anchors = (
{
name = bottom;
pos = (76,0);
},
{
name = ogonek;
pos = (129,0);
},
{
name = top;
pos = (200,700);
}
);
layerId = m01;
shapes = (
{
closed = 1;
nodes = (
(56,-206,o),
(100,-193,q),
(111,-127,l),
(72,-142,o),
(40,-142,qs),
(17,-142,o),
(-9,-122,o),
(-9,-105,qs),
(-9,-83,o),
(27,-46,o),
(70,-27,qs),
(129,0,l),
(252,700,l),
(146,700,l),
(26,15,l),
(-39,-16,o),
(-94,-85,o),
(-94,-126,qs),
(-94,-165,o),
(-33,-206,o),
(16,-206,qs)
);
}
);
userData = {
assembly = "PUSHB[ ]	/* 6 values pushed */
17 1 1 0 1 76
MPPEM[ ]	/* MeasurePixelPerEm */
PUSHB[ ]	/* 1 value pushed */
35
LT[ ]	/* LessThan */
IF[ ]	/* If */
NPUSHB[ ]	/* 17 values pushed */
0 0 0 33 77 0 1 1 2 97 3 1 2 2 38 2 78
ELSE[ ]	/* Else */
NPUSHB[ ]	/* 14 values pushed */
0 1 3 1 2 1 2 101 0 0 0 33 0 78
EIF[ ]	/* EndIf */
NPUSHB[ ]	/* 11 values pushed */
0 0 0 20 0 19 39 22 4 8 24
CALL[ ]	/* CallFunction */";
};
width = 239;
}
);
note = Iogonek;
unicode = 302;
},
{
glyphname = J;
kernLeft = J;
kernRight = J;
layers = (
{
anchors = (
{
name = bottom;
pos = (203,0);
},
{
name = top;
pos = (452,700);
}
);
layerId = m01;
shapes = (
{
closed = 1;
nodes = (
(274,-12,o),
(401,93,o),
(417,184,qs),
(507,700,l),
(401,700,l),
(311,184,ls),
(303,140,o),
(246,83,o),
(199,83,qs),
(158,83,o),
(117,127,o),
(117,165,qs),
(117,181,o),
(120,197,q),
(14,197,l),
(9,169,o),
(9,149,qs),
(9,73,o),
(102,-12,o),
(183,-12,qs)
);
}
);
userData = {
assembly = "MPPEM[ ]	/* MeasurePixelPerEm */
PUSHB[ ]	/* 1 value pushed */
11
LT[ ]	/* LessThan */
IF[ ]	/* If */
NPUSHB[ ]	/* 24 values pushed */
0 0 2 1 1 0 114 0 2 2 33 77 0 1 1 3 98 4 1 3 3 40 3 78
ELSE[ ]	/* Else */
NPUSHB[ ]	/* 25 values pushed */
0 0 2 1 2 0 1 128 0 2 2 33 77 0 1 1 3 98 4 1 3 3 40 3 78
EIF[ ]	/* EndIf */
NPUSHB[ ]	/* 12 values pushed */
0 0 0 19 0 18 19 36 20 5 8 25
CALL[ ]	/* CallFunction */";
};
width = 494;
}
);
note = J;
unicode = 74;
},
{
glyphname = K;
kernRight = K;
layers = (
{
anchors = (
{
name = bottom;
pos = (261,0);
},
{
name = ogonek;
pos = (129,0);
},
{
name = top;
pos = (385,700);
}
);
layerId = m01;
shapes = (
{
closed = 1;
nodes = (
(129,0,l),
(188,336,l),
(427,0,l),
(561,0,l),
(297,357,l),
(655,700,l),
(518,700,l),
(196,382,l),
(252,700,l),
(146,700,l),
(23,0,l)
);
}
);
userData = {
assembly = "NPUSHB[ ]	/* 28 values pushed */
8 5 2 3 2 0 1 76 1 1 0 0 33 77 3 1 2 2 34 2 78 18 18 18 16 4 8 26
CALL[ ]	/* CallFunction */";
};
width = 608;
}
);
note = K;
unicode = 75;
},
{
glyphname = L;
kernRight = L;
layers = (
{
anchors = (
{
name = bottom;
pos = (219,0);
},
{
name = top;
pos = (251,700);
},
{
name = topright;
pos = (340,700);
}
);
layerId = m01;
shapes = (
{
closed = 1;
nodes = (
(443,0,l),
(459,88,l),
(145,88,l),
(252,700,l),
(146,700,l),
(23,0,l)
);
}
);
userData = {
assembly = "NPUSHB[ ]	/* 22 values pushed */
0 0 0 33 77 0 1 1 2 96 0 2 2 34 2 78 17 17 16 3 8 25
CALL[ ]	/* CallFunction */";
};
width = 525;
}
);
note = L;
unicode = 76;
},
{
glyphname = Ldot;
kernRight = L;
layers = (
{
layerId = m01;
shapes = (
{
closed = 1;
nodes = (
(443,0,l),
(459,88,l),
(145,88,l),
(252,700,l),
(146,700,l),
(23,0,l)
);
},
{
closed = 1;
nodes = (
(414,280,o),
(455,321,o),
(455,350,qs),
(455,379,o),
(414,420,o),
(385,420,qs),
(355,420,o),
(314,379,o),
(314,350,qs),
(314,321,o),
(355,280,o),
(385,280,qs)
);
}
);
userData = {
assembly = "NPUSHB[ ]	/* 38 values pushed */
0 3 5 1 4 1 3 4 105 0 0 0 33 77 0 1 1 2 96 0 2 2 34 2 78 6 6 6 17 6 16 37 17 17 16 6 8 26
CALL[ ]	/* CallFunction */";
};
width = 525;
}
);
note = Ldot;
unicode = 319;
},
{
glyphname = Lslash;
kernRight = L;
layers = (
{
layerId = m01;
shapes = (
{
closed = 1;
nodes = (
(468,0,l),
(483,88,l),
(169,88,l),
(213,334,l),
(333,375,l),
(350,476,l),
(231,435,l),
(277,700,l),
(171,700,l),
(118,398,l),
(37,371,l),
(19,270,l),
(100,297,l),
(48,0,l)
);
}
);
userData = {
assembly = "NPUSHB[ ]	/* 30 values pushed */
7 6 1 3 1 0 1 76 0 0 0 33 77 0 1 1 2 96 0 2 2 34 2 78 17 21 20 3 8 25
CALL[ ]	/* CallFunction */";
};
width = 550;
}
);
note = Lslash;
unicode = 321;
},
{
glyphname = M;
layers = (
{
layerId = m01;
shapes = (
{
closed = 1;
nodes = (
(129,0,l),
(219,511,l),
(348,95,l),
(430,95,l),
(706,511,l),
(616,0,l),
(722,0,l),
(845,700,l),
(720,700,l),
(414,230,l),
(271,700,l),
(146,700,l),
(23,0,l)
);
}
);
userData = {
assembly = "NPUSHB[ ]	/* 37 values pushed */
10 7 2 3 3 0 1 76 0 3 0 2 0 3 2 128 1 1 0 0 33 77 4 1 2 2 34 2 78 18 18 17 18 16 5 8 27
CALL[ ]	/* CallFunction */";
};
width = 832;
}
);
note = M;
unicode = 77;
},
{
glyphname = N;
kernRight = N;
layers = (
{
anchors = (
{
name = bottom;
pos = (304,0);
},
{
name = top;
pos = (428,700);
}
);
layerId = m01;
shapes = (
{
closed = 1;
nodes = (
(129,0,l),
(222,528,l),
(480,0,l),
(586,0,l),
(709,700,l),
(603,700,l),
(510,172,l),
(252,700,l),
(146,700,l),
(23,0,l)
);
}
);
userData = {
assembly = "NPUSHB[ ]	/* 27 values pushed */
7 2 2 2 0 1 76 1 1 0 0 33 77 3 1 2 2 34 2 78 18 17 18 16 4 8 26
CALL[ ]	/* CallFunction */";
};
width = 696;
}
);
note = N;
unicode = 78;
},
{
glyphname = Eng;
layers = (
{
anchors = (
{
name = bottom;
pos = (304,0);
},
{
name = top;
pos = (428,700);
}
);
layerId = m01;
shapes = (
{
closed = 1;
nodes = (
(129,0,l),
(222,528,l),
(480,0,l),
(468,-67,ls),
(462,-100,o),
(426,-129,o),
(392,-129,qs),
(359,-129,l),
(343,-220,l),
(392,-220,ls),
(546,-220,o),
(574,-68,qs),
(709,700,l),
(603,700,l),
(511,172,l),
(252,700,l),
(146,700,l),
(23,0,l)
);
}
);
userData = {
assembly = "NPUSHB[ ]	/* 42 values pushed */
15 2 2 4 0 1 76 14 1 4 1 75 1 1 0 0 33 77 0 4 4 34 77 0 3 3 2 97 0 2 2 38 2 78 21 33 34 18 16 5 8 27
CALL[ ]	/* CallFunction */";
};
width = 695;
}
);
note = Eng;
unicode = 330;
},
{
glyphname = O;
kernLeft = C;
kernRight = B;
layers = (
{
anchors = (
{
name = bottom;
pos = (350,0);
},
{
name = ogonek;
pos = (430,10);
},
{
name = top;
pos = (474,700);
},
{
name = topright;
pos = (854,700);
}
);
layerId = m01;
shapes = (
{
closed = 1;
nodes = (
(464,-12,o),
(656,101,o),
(770,296,o),
(770,413,qs),
(770,490,o),
(703,627,o),
(569,712,o),
(473,712,qs),
(359,712,o),
(167,599,o),
(54,404,o),
(54,288,qs),
(54,211,o),
(122,73,o),
(256,-12,o),
(351,-12,qs)
);
},
{
closed = 1;
nodes = (
(273,83,o),
(164,200,o),
(164,296,qs),
(164,384,o),
(243,531,o),
(378,617,o),
(459,617,qs),
(552,617,o),
(660,502,o),
(660,406,qs),
(660,318,o),
(581,170,o),
(446,83,o),
(365,83,qs)
);
}
);
userData = {
assembly = "NPUSHB[ ]	/* 41 values pushed */
0 2 2 0 97 0 0 0 39 77 5 1 3 3 1 97 4 1 1 1 40 1 78 16 16 0 0 16 29 16 28 23 21 0 15 0 14 38 6 8 23
CALL[ ]	/* CallFunction */";
};
width = 787;
}
);
note = O;
unicode = 79;
},
{
glyphname = Oslash;
kernLeft = Oslash;
layers = (
{
layerId = m01;
shapes = (
{
closed = 1;
nodes = (
(462,-12,o),
(654,102,o),
(767,297,o),
(767,413,qs),
(767,465,o),
(739,557,o),
(713,593,q),
(826,700,l),
(720,700,l),
(663,646,l),
(625,678,o),
(526,712,o),
(470,712,qs),
(356,712,o),
(163,599,o),
(51,404,o),
(51,288,qs),
(51,189,o),
(102,112,q),
(-14,0,l),
(92,0,l),
(152,57,l),
(232,-12,o),
(348,-12,qs)
);
},
{
closed = 1;
nodes = (
(281,83,o),
(228,130,q),
(633,516,l),
(657,470,o),
(657,406,qs),
(657,318,o),
(577,169,o),
(442,83,o),
(362,83,qs)
);
},
{
closed = 1;
nodes = (
(183,189,l),
(161,234,o),
(161,296,qs),
(161,382,o),
(239,530,o),
(374,617,o),
(456,617,qs),
(537,617,o),
(587,574,q)
);
}
);
userData = {
assembly = "MPPEM[ ]	/* MeasurePixelPerEm */
PUSHB[ ]	/* 1 value pushed */
21
LT[ ]	/* LessThan */
IF[ ]	/* If */
NPUSHB[ ]	/* 19 values pushed */
13 1 5 1 41 40 30 29 16 4 6 4 5 1 1 0 4 3 76
ELSE[ ]	/* Else */
NPUSHB[ ]	/* 19 values pushed */
13 1 5 2 41 40 30 29 16 4 6 4 5 1 1 0 4 3 76
EIF[ ]	/* EndIf */
MPPEM[ ]	/* MeasurePixelPerEm */
PUSHB[ ]	/* 1 value pushed */
21
LT[ ]	/* LessThan */
IF[ ]	/* If */
NPUSHB[ ]	/* 25 values pushed */
0 5 5 1 97 2 1 1 1 39 77 7 1 4 4 0 97 6 3 2 0 0 34 0 78
ELSE[ ]	/* Else */
NPUSHB[ ]	/* 33 values pushed */
0 2 2 33 77 0 5 5 1 97 0 1 1 39 77 0 0 0 34 77 7 1 4 4 3 97 6 1 3 3 40 3 78
EIF[ ]	/* EndIf */
NPUSHB[ ]	/* 20 values pushed */
24 24 0 0 35 33 24 32 24 31 0 23 0 22 19 38 18 8 8 25
CALL[ ]	/* CallFunction */";
};
width = 777;
}
);
note = Oslash;
unicode = 216;
},
{
glyphname = OE;
kernLeft = C;
layers = (
{
anchors = (
{
name = bottom;
pos = (511,0);
},
{
name = top;
pos = (635,700);
}
);
layerId = m01;
shapes = (
{
closed = 1;
nodes = (
(412,-12,o),
(554,52,o),
(606,110,q),
(586,0,l),
(1007,0,l),
(1023,89,l),
(708,89,l),
(748,317,l),
(1025,317,l),
(1041,406,l),
(764,406,l),
(800,611,l),
(1115,611,l),
(1131,700,l),
(710,700,l),
(690,588,l),
(659,647,o),
(534,712,o),
(456,712,qs),
(350,712,o),
(165,600,o),
(56,409,o),
(56,297,qs),
(56,222,o),
(117,80,o),
(244,-12,o),
(338,-12,qs)
);
},
{
closed = 1;
nodes = (
(303,83,o),
(215,140,o),
(167,241,o),
(167,304,qs),
(167,387,o),
(244,532,o),
(375,617,o),
(450,617,qs),
(540,617,o),
(652,507,o),
(652,410,qs),
(652,322,o),
(574,172,o),
(441,83,o),
(361,83,qs)
);
}
);
userData = {
assembly = "NPUSHB[ ]	/* 10 values pushed */
10 1 3 2 23 1 5 4 2 76
MPPEM[ ]	/* MeasurePixelPerEm */
PUSHB[ ]	/* 1 value pushed */
21
LT[ ]	/* LessThan */
IF[ ]	/* If */
NPUSHB[ ]	/* 35 values pushed */
0 3 0 4 5 3 4 103 8 1 2 2 0 97 1 1 0 0 39 77 11 9 2 5 5 6 97 10 7 2 6 6 34 6 78
ELSE[ ]	/* Else */
MPPEM[ ]	/* MeasurePixelPerEm */
PUSHB[ ]	/* 1 value pushed */
39
LT[ ]	/* LessThan */
IF[ ]	/* If */
NPUSHB[ ]	/* 56 values pushed */
0 3 0 4 5 3 4 103 8 1 2 2 0 97 0 0 0 39 77 8 1 2 2 1 95 0 1 1 33 77 11 9 2 5 5 6 95 0 6 6 34 77 11 9 2 5 5 7 97 10 1 7 7 40 7 78
ELSE[ ]	/* Else */
NPUSHB[ ]	/* 51 values pushed */
0 3 0 4 5 3 4 103 0 8 8 0 97 0 0 0 39 77 0 2 2 1 95 0 1 1 33 77 0 5 5 6 95 0 6 6 34 77 11 1 9 9 7 97 10 1 7 7 40 7 78
EIF[ ]	/* EndIf */
EIF[ ]	/* EndIf */
NPUSHB[ ]	/* 24 values pushed */
27 27 0 0 27 41 27 40 34 32 0 26 0 25 17 17 17 17 17 19 38 12 8 29
CALL[ ]	/* CallFunction */";
};
width = 1108;
}
);
note = OE;
unicode = 338;
},
{
glyphname = P;
kernRight = P;
layers = (
{
layerId = m01;
shapes = (
{
closed = 1;
nodes = (
(129,0,l),
(179,286,l),
(318,286,ls),
(402,286,o),
(530,342,o),
(602,449,o),
(602,522,qs),
(602,603,o),
(488,700,o),
(391,700,qs),
(146,700,l),
(23,0,l)
);
},
{
closed = 1;
nodes = (
(195,376,l),
(236,611,l),
(372,611,ls),
(431,611,o),
(492,557,o),
(492,511,qs),
(492,444,o),
(409,376,o),
(331,376,qs)
);
}
);
userData = {
assembly = "NPUSHB[ ]	/* 38 values pushed */
5 1 4 0 1 2 4 1 103 0 3 3 0 95 0 0 0 33 77 0 2 2 34 2 78 12 12 12 20 12 19 37 17 37 32 6 8 26
CALL[ ]	/* CallFunction */";
};
width = 586;
}
);
note = P;
unicode = 80;
},
{
glyphname = Thorn;
kernRight = Thorn;
layers = (
{
layerId = m01;
shapes = (
{
closed = 1;
nodes = (
(129,0,l),
(154,142,l),
(293,142,ls),
(374,142,o),
(503,198,o),
(577,307,o),
(577,383,qs),
(577,465,o),
(466,560,o),
(366,560,qs),
(228,560,l),
(252,700,l),
(146,700,l),
(23,0,l)
);
},
{
closed = 1;
nodes = (
(169,228,l),
(213,472,l),
(347,472,ls),
(410,472,o),
(468,426,o),
(468,380,qs),
(468,309,o),
(381,228,o),
(304,228,qs)
);
}
);
userData = {
assembly = "NPUSHB[ ]	/* 42 values pushed */
0 1 0 4 5 1 4 104 6 1 5 0 2 3 5 2 103 0 0 0 33 77 0 3 3 34 3 78 14 14 14 22 14 21 37 17 37 33 16 7 8 27
CALL[ ]	/* CallFunction */";
};
width = 586;
}
);
note = Thorn;
unicode = 222;
},
{
glyphname = Q;
kernLeft = C;
kernRight = Q;
layers = (
{
layerId = m01;
shapes = (
{
closed = 1;
nodes = (
(412,-12,o),
(527,23,o),
(577,55,q),
(634,-11,l),
(714,59,l),
(658,123,l),
(711,181,o),
(771,330,o),
(771,413,qs),
(771,490,o),
(704,627,o),
(570,712,o),
(474,712,qs),
(360,712,o),
(168,599,o),
(55,404,o),
(55,288,qs),
(55,211,o),
(123,73,o),
(257,-12,o),
(352,-12,qs)
);
},
{
closed = 1;
nodes = (
(165,384,o),
(244,531,o),
(379,617,o),
(460,617,qs),
(553,617,o),
(661,502,o),
(661,406,qs),
(661,347,o),
(625,241,o),
(592,199,q),
(508,299,l),
(428,229,l),
(516,127,l),
(447,83,o),
(366,83,qs),
(274,83,o),
(165,200,o),
(165,296,qs)
);
}
);
userData = {
assembly = "NPUSHB[ ]	/* 52 values pushed */
28 27 26 25 14 5 2 3 17 16 15 3 1 2 2 76 0 3 3 0 97 0 0 0 39 77 0 2 2 1 97 4 1 1 1 40 1 78 0 0 35 33 24 22 0 20 0 19 38 5 8 23
CALL[ ]	/* CallFunction */";
};
width = 796;
}
);
note = Q;
unicode = 81;
},
{
glyphname = R;
kernRight = R;
layers = (
{
anchors = (
{
name = bottom;
pos = (253,0);
},
{
name = top;
pos = (377,700);
}
);
layerId = m01;
shapes = (
{
closed = 1;
nodes = (
(128,0,l),
(182,303,l),
(279,303,l),
(401,0,l),
(529,0,l),
(388,321,l),
(482,340,o),
(577,450,o),
(577,532,qs),
(577,609,o),
(467,700,o),
(371,700,qs),
(146,700,l),
(22,0,l)
);
},
{
closed = 1;
nodes = (
(198,393,l),
(236,611,l),
(352,611,ls),
(412,611,o),
(468,560,o),
(468,519,qs),
(468,454,o),
(392,393,o),
(314,393,qs)
);
}
);
userData = {
assembly = "NPUSHB[ ]	/* 46 values pushed */
7 1 2 5 1 76 6 1 5 0 2 1 5 2 103 0 4 4 0 95 0 0 0 33 77 3 1 1 1 34 1 78 14 14 14 22 14 21 37 17 17 22 32 7 8 27
CALL[ ]	/* CallFunction */";
};
width = 595;
}
);
note = R;
unicode = 82;
},
{
glyphname = S;
kernLeft = S;
kernRight = S;
layers = (
{
anchors = (
{
name = bottom;
pos = (250,0);
},
{
name = top;
pos = (374,700);
}
);
layerId = m01;
shapes = (
{
closed = 1;
nodes = (
(344,-12,o),
(467,44,o),
(536,147,o),
(536,215,qs),
(536,337,o),
(385,393,qs),
(357,403,ls),
(312,419,o),
(260,443,o),
(243,459,qs),
(220,479,o),
(220,513,qs),
(220,561,o),
(291,622,o),
(349,622,qs),
(400,622,o),
(457,570,o),
(457,532,qs),
(457,520,o),
(456,514,q),
(568,514,l),
(571,531,o),
(571,545,qs),
(571,620,o),
(458,712,o),
(365,712,qs),
(289,712,o),
(172,658,o),
(107,559,o),
(107,495,qs),
(107,440,o),
(174,357,o),
(240,333,qs),
(279,319,ls),
(331,301,o),
(387,275,o),
(421,234,o),
(421,202,qs),
(421,145,o),
(345,77,o),
(277,77,qs),
(218,77,o),
(146,138,o),
(146,187,qs),
(146,202,o),
(148,211,q),
(36,211,l),
(32,194,o),
(32,171,qs),
(32,116,o),
(89,34,o),
(195,-12,o),
(265,-12,qs)
);
}
);
userData = {
assembly = "NPUSHB[ ]	/* 51 values pushed */
0 3 4 0 4 3 0 128 0 0 1 4 0 1 126 0 4 4 2 97 0 2 2 39 77 0 1 1 5 97 6 1 5 5 40 5 78 0 0 0 52 0 51 36 20 45 36 21 7 8 27
CALL[ ]	/* CallFunction */";
};
width = 588;
}
);
note = S;
unicode = 83;
},
{
glyphname = Scedilla;
kernLeft = S;
kernRight = S;
layers = (
{
anchors = (
{
name = bottom;
pos = (204,-261);
},
{
name = top;
pos = (374,700);
}
);
layerId = m01;
shapes = (
{
closed = 1;
nodes = (
(243,-261,ls),
(303,-261,o),
(388,-194,o),
(388,-137,qs),
(388,-97,o),
(326,-55,o),
(275,-56,q),
(283,-12,l),
(358,-9,o),
(472,50,o),
(536,150,o),
(536,215,qs),
(536,337,o),
(385,393,qs),
(357,403,ls),
(312,419,o),
(260,443,o),
(243,459,qs),
(220,479,o),
(220,513,qs),
(220,561,o),
(291,622,o),
(349,622,qs),
(400,622,o),
(457,570,o),
(457,532,qs),
(457,520,o),
(456,514,q),
(568,514,l),
(571,531,o),
(571,545,qs),
(571,620,o),
(458,712,o),
(365,712,qs),
(289,712,o),
(172,658,o),
(107,559,o),
(107,495,qs),
(107,440,o),
(174,357,o),
(240,333,qs),
(279,319,ls),
(331,301,o),
(387,275,o),
(421,234,o),
(421,202,qs),
(421,145,o),
(345,77,o),
(277,77,qs),
(218,77,o),
(146,138,o),
(146,187,qs),
(146,202,o),
(148,211,q),
(36,211,l),
(32,194,o),
(32,171,qs),
(32,98,o),
(130,2,o),
(215,-9,q),
(196,-115,l),
(251,-115,ls),
(306,-115,o),
(306,-148,qs),
(305,-172,o),
(268,-197,o),
(237,-197,qs),
(135,-197,l),
(124,-261,l)
);
}
);
userData = {
assembly = "NPUSHB[ ]	/* 71 values pushed */
8 1 7 3 1 76 0 5 6 2 6 5 2 128 0 2 3 6 2 3 126 0 8 0 1 0 8 1 105 0 0 0 9 0 9 100 0 6 6 4 97 0 4 4 39 77 0 3 3 7 97 0 7 7 40 7 78 68 66 17 29 36 20 45 36 22 35 32 10 8 31
CALL[ ]	/* CallFunction */";
};
width = 588;
}
);
note = Scedilla;
unicode = 350;
},
{
glyphname = uni1E9E;
layers = (
{
layerId = m01;
shapes = (
{
closed = 1;
nodes = (
(468,-10,o),
(569,38,o),
(625,122,o),
(625,176,qs),
(625,228,o),
(572,292,o),
(512,314,qs),
(464,331,o),
(416,359,o),
(416,380,qs),
(416,398,o),
(446,426,o),
(480,447,qs),
(508,464,o),
(526,477,qs),
(554,498,o),
(585,551,o),
(585,587,qs),
(585,627,o),
(537,694,o),
(446,732,o),
(384,732,qs),
(266,732,o),
(122,612,o),
(105,515,qs),
(13,0,l),
(119,0,l),
(209,506,ls),
(221,572,o),
(300,643,o),
(369,643,qs),
(420,643,o),
(476,604,o),
(476,570,qs),
(476,545,o),
(448,507,o),
(416,484,o),
(371,455,qs),
(306,413,o),
(306,358,qs),
(306,319,o),
(366,267,o),
(435,242,qs),
(480,226,o),
(518,190,o),
(518,164,qs),
(518,122,o),
(461,71,o),
(414,71,qs),
(372,71,o),
(323,118,o),
(323,158,qs),
(324,172,l),
(221,172,l),
(215,89,o),
(313,-10,o),
(403,-10,qs)
);
}
);
userData = {
assembly = "PUSHB[ ]	/* 6 values pushed */
4 1 1 0 1 76
MPPEM[ ]	/* MeasurePixelPerEm */
PUSHB[ ]	/* 1 value pushed */
13
LT[ ]	/* LessThan */
IF[ ]	/* If */
NPUSHB[ ]	/* 30 values pushed */
0 0 2 1 1 0 114 0 2 2 4 97 0 4 4 41 77 0 1 1 3 98 6 5 2 3 3 34 3 78
ELSE[ ]	/* Else */
MPPEM[ ]	/* MeasurePixelPerEm */
PUSHB[ ]	/* 1 value pushed */
25
LT[ ]	/* LessThan */
IF[ ]	/* If */
NPUSHB[ ]	/* 31 values pushed */
0 0 2 1 2 0 1 128 0 2 2 4 97 0 4 4 41 77 0 1 1 3 98 6 5 2 3 3 34 3 78
ELSE[ ]	/* Else */
MPPEM[ ]	/* MeasurePixelPerEm */
PUSHB[ ]	/* 1 value pushed */
33
LT[ ]	/* LessThan */
IF[ ]	/* If */
NPUSHB[ ]	/* 35 values pushed */
0 0 2 1 2 0 1 128 0 2 2 4 97 0 4 4 41 77 0 3 3 34 77 0 1 1 5 98 6 1 5 5 40 5 78
ELSE[ ]	/* Else */
NPUSHB[ ]	/* 33 values pushed */
0 0 2 1 2 0 1 128 0 4 0 2 0 4 2 105 0 3 3 34 77 0 1 1 5 98 6 1 5 5 40 5 78
EIF[ ]	/* EndIf */
EIF[ ]	/* EndIf */
EIF[ ]	/* EndIf */
NPUSHB[ ]	/* 17 values pushed */
0 0 0 56 0 55 35 33 30 29 26 24 35 18 7 8 24
CALL[ ]	/* CallFunction */";
};
width = 670;
}
);
note = uni1E9E;
unicode = 7838;
},
{
glyphname = T;
kernLeft = T;
kernRight = T;
layers = (
{
anchors = (
{
name = bottom;
pos = (239,0);
},
{
name = top;
pos = (363,700);
}
);
layerId = m01;
shapes = (
{
closed = 1;
nodes = (
(292,0,l),
(399,612,l),
(606,612,l),
(622,700,l),
(103,700,l),
(87,612,l),
(293,612,l),
(186,0,l)
);
}
);
userData = {
assembly = "NPUSHB[ ]	/* 24 values pushed */
2 1 0 0 1 95 0 1 1 33 77 0 3 3 34 3 78 17 17 17 16 4 8 26
CALL[ ]	/* CallFunction */";
};
width = 565;
}
);
note = T;
unicode = 84;
},
{
glyphname = uni0162;
kernLeft = T;
kernRight = T;
layers = (
{
anchors = (
{
name = bottom;
pos = (193,-261);
},
{
name = top;
pos = (363,700);
}
);
layerId = m01;
shapes = (
{
closed = 1;
nodes = (
(205,0,l),
(184,-115,l),
(239,-115,ls),
(294,-115,o),
(294,-148,qs),
(293,-172,o),
(256,-197,o),
(225,-197,qs),
(123,-197,l),
(112,-261,l),
(231,-261,ls),
(291,-261,o),
(376,-194,o),
(376,-137,qs),
(376,-97,o),
(314,-55,o),
(263,-56,q),
(273,0,l),
(292,0,l),
(399,612,l),
(606,612,l),
(622,700,l),
(103,700,l),
(87,612,l),
(293,612,l),
(186,0,l)
);
}
);
userData = {
assembly = "NPUSHB[ ]	/* 45 values pushed */
0 4 0 7 6 4 7 105 0 6 0 5 6 5 99 2 1 0 0 1 95 0 1 1 33 77 8 1 3 3 34 3 78 17 35 33 36 17 17 17 17 16 9 8 31
CALL[ ]	/* CallFunction */";
};
width = 565;
}
);
note = uni0162;
unicode = 354;
},
{
glyphname = U;
kernLeft = U;
kernRight = U;
layers = (
{
anchors = (
{
name = bottom;
pos = (290,0);
},
{
name = ogonek;
pos = (403,10);
},
{
name = top;
pos = (414,700);
},
{
name = topright;
pos = (732,700);
}
);
layerId = m01;
shapes = (
{
closed = 1;
nodes = (
(350,-12,o),
(481,41,o),
(581,164,o),
(599,263,qs),
(676,700,l),
(570,700,l),
(492,263,ls),
(476,174,o),
(375,85,o),
(299,85,qs),
(234,85,o),
(162,149,o),
(162,213,qs),
(162,236,o),
(168,263,qs),
(245,700,l),
(139,700,l),
(62,263,ls),
(56,227,o),
(56,196,qs),
(56,98,o),
(174,-12,o),
(280,-12,qs)
);
}
);
userData = {
assembly = "NPUSHB[ ]	/* 30 values pushed */
2 1 0 0 33 77 0 1 1 3 98 4 1 3 3 40 3 78 0 0 0 22 0 21 19 37 21 5 8 25
CALL[ ]	/* CallFunction */";
};
width = 667;
}
);
note = U;
unicode = 85;
},
{
glyphname = Uogonek;
kernLeft = U;
kernRight = U;
layers = (
{
anchors = (
{
name = bottom;
pos = (290,0);
},
{
name = ogonek;
pos = (403,10);
},
{
name = top;
pos = (414,700);
},
{
name = topright;
pos = (732,700);
}
);
layerId = m01;
shapes = (
{
closed = 1;
nodes = (
(330,-196,o),
(374,-183,q),
(385,-117,l),
(346,-132,o),
(314,-132,qs),
(291,-132,o),
(265,-112,o),
(265,-95,qs),
(265,-73,o),
(301,-36,o),
(344,-17,qs),
(397,7,l),
(472,33,o),
(580,159,o),
(599,263,qs),
(676,700,l),
(570,700,l),
(492,263,ls),
(476,174,o),
(375,85,o),
(299,85,qs),
(234,85,o),
(162,149,o),
(162,213,qs),
(162,236,o),
(168,263,qs),
(245,700,l),
(139,700,l),
(62,263,ls),
(56,227,o),
(56,196,qs),
(56,108,o),
(152,1,o),
(240,-10,q),
(180,-55,o),
(180,-116,qs),
(180,-155,o),
(241,-196,o),
(290,-196,qs)
);
}
);
userData = {
assembly = "PUSHB[ ]	/* 7 values pushed */
35 4 2 3 1 1 76
MPPEM[ ]	/* MeasurePixelPerEm */
PUSHB[ ]	/* 1 value pushed */
21
LT[ ]	/* LessThan */
IF[ ]	/* If */
NPUSHB[ ]	/* 26 values pushed */
0 1 0 3 0 1 3 128 2 1 0 0 33 77 0 3 3 4 98 5 1 4 4 38 4 78
ELSE[ ]	/* Else */
NPUSHB[ ]	/* 23 values pushed */
0 1 0 3 0 1 3 128 0 3 5 1 4 3 4 102 2 1 0 0 33 0 78
EIF[ ]	/* EndIf */
NPUSHB[ ]	/* 13 values pushed */
0 0 0 38 0 37 42 19 37 26 6 8 26
CALL[ ]	/* CallFunction */";
};
width = 667;
}
);
note = Uogonek;
unicode = 370;
},
{
glyphname = V;
kernLeft = V;
kernRight = V;
layers = (
{
layerId = m01;
shapes = (
{
closed = 1;
nodes = (
(229,0,l),
(357,0,l),
(741,700,l),
(627,700,l),
(313,112,l),
(208,700,l),
(94,700,l)
);
}
);
userData = {
assembly = "NPUSHB[ ]	/* 30 values pushed */
1 1 1 0 1 76 3 2 2 0 0 33 77 0 1 1 34 1 78 0 0 0 6 0 6 17 18 4 8 24
CALL[ ]	/* CallFunction */";
};
width = 674;
}
);
note = V;
unicode = 86;
},
{
glyphname = W;
kernLeft = W;
kernRight = W;
layers = (
{
anchors = (
{
name = bottom;
pos = (453,0);
},
{
name = top;
pos = (571,700);
}
);
layerId = m01;
shapes = (
{
closed = 1;
nodes = (
(543,541,l),
(597,0,l),
(726,0,l),
(1042,700,l),
(927,700,l),
(684,124,l),
(633,700,l),
(513,700,l),
(253,125,l),
(215,700,l),
(101,700,l),
(164,0,l),
(293,0,l)
);
}
);
userData = {
assembly = "NPUSHB[ ]	/* 36 values pushed */
11 6 3 3 3 0 1 76 2 1 2 0 0 33 77 5 4 2 3 3 34 3 78 0 0 0 12 0 12 17 18 18 17 6 8 26
CALL[ ]	/* CallFunction */";
};
width = 988;
}
);
note = W;
unicode = 87;
},
{
glyphname = X;
kernLeft = X;
kernRight = X;
layers = (
{
layerId = m01;
shapes = (
{
closed = 1;
nodes = (
(96,0,l),
(306,282,l),
(424,0,l),
(544,0,l),
(385,379,l),
(631,700,l),
(511,700,l),
(344,474,l),
(249,700,l),
(129,700,l),
(264,379,l),
(-24,0,l)
);
}
);
userData = {
assembly = "NPUSHB[ ]	/* 28 values pushed */
9 6 3 3 2 0 1 76 1 1 0 0 33 77 3 1 2 2 34 2 78 18 18 18 17 4 8 26
CALL[ ]	/* CallFunction */";
};
width = 613;
}
);
note = X;
unicode = 88;
},
{
glyphname = Y;
kernLeft = Y;
kernRight = Y;
layers = (
{
anchors = (
{
name = bottom;
pos = (251,0);
},
{
name = top;
pos = (375,700);
}
);
layerId = m01;
shapes = (
{
closed = 1;
nodes = (
(298,0,l),
(346,274,l),
(652,700,l),
(534,700,l),
(312,378,l),
(204,700,l),
(84,700,l),
(240,274,l),
(192,0,l)
);
}
);
userData = {
assembly = "NPUSHB[ ]	/* 24 values pushed */
3 1 2 0 1 76 1 1 0 0 33 77 0 2 2 34 2 78 18 18 17 3 8 25
CALL[ ]	/* CallFunction */";
};
width = 589;
}
);
note = Y;
unicode = 89;
},
{
glyphname = Z;
kernRight = Z;
layers = (
{
anchors = (
{
name = bottom;
pos = (227,0);
},
{
name = top;
pos = (351,700);
}
);
layerId = m01;
shapes = (
{
closed = 1;
nodes = (
(450,0,l),
(466,90,l),
(128,90,l),
(556,618,l),
(570,700,l),
(118,700,l),
(102,610,l),
(431,610,l),
(5,82,l),
(-10,0,l)
);
}
);
userData = {
assembly = "NPUSHB[ ]	/* 28 values pushed */
0 0 0 1 95 0 1 1 33 77 0 2 2 3 95 0 3 3 34 3 78 17 18 17 17 4 8 26
CALL[ ]	/* CallFunction */";
};
width = 541;
}
);
note = Z;
unicode = 90;
},
{
glyphname = uniA78B;
layers = (
{
layerId = m01;
shapes = (
{
closed = 1;
nodes = (
(154,220,l),
(252,700,l),
(138,700,l),
(65,220,l)
);
}
);
userData = {
assembly = "NPUSHB[ ]	/* 16 values pushed */
0 1 1 0 95 0 0 0 33 1 78 17 16 2 8 24
CALL[ ]	/* CallFunction */";
};
width = 229;
}
);
note = uniA78B;
unicode = 42891;
},
{
glyphname = a;
kernLeft = a;
kernRight = a;
layers = (
{
anchors = (
{
name = bottom;
pos = (234,0);
},
{
name = ogonek;
pos = (490,0);
},
{
name = top;
pos = (322,496);
}
);
layerId = m01;
shapes = (
{
closed = 1;
nodes = (
(170,75,o),
(126,105,o),
(126,134,qs),
(126,179,o),
(198,224,o),
(251,224,qs),
(369,224,l),
(357,162,o),
(266,75,o),
(206,75,qs)
);
},
{
closed = 1;
nodes = (
(16,59,o),
(103,-12,o),
(169,-12,qs),
(230,-12,o),
(319,38,o),
(348,78,q),
(342,0,l),
(436,0,l),
(489,299,ls),
(494,327,o),
(494,347,qs),
(494,425,o),
(398,508,o),
(312,508,qs),
(224,508,o),
(91,419,o),
(63,337,q),
(169,337,l),
(185,377,o),
(254,419,o),
(296,419,qs),
(341,419,o),
(387,373,o),
(387,331,qs),
(387,318,o),
(384,297,q),
(257,297,ls),
(154,297,o),
(16,204,o),
(16,119,qs)
);
}
);
userData = {
assembly = "PUSHB[ ]	/* 6 values pushed */
33 1 1 0 1 76
MPPEM[ ]	/* MeasurePixelPerEm */
PUSHB[ ]	/* 1 value pushed */
21
LT[ ]	/* LessThan */
IF[ ]	/* If */
NPUSHB[ ]	/* 39 values pushed */
0 4 3 2 3 4 2 128 0 2 0 0 1 2 0 103 0 3 3 5 97 0 5 5 42 77 8 1 1 1 6 97 7 1 6 6 34 6 78
ELSE[ ]	/* Else */
NPUSHB[ ]	/* 43 values pushed */
0 4 3 2 3 4 2 128 0 2 0 0 1 2 0 103 0 3 3 5 97 0 5 5 42 77 0 6 6 34 77 8 1 1 1 7 97 0 7 7 40 7 78
EIF[ ]	/* EndIf */
NPUSHB[ ]	/* 22 values pushed */
0 0 37 35 32 31 26 24 22 21 19 17 13 11 0 9 0 8 34 9 8 23
CALL[ ]	/* CallFunction */";
};
width = 528;
}
);
note = a;
unicode = 97;
},
{
glyphname = aogonek;
kernLeft = a;
kernRight = aacute;
layers = (
{
anchors = (
{
name = bottom;
pos = (234,0);
},
{
name = ogonek;
pos = (490,0);
},
{
name = top;
pos = (322,496);
}
);
layerId = m01;
shapes = (
{
closed = 1;
nodes = (
(170,75,o),
(126,105,o),
(126,134,qs),
(126,179,o),
(198,224,o),
(251,224,qs),
(369,224,l),
(357,162,o),
(266,75,o),
(206,75,qs)
);
},
{
closed = 1;
nodes = (
(417,-206,o),
(461,-193,q),
(472,-127,l),
(433,-142,o),
(401,-142,qs),
(378,-142,o),
(352,-122,o),
(352,-105,qs),
(352,-83,o),
(388,-46,o),
(431,-27,qs),
(490,0,l),
(475,52,l),
(443,39,l),
(489,299,ls),
(494,327,o),
(494,347,qs),
(494,425,o),
(398,508,o),
(312,508,qs),
(224,508,o),
(91,419,o),
(63,337,q),
(169,337,l),
(185,377,o),
(254,419,o),
(296,419,qs),
(341,419,o),
(387,373,o),
(387,331,qs),
(387,318,o),
(384,297,q),
(257,297,ls),
(154,297,o),
(16,204,o),
(16,119,qs),
(16,59,o),
(103,-12,o),
(169,-12,qs),
(230,-12,o),
(319,38,o),
(348,78,q),
(342,0,l),
(358,0,l),
(309,-28,o),
(267,-90,o),
(267,-126,qs),
(267,-165,o),
(328,-206,o),
(377,-206,qs)
);
}
);
userData = {
assembly = "MPPEM[ ]	/* MeasurePixelPerEm */
PUSHB[ ]	/* 1 value pushed */
21
LT[ ]	/* LessThan */
IF[ ]	/* If */
NPUSHB[ ]	/* 20 values pushed */
17 1 1 0 46 45 2 2 1 56 1 8 2 3 76 47 1 2 1 75
ELSE[ ]	/* Else */
NPUSHB[ ]	/* 20 values pushed */
17 1 1 0 46 45 2 2 1 56 1 8 3 3 76 47 1 2 1 75
EIF[ ]	/* EndIf */
MPPEM[ ]	/* MeasurePixelPerEm */
PUSHB[ ]	/* 1 value pushed */
21
LT[ ]	/* LessThan */
IF[ ]	/* If */
NPUSHB[ ]	/* 50 values pushed */
0 6 5 4 5 6 4 128 0 4 0 0 1 4 0 103 0 5 5 7 97 0 7 7 42 77 10 1 1 1 2 97 3 1 2 2 34 77 0 8 8 9 97 11 1 9 9 38 9 78
ELSE[ ]	/* Else */
MPPEM[ ]	/* MeasurePixelPerEm */
PUSHB[ ]	/* 1 value pushed */
35
LT[ ]	/* LessThan */
IF[ ]	/* If */
NPUSHB[ ]	/* 54 values pushed */
0 6 5 4 5 6 4 128 0 4 0 0 1 4 0 103 0 5 5 7 97 0 7 7 42 77 0 2 2 34 77 10 1 1 1 3 97 0 3 3 40 77 0 8 8 9 97 11 1 9 9 38 9 78
ELSE[ ]	/* Else */
NPUSHB[ ]	/* 51 values pushed */
0 6 5 4 5 6 4 128 0 4 0 0 1 4 0 103 0 8 11 1 9 8 9 101 0 5 5 7 97 0 7 7 42 77 0 2 2 34 77 10 1 1 1 3 97 0 3 3 40 3 78
EIF[ ]	/* EndIf */
EIF[ ]	/* EndIf */
NPUSHB[ ]	/* 30 values pushed */
10 10 0 0 10 59 10 58 55 53 40 38 36 35 33 31 27 25 21 19 16 15 0 9 0 8 34 12 8 23
CALL[ ]	/* CallFunction */";
};
width = 528;
}
);
note = aogonek;
unicode = 261;
},
{
glyphname = ae;
kernLeft = a;
kernRight = ae;
layers = (
{
anchors = (
{
name = bottom;
pos = (415,0);
},
{
name = top;
pos = (503,496);
}
);
layerId = m01;
shapes = (
{
closed = 1;
nodes = (
(254,-12,o),
(374,49,o),
(412,100,q),
(435,48,o),
(533,-12,o),
(599,-12,qs),
(679,-12,o),
(820,73,o),
(858,152,q),
(751,152,l),
(729,116,o),
(658,76,o),
(614,76,qs),
(561,76,o),
(493,142,o),
(493,201,qs),
(493,209,o),
(495,223,q),
(881,223,l),
(895,273,o),
(895,315,qs),
(895,367,o),
(850,455,o),
(759,508,o),
(692,508,qs),
(634,508,o),
(531,466,o),
(491,428,q),
(451,508,o),
(326,508,qs),
(276,508,o),
(172,472,o),
(89,395,o),
(73,336,q),
(179,336,l),
(194,377,o),
(265,421,o),
(311,421,qs),
(355,421,o),
(405,377,o),
(405,334,qs),
(405,317,o),
(401,296,q),
(256,296,ls),
(196,296,o),
(87,259,o),
(16,179,o),
(16,117,qs),
(16,59,o),
(104,-12,o),
(185,-12,qs)
);
},
{
closed = 1;
nodes = (
(174,74,o),
(130,107,o),
(130,136,qs),
(130,178,o),
(197,224,o),
(253,224,qs),
(384,224,l),
(381,205,ls),
(375,173,o),
(327,112,o),
(253,74,o),
(212,74,qs)
);
},
{
closed = 1;
nodes = (
(510,296,l),
(529,356,o),
(620,421,o),
(676,421,qs),
(728,421,o),
(790,363,o),
(790,312,qs),
(789,296,l)
);
}
);
userData = {
assembly = "NPUSHB[ ]	/* 93 values pushed */
22 1 1 3 47 1 6 7 2 76 0 2 1 0 1 2 0 128 0 7 5 6 5 7 6 128 13 1 0 10 1 5 7 0 5 103 12 1 1 1 3 97 4 1 3 3 42 77 15 11 2 6 6 8 97 14 9 2 8 8 40 8 78 51 51 0 0 70 69 67 65 51 62 51 61 57 55 0 50 0 49 34 18 36 21 35 35 18 36 37 16 8 31
CALL[ ]	/* CallFunction */";
};
width = 917;
}
);
note = ae;
unicode = 230;
},
{
glyphname = b;
kernLeft = b;
kernRight = b;
layers = (
{
layerId = m01;
shapes = (
{
closed = 1;
nodes = (
(373,-12,o),
(503,69,o),
(578,210,o),
(578,295,qs),
(578,353,o),
(531,450,o),
(439,508,o),
(375,508,qs),
(267,508,o),
(194,426,q),
(242,700,l),
(136,700,l),
(13,0,l),
(108,0,l),
(132,76,l),
(151,39,o),
(237,-12,o),
(292,-12,qs)
);
},
{
closed = 1;
nodes = (
(231,81,o),
(160,155,o),
(160,215,qs),
(160,268,o),
(204,360,o),
(285,416,o),
(339,416,qs),
(397,416,o),
(468,338,o),
(468,278,qs),
(468,222,o),
(423,132,o),
(342,81,o),
(290,81,qs)
);
}
);
userData = {
assembly = "NPUSHB[ ]	/* 10 values pushed */
7 1 4 2 2 1 0 5 2 76
MPPEM[ ]	/* MeasurePixelPerEm */
PUSHB[ ]	/* 1 value pushed */
21
LT[ ]	/* LessThan */
IF[ ]	/* If */
NPUSHB[ ]	/* 29 values pushed */
0 1 1 33 77 0 4 4 2 97 0 2 2 42 77 7 1 5 5 0 98 6 3 2 0 0 34 0 78
ELSE[ ]	/* Else */
NPUSHB[ ]	/* 33 values pushed */
0 1 1 33 77 0 4 4 2 97 0 2 2 42 77 0 0 0 34 77 7 1 5 5 3 98 6 1 3 3 40 3 78
EIF[ ]	/* EndIf */
NPUSHB[ ]	/* 20 values pushed */
18 18 0 0 18 31 18 30 25 23 0 17 0 16 34 17 19 8 8 25
CALL[ ]	/* CallFunction */";
};
width = 611;
}
);
note = b;
unicode = 98;
},
{
glyphname = c;
kernLeft = c;
kernRight = c;
layers = (
{
anchors = (
{
name = bottom;
pos = (238,0);
},
{
name = top;
pos = (326,496);
}
);
layerId = m01;
shapes = (
{
closed = 1;
nodes = (
(331,-12,o),
(481,81,o),
(514,171,q),
(404,171,l),
(387,127,o),
(309,78,o),
(262,78,qs),
(210,78,o),
(143,150,o),
(143,211,qs),
(143,260,o),
(184,356,o),
(265,418,o),
(321,418,qs),
(369,418,o),
(430,369,o),
(430,325,q),
(541,325,l),
(540,410,o),
(430,508,o),
(337,508,qs),
(252,508,o),
(114,427,o),
(34,286,o),
(34,200,qs),
(34,142,o),
(83,46,o),
(179,-12,o),
(246,-12,qs)
);
}
);
userData = {
assembly = "NPUSHB[ ]	/* 51 values pushed */
0 1 2 4 2 1 4 128 0 4 3 2 4 3 126 0 2 2 0 97 0 0 0 42 77 0 3 3 5 97 6 1 5 5 40 5 78 0 0 0 28 0 27 18 37 34 18 38 7 8 27
CALL[ ]	/* CallFunction */";
};
width = 564;
}
);
note = c;
unicode = 99;
},
{
glyphname = ccedilla;
kernLeft = c;
layers = (
{
anchors = (
{
name = bottom;
pos = (192,-261);
},
{
name = top;
pos = (326,496);
}
);
layerId = m01;
shapes = (
{
closed = 1;
nodes = (
(228,-261,ls),
(288,-261,o),
(373,-194,o),
(373,-137,qs),
(373,-97,o),
(311,-55,o),
(260,-56,q),
(268,-11,l),
(347,-5,o),
(483,87,o),
(514,171,q),
(404,171,l),
(387,127,o),
(309,78,o),
(262,78,qs),
(210,78,o),
(143,150,o),
(143,211,qs),
(143,260,o),
(184,356,o),
(265,418,o),
(321,418,qs),
(369,418,o),
(430,369,o),
(430,325,q),
(541,325,l),
(540,410,o),
(430,508,o),
(337,508,qs),
(252,508,o),
(114,427,o),
(34,286,o),
(34,200,qs),
(34,121,o),
(121,6,o),
(200,-8,q),
(181,-115,l),
(236,-115,ls),
(291,-115,o),
(291,-148,qs),
(290,-172,o),
(253,-197,o),
(222,-197,qs),
(120,-197,l),
(109,-261,l)
);
}
);
userData = {
assembly = "PUSHB[ ]	/* 6 values pushed */
8 1 7 5 1 76
MPPEM[ ]	/* MeasurePixelPerEm */
PUSHB[ ]	/* 1 value pushed */
9
LT[ ]	/* LessThan */
IF[ ]	/* If */
NPUSHB[ ]	/* 47 values pushed */
0 3 4 6 4 3 6 128 0 6 5 4 6 5 126 0 5 7 7 5 112 0 7 0 1 0 7 1 106 0 0 0 8 0 8 99 0 4 4 2 97 0 2 2 42 4 78
ELSE[ ]	/* Else */
NPUSHB[ ]	/* 48 values pushed */
0 3 4 6 4 3 6 128 0 6 5 4 6 5 126 0 5 7 4 5 7 126 0 7 0 1 0 7 1 106 0 0 0 8 0 8 99 0 4 4 2 97 0 2 2 42 4 78
EIF[ ]	/* EndIf */
NPUSHB[ ]	/* 12 values pushed */
36 20 18 37 34 18 39 35 32 9 8 31
CALL[ ]	/* CallFunction */";
};
width = 564;
}
);
note = ccedilla;
unicode = 231;
},
{
glyphname = d;
kernLeft = c;
layers = (
{
anchors = (
{
name = bottom;
pos = (262,0);
},
{
name = top;
pos = (437,992);
},
{
name = topright;
pos = (728,992);
}
);
layerId = m01;
shapes = (
{
closed = 1;
nodes = (
(344,-12,o),
(418,77,q),
(415,0,l),
(511,0,l),
(634,700,l),
(528,700,l),
(479,421,l),
(459,462,o),
(377,508,o),
(316,508,qs),
(245,508,o),
(115,436,o),
(35,300,o),
(35,208,qs),
(35,152,o),
(78,52,o),
(168,-12,o),
(235,-12,qs)
);
},
{
closed = 1;
nodes = (
(213,81,o),
(144,159,o),
(144,219,qs),
(144,266,o),
(184,357,o),
(266,416,o),
(324,416,qs),
(383,416,o),
(452,345,o),
(452,286,qs),
(452,237,o),
(411,143,o),
(329,81,o),
(272,81,qs)
);
}
);
userData = {
assembly = "NPUSHB[ ]	/* 10 values pushed */
10 1 4 0 15 1 2 5 2 76
MPPEM[ ]	/* MeasurePixelPerEm */
PUSHB[ ]	/* 1 value pushed */
21
LT[ ]	/* LessThan */
IF[ ]	/* If */
NPUSHB[ ]	/* 29 values pushed */
0 1 1 33 77 0 4 4 0 97 0 0 0 42 77 7 1 5 5 2 97 6 3 2 2 2 34 2 78
ELSE[ ]	/* Else */
NPUSHB[ ]	/* 33 values pushed */
0 1 1 33 77 0 4 4 0 97 0 0 0 42 77 0 2 2 34 77 7 1 5 5 3 97 6 1 3 3 40 3 78
EIF[ ]	/* EndIf */
NPUSHB[ ]	/* 20 values pushed */
18 18 0 0 18 31 18 30 25 23 0 17 0 16 17 19 38 8 8 25
CALL[ ]	/* CallFunction */";
};
width = 613;
}
);
note = d;
unicode = 100;
},
{
glyphname = dcroat;
kernLeft = c;
layers = (
{
layerId = m01;
shapes = (
{
closed = 1;
nodes = (
(344,-12,o),
(418,77,q),
(415,0,l),
(511,0,l),
(610,565,l),
(657,565,l),
(670,641,l),
(624,641,l),
(634,700,l),
(528,700,l),
(518,641,l),
(358,641,l),
(344,565,l),
(505,565,l),
(479,421,l),
(459,462,o),
(377,508,o),
(316,508,qs),
(245,508,o),
(115,436,o),
(35,300,o),
(35,208,qs),
(35,152,o),
(78,52,o),
(168,-12,o),
(235,-12,qs)
);
},
{
closed = 1;
nodes = (
(144,266,o),
(184,357,o),
(266,416,o),
(324,416,qs),
(383,416,o),
(452,345,o),
(452,286,qs),
(452,237,o),
(411,143,o),
(329,81,o),
(272,81,qs),
(213,81,o),
(144,159,o),
(144,219,qs)
);
}
);
userData = {
assembly = "NPUSHB[ ]	/* 10 values pushed */
10 1 9 0 23 1 6 8 2 76
MPPEM[ ]	/* MeasurePixelPerEm */
PUSHB[ ]	/* 1 value pushed */
21
LT[ ]	/* LessThan */
IF[ ]	/* If */
NPUSHB[ ]	/* 38 values pushed */
4 1 2 5 1 1 0 2 1 104 0 3 3 33 77 0 9 9 0 97 0 0 0 42 77 0 8 8 6 97 10 7 2 6 6 34 6 78
ELSE[ ]	/* Else */
NPUSHB[ ]	/* 42 values pushed */
4 1 2 5 1 1 0 2 1 104 0 3 3 33 77 0 9 9 0 97 0 0 0 42 77 0 6 6 34 77 0 8 8 7 97 10 1 7 7 40 7 78
EIF[ ]	/* EndIf */
NPUSHB[ ]	/* 20 values pushed */
0 0 36 34 29 27 0 25 0 24 17 17 17 17 17 19 38 11 8 29
CALL[ ]	/* CallFunction */";
};
width = 611;
}
);
note = dcroat;
unicode = 273;
},
{
glyphname = eth;
kernLeft = c;
layers = (
{
layerId = m01;
shapes = (
{
closed = 1;
nodes = (
(353,-12,o),
(497,77,o),
(583,247,o),
(583,363,qs),
(583,430,o),
(547,558,o),
(512,614,q),
(598,642,l),
(611,709,l),
(476,666,l),
(460,686,o),
(444,700,q),
(342,700,l),
(368,675,o),
(395,640,q),
(304,611,l),
(292,544,l),
(429,588,l),
(467,520,o),
(483,438,q),
(439,505,o),
(332,505,qs),
(251,505,o),
(115,428,o),
(35,295,o),
(35,215,qs),
(35,158,o),
(88,54,o),
(193,-12,o),
(268,-12,qs)
);
},
{
closed = 1;
nodes = (
(219,78,o),
(145,158,o),
(145,222,qs),
(145,271,o),
(191,360,o),
(275,415,o),
(328,415,qs),
(387,415,o),
(464,343,o),
(464,278,qs),
(464,232,o),
(419,139,o),
(334,78,o),
(279,78,qs)
);
}
);
userData = {
assembly = "NPUSHB[ ]	/* 65 values pushed */
22 19 14 12 11 5 0 1 9 1 3 0 2 76 20 1 1 74 0 1 1 33 77 0 3 3 0 97 0 0 0 42 77 6 1 4 4 2 97 5 1 2 2 40 2 78 30 30 0 0 30 43 30 42 37 35 0 29 0 28 24 38 7 8 24
CALL[ ]	/* CallFunction */";
};
width = 606;
}
);
note = eth;
unicode = 240;
},
{
glyphname = e;
kernLeft = c;
kernRight = ae;
layers = (
{
anchors = (
{
name = bottom;
pos = (237,0);
},
{
name = ogonek;
pos = (353,10);
},
{
name = top;
pos = (325,496);
}
);
layerId = m01;
shapes = (
{
closed = 1;
nodes = (
(326,-12,o),
(464,75,o),
(500,152,q),
(393,152,l),
(372,117,o),
(303,76,o),
(259,76,qs),
(206,76,o),
(138,141,o),
(138,200,qs),
(138,215,o),
(139,223,q),
(525,223,l),
(539,273,o),
(539,315,qs),
(539,369,o),
(493,456,o),
(400,508,o),
(334,508,qs),
(253,508,o),
(116,430,o),
(34,289,o),
(34,199,qs),
(34,102,o),
(148,-12,o),
(243,-12,qs)
);
},
{
closed = 1;
nodes = (
(154,296,l),
(173,355,o),
(265,421,o),
(320,421,qs),
(372,421,o),
(435,363,o),
(435,312,q),
(433,296,l)
);
}
);
userData = {
assembly = "NPUSHB[ ]	/* 61 values pushed */
26 1 6 5 1 76 0 3 1 2 1 3 2 128 0 6 0 1 3 6 1 103 0 5 5 0 97 0 0 0 42 77 0 2 2 4 97 7 1 4 4 40 4 78 0 0 33 32 30 28 0 25 0 24 18 36 21 37 8 8 26
CALL[ ]	/* CallFunction */";
};
width = 562;
}
);
note = e;
unicode = 101;
},
{
glyphname = eogonek;
kernLeft = c;
kernRight = ae;
layers = (
{
anchors = (
{
name = bottom;
pos = (237,0);
},
{
name = ogonek;
pos = (353,10);
},
{
name = top;
pos = (325,496);
}
);
layerId = m01;
shapes = (
{
closed = 1;
nodes = (
(154,296,l),
(173,355,o),
(265,421,o),
(320,421,qs),
(372,421,o),
(435,363,o),
(435,312,q),
(433,296,l)
);
},
{
closed = 1;
nodes = (
(280,-196,o),
(324,-183,q),
(335,-117,l),
(296,-132,o),
(264,-132,qs),
(241,-132,o),
(215,-112,o),
(215,-95,qs),
(215,-73,o),
(251,-36,o),
(294,-17,qs),
(351,9,ls),
(400,29,o),
(477,102,o),
(500,152,q),
(393,152,l),
(372,117,o),
(303,76,o),
(259,76,qs),
(206,76,o),
(138,141,o),
(138,200,qs),
(138,215,o),
(139,223,q),
(525,223,l),
(539,273,o),
(539,315,qs),
(539,369,o),
(493,456,o),
(400,508,o),
(334,508,qs),
(253,508,o),
(116,430,o),
(34,289,o),
(34,199,qs),
(34,116,o),
(119,7,o),
(193,-7,q),
(130,-54,o),
(130,-116,qs),
(130,-155,o),
(191,-196,o),
(240,-196,qs)
);
}
);
userData = {
assembly = "NPUSHB[ ]	/* 11 values pushed */
0 1 1 0 47 12 2 6 4 2 76
MPPEM[ ]	/* MeasurePixelPerEm */
PUSHB[ ]	/* 1 value pushed */
21
LT[ ]	/* LessThan */
IF[ ]	/* If */
NPUSHB[ ]	/* 45 values pushed */
0 5 3 4 3 5 4 128 0 4 6 3 4 6 126 0 1 0 3 5 1 3 103 0 0 0 2 97 0 2 2 42 77 0 6 6 7 98 8 1 7 7 38 7 78
ELSE[ ]	/* Else */
NPUSHB[ ]	/* 42 values pushed */
0 5 3 4 3 5 4 128 0 4 6 3 4 6 126 0 1 0 3 5 1 3 103 0 6 8 1 7 6 7 102 0 0 0 2 97 0 2 2 42 0 78
EIF[ ]	/* EndIf */
NPUSHB[ ]	/* 16 values pushed */
8 8 8 50 8 49 41 18 36 21 43 18 34 9 8 29
CALL[ ]	/* CallFunction */";
};
width = 562;
}
);
note = eogonek;
unicode = 281;
},
{
glyphname = uni0259;
kernLeft = c;
kernRight = b;
layers = (
{
layerId = m01;
shapes = (
{
closed = 1;
nodes = (
(314,-12,o),
(452,71,o),
(529,213,o),
(529,298,qs),
(529,394,o),
(415,508,o),
(319,508,qs),
(232,508,o),
(97,416,o),
(63,344,q),
(169,344,l),
(190,379,o),
(260,420,o),
(304,420,qs),
(357,420,o),
(425,356,o),
(425,297,qs),
(425,287,o),
(423,273,q),
(37,273,l),
(23,215,o),
(23,181,qs),
(23,130,o),
(69,42,o),
(161,-12,o),
(228,-12,qs)
);
},
{
closed = 1;
nodes = (
(190,76,o),
(128,133,o),
(128,182,q),
(129,192,o),
(129,201,q),
(409,201,l),
(390,141,o),
(298,76,o),
(242,76,qs)
);
}
);
userData = {
assembly = "NPUSHB[ ]	/* 66 values pushed */
31 1 6 5 1 76 0 2 1 0 1 2 0 128 0 0 0 5 6 0 5 103 0 1 1 3 97 0 3 3 42 77 8 1 6 6 4 97 7 1 4 4 40 4 78 26 26 0 0 26 34 26 33 29 28 0 25 0 24 34 18 36 21 9 8 26
CALL[ ]	/* CallFunction */";
};
width = 562;
}
);
note = uni0259;
unicode = 601;
},
{
glyphname = f;
kernLeft = f;
kernRight = f;
layers = (
{
layerId = m01;
shapes = (
{
closed = 1;
nodes = (
(147,0,l),
(219,407,l),
(324,407,l),
(340,496,l),
(234,496,l),
(243,547,ls),
(250,581,o),
(285,610,o),
(320,610,qs),
(349,610,l),
(366,700,l),
(320,700,ls),
(244,700,o),
(152,627,o),
(137,548,qs),
(128,496,l),
(62,496,l),
(47,407,l),
(113,407,l),
(41,0,l)
);
}
);
userData = {
assembly = "NPUSHB[ ]	/* 38 values pushed */
0 3 3 2 97 0 2 2 33 77 5 1 0 0 1 95 4 1 1 1 36 77 0 6 6 34 6 78 17 17 19 33 35 17 16 7 8 29
CALL[ ]	/* CallFunction */";
};
width = 325;
}
);
note = f;
unicode = 102;
},
{
glyphname = g;
kernLeft = g;
kernRight = g;
layers = (
{
anchors = (
{
name = bottom;
pos = (159,-310);
},
{
name = top;
pos = (292,496);
}
);
layerId = m01;
shapes = (
{
closed = 1;
nodes = (
(299,-232,o),
(440,-131,o),
(440,-41,qs),
(440,22,o),
(351,92,o),
(274,92,qs),
(182,92,ls),
(113,92,o),
(113,134,qs),
(113,151,o),
(138,174,o),
(158,177,q),
(197,155,o),
(251,155,qs),
(307,155,o),
(402,198,o),
(462,279,o),
(467,332,qs),
(470,375,o),
(453,413,q),
(534,413,l),
(548,496,l),
(360,496,l),
(324,508,o),
(282,508,qs),
(221,508,o),
(123,461,o),
(66,373,o),
(66,315,qs),
(66,263,o),
(96,224,q),
(60,207,o),
(13,142,o),
(13,104,qs),
(13,81,o),
(33,42,o),
(53,31,q),
(12,14,o),
(-33,-49,o),
(-33,-90,qs),
(-33,-157,o),
(87,-232,o),
(179,-232,qs)
);
},
{
closed = 1;
nodes = (
(139,-147,o),
(69,-110,o),
(69,-76,qs),
(69,-37,o),
(129,2,o),
(177,2,qs),
(255,2,ls),
(295,2,o),
(337,-31,o),
(337,-60,qs),
(337,-106,o),
(255,-147,o),
(192,-147,qs)
);
},
{
closed = 1;
nodes = (
(214,240,o),
(165,285,o),
(165,322,qs),
(165,365,o),
(226,423,o),
(273,423,qs),
(315,423,o),
(368,376,o),
(368,339,qs),
(368,296,o),
(305,240,o),
(257,240,qs)
);
}
);
userData = {
assembly = "NPUSHB[ ]	/* 15 values pushed */
24 1 9 2 30 11 2 3 9 5 1 6 4 3 76
MPPEM[ ]	/* MeasurePixelPerEm */
PUSHB[ ]	/* 1 value pushed */
21
LT[ ]	/* LessThan */
IF[ ]	/* If */
NPUSHB[ ]	/* 44 values pushed */
12 1 9 0 3 4 9 3 105 8 1 2 2 0 97 1 1 0 0 42 77 0 4 4 6 95 0 6 6 34 77 11 1 7 7 5 97 10 1 5 5 38 5 78
ELSE[ ]	/* Else */
MPPEM[ ]	/* MeasurePixelPerEm */
PUSHB[ ]	/* 1 value pushed */
25
LT[ ]	/* LessThan */
IF[ ]	/* If */
NPUSHB[ ]	/* 54 values pushed */
12 1 9 0 3 4 9 3 105 8 1 2 2 0 97 0 0 0 42 77 8 1 2 2 1 95 0 1 1 36 77 0 4 4 6 95 0 6 6 34 77 11 1 7 7 5 97 10 1 5 5 38 5 78
ELSE[ ]	/* Else */
MPPEM[ ]	/* MeasurePixelPerEm */
PUSHB[ ]	/* 1 value pushed */
41
LT[ ]	/* LessThan */
IF[ ]	/* If */
NPUSHB[ ]	/* 52 values pushed */
12 1 9 0 3 4 9 3 105 0 8 8 0 97 0 0 0 42 77 0 2 2 1 95 0 1 1 36 77 0 4 4 6 95 0 6 6 34 77 11 1 7 7 5 97 10 1 5 5 38 5 78
ELSE[ ]	/* Else */
NPUSHB[ ]	/* 49 values pushed */
12 1 9 0 3 4 9 3 105 11 1 7 10 1 5 7 5 101 0 8 8 0 97 0 0 0 42 77 0 2 2 1 95 0 1 1 36 77 0 4 4 6 95 0 6 6 34 6 78
EIF[ ]	/* EndIf */
EIF[ ]	/* EndIf */
EIF[ ]	/* EndIf */
NPUSHB[ ]	/* 35 values pushed */
56 56 43 43 0 0 56 67 56 66 62 60 43 55 43 54 50 47 0 42 0 41 37 34 29 27 22 21 20 19 18 16 13 8 22
CALL[ ]	/* CallFunction */";
};
width = 526;
}
);
note = g;
unicode = 103;
},
{
glyphname = h;
kernLeft = b;
kernRight = a;
layers = (
{
layerId = m01;
shapes = (
{
closed = 1;
nodes = (
(120,0,l),
(165,257,ls),
(178,332,o),
(270,418,o),
(330,418,qs),
(427,418,o),
(427,321,qs),
(427,303,o),
(422,275,qs),
(374,0,l),
(480,0,l),
(530,285,ls),
(536,320,o),
(536,349,qs),
(536,427,o),
(453,508,o),
(376,508,qs),
(321,508,o),
(225,459,o),
(193,416,q),
(243,700,l),
(137,700,l),
(14,0,l)
);
}
);
userData = {
assembly = "NPUSHB[ ]	/* 36 values pushed */
2 1 2 3 1 76 0 0 0 33 77 0 3 3 1 97 0 1 1 42 77 4 1 2 2 34 2 78 19 36 21 35 16 5 8 27
CALL[ ]	/* CallFunction */";
};
width = 571;
}
);
note = h;
unicode = 104;
},
{
glyphname = hbar;
kernRight = a;
layers = (
{
layerId = m01;
shapes = (
{
closed = 1;
nodes = (
(126,0,l),
(171,257,ls),
(184,332,o),
(275,418,o),
(335,418,qs),
(432,418,o),
(432,321,qs),
(432,298,o),
(428,275,qs),
(379,0,l),
(485,0,l),
(536,285,ls),
(542,320,o),
(542,349,qs),
(542,427,o),
(459,508,o),
(382,508,qs),
(327,508,o),
(231,459,o),
(199,416,q),
(225,565,l),
(390,565,l),
(403,641,l),
(238,641,l),
(249,700,l),
(143,700,l),
(132,641,l),
(81,641,l),
(67,565,l),
(119,565,l),
(20,0,l)
);
}
);
userData = {
assembly = "NPUSHB[ ]	/* 50 values pushed */
10 1 6 7 1 76 3 1 1 4 1 0 5 1 0 104 0 2 2 33 77 0 7 7 5 97 0 5 5 42 77 8 1 6 6 34 6 78 19 36 21 35 17 17 17 17 16 9 8 31
CALL[ ]	/* CallFunction */";
};
width = 577;
}
);
note = hbar;
unicode = 295;
},
{
glyphname = i;
kernLeft = i;
layers = (
{
anchors = (
{
name = bottom;
pos = (74,0);
}
);
layerId = m01;
shapes = (
{
closed = 1;
nodes = (
(127,0,l),
(214,496,l),
(108,496,l),
(21,0,l)
);
},
{
closed = 1;
nodes = (
(219,586,o),
(259,626,o),
(259,655,qs),
(259,684,o),
(219,723,o),
(190,723,qs),
(161,723,o),
(121,684,o),
(121,655,qs),
(121,626,o),
(161,586,o),
(190,586,qs)
);
}
);
userData = {
assembly = "MPPEM[ ]	/* MeasurePixelPerEm */
PUSHB[ ]	/* 1 value pushed */
33
LT[ ]	/* LessThan */
IF[ ]	/* If */
NPUSHB[ ]	/* 22 values pushed */
4 1 3 3 2 97 0 2 2 41 77 0 0 0 36 77 0 1 1 34 1 78
ELSE[ ]	/* Else */
MPPEM[ ]	/* MeasurePixelPerEm */
PUSHB[ ]	/* 1 value pushed */
45
LT[ ]	/* LessThan */
IF[ ]	/* If */
NPUSHB[ ]	/* 22 values pushed */
4 1 3 3 2 97 0 2 2 39 77 0 0 0 36 77 0 1 1 34 1 78
ELSE[ ]	/* Else */
NPUSHB[ ]	/* 20 values pushed */
0 2 4 1 3 0 2 3 105 0 0 0 36 77 0 1 1 34 1 78
EIF[ ]	/* EndIf */
EIF[ ]	/* EndIf */
NPUSHB[ ]	/* 12 values pushed */
4 4 4 15 4 14 37 17 16 5 8 25
CALL[ ]	/* CallFunction */";
};
width = 236;
}
);
note = i;
unicode = 105;
},
{
glyphname = dotlessi;
kernLeft = dotlessi;
layers = (
{
anchors = (
{
name = bottom;
pos = (67,0);
},
{
name = ogonek;
pos = (120,0);
},
{
name = top;
pos = (154,496);
}
);
layerId = m01;
shapes = (
{
closed = 1;
nodes = (
(120,0,l),
(207,496,l),
(101,496,l),
(14,0,l)
);
}
);
userData = {
assembly = "NPUSHB[ ]	/* 16 values pushed */
0 0 0 36 77 0 1 1 34 1 78 17 16 2 8 24
CALL[ ]	/* CallFunction */";
};
width = 221;
}
);
note = dotlessi;
unicode = 305;
},
{
glyphname = iogonek;
kernLeft = dotlessi;
layers = (
{
anchors = (
{
name = bottom;
pos = (67,0);
},
{
name = ogonek;
pos = (120,0);
},
{
name = top;
pos = (194,723);
}
);
layerId = m01;
shapes = (
{
closed = 1;
nodes = (
(212,583,o),
(253,624,o),
(253,654,qs),
(253,683,o),
(212,723,o),
(182,723,qs),
(152,723,o),
(112,683,o),
(112,654,qs),
(112,624,o),
(152,583,o),
(182,583,qs)
);
},
{
closed = 1;
nodes = (
(47,-206,o),
(91,-193,q),
(102,-127,l),
(63,-142,o),
(31,-142,qs),
(8,-142,o),
(-18,-122,o),
(-18,-105,qs),
(-18,-83,o),
(18,-46,o),
(61,-27,qs),
(120,0,l),
(207,496,l),
(101,496,l),
(17,15,l),
(-48,-16,o),
(-103,-85,o),
(-103,-126,qs),
(-103,-165,o),
(-42,-206,o),
(7,-206,qs)
);
}
);
userData = {
assembly = "PUSHB[ ]	/* 6 values pushed */
29 1 3 2 1 76
MPPEM[ ]	/* MeasurePixelPerEm */
PUSHB[ ]	/* 1 value pushed */
33
LT[ ]	/* LessThan */
IF[ ]	/* If */
NPUSHB[ ]	/* 28 values pushed */
5 1 1 1 0 97 0 0 0 41 77 0 2 2 36 77 0 3 3 4 97 6 1 4 4 38 4 78
ELSE[ ]	/* Else */
MPPEM[ ]	/* MeasurePixelPerEm */
PUSHB[ ]	/* 1 value pushed */
35
LT[ ]	/* LessThan */
IF[ ]	/* If */
NPUSHB[ ]	/* 28 values pushed */
5 1 1 1 0 97 0 0 0 39 77 0 2 2 36 77 0 3 3 4 97 6 1 4 4 38 4 78
ELSE[ ]	/* Else */
MPPEM[ ]	/* MeasurePixelPerEm */
PUSHB[ ]	/* 1 value pushed */
45
LT[ ]	/* LessThan */
IF[ ]	/* If */
NPUSHB[ ]	/* 25 values pushed */
0 3 6 1 4 3 4 101 5 1 1 1 0 97 0 0 0 39 77 0 2 2 36 2 78
ELSE[ ]	/* Else */
NPUSHB[ ]	/* 23 values pushed */
0 0 5 1 1 2 0 1 105 0 3 6 1 4 3 4 101 0 2 2 36 2 78
EIF[ ]	/* EndIf */
EIF[ ]	/* EndIf */
EIF[ ]	/* EndIf */
NPUSHB[ ]	/* 20 values pushed */
12 12 0 0 12 32 12 31 28 26 19 18 0 11 0 10 36 7 8 23
CALL[ ]	/* CallFunction */";
};
width = 221;
}
);
note = iogonek;
unicode = 303;
},
{
glyphname = j;
kernLeft = j;
layers = (
{
layerId = m01;
shapes = (
{
closed = 1;
nodes = (
(-72,-220,ls),
(84,-220,o),
(111,-68,qs),
(210,496,l),
(104,496,l),
(5,-67,ls),
(-1,-100,o),
(-37,-129,o),
(-72,-129,qs),
(-111,-129,l),
(-127,-220,l)
);
},
{
closed = 1;
nodes = (
(215,586,o),
(254,626,o),
(254,655,qs),
(254,684,o),
(215,723,o),
(186,723,qs),
(157,723,o),
(117,684,o),
(117,655,qs),
(117,626,o),
(157,586,o),
(186,586,qs)
);
}
);
userData = {
assembly = "MPPEM[ ]	/* MeasurePixelPerEm */
PUSHB[ ]	/* 1 value pushed */
33
LT[ ]	/* LessThan */
IF[ ]	/* If */
NPUSHB[ ]	/* 27 values pushed */
5 1 4 4 3 97 0 3 3 41 77 0 1 1 36 77 0 0 0 2 97 0 2 2 38 2 78
ELSE[ ]	/* Else */
MPPEM[ ]	/* MeasurePixelPerEm */
PUSHB[ ]	/* 1 value pushed */
45
LT[ ]	/* LessThan */
IF[ ]	/* If */
NPUSHB[ ]	/* 27 values pushed */
5 1 4 4 3 97 0 3 3 39 77 0 1 1 36 77 0 0 0 2 97 0 2 2 38 2 78
ELSE[ ]	/* Else */
NPUSHB[ ]	/* 25 values pushed */
0 3 5 1 4 1 3 4 105 0 1 1 36 77 0 0 0 2 97 0 2 2 38 2 78
EIF[ ]	/* EndIf */
EIF[ ]	/* EndIf */
NPUSHB[ ]	/* 13 values pushed */
11 11 11 22 11 21 37 34 19 32 6 8 26
CALL[ ]	/* CallFunction */";
};
width = 235;
}
);
note = j;
unicode = 106;
},
{
glyphname = uni0237;
layers = (
{
anchors = (
{
name = bottom;
pos = (20,-310);
},
{
name = top;
pos = (162,496);
}
);
layerId = m01;
shapes = (
{
closed = 1;
nodes = (
(-72,-220,ls),
(84,-220,o),
(111,-68,qs),
(210,496,l),
(104,496,l),
(5,-67,ls),
(-1,-100,o),
(-37,-129,o),
(-72,-129,qs),
(-111,-129,l),
(-127,-220,l)
);
}
);
userData = {
assembly = "NPUSHB[ ]	/* 22 values pushed */
0 1 1 36 77 0 0 0 2 97 0 2 2 38 2 78 34 19 32 3 8 25
CALL[ ]	/* CallFunction */";
};
width = 235;
}
);
note = uni0237;
unicode = 567;
},
{
glyphname = k;
kernLeft = b;
kernRight = k;
layers = (
{
anchors = (
{
name = bottom;
pos = (211,0);
},
{
name = top;
pos = (386,992);
}
);
layerId = m01;
shapes = (
{
closed = 1;
nodes = (
(119,0,l),
(161,236,l),
(328,0,l),
(458,0,l),
(265,260,l),
(528,496,l),
(391,496,l),
(170,287,l),
(243,700,l),
(137,700,l),
(13,0,l)
);
}
);
userData = {
assembly = "NPUSHB[ ]	/* 32 values pushed */
8 5 2 3 2 1 1 76 0 0 0 33 77 0 1 1 36 77 3 1 2 2 34 2 78 18 18 18 16 4 8 26
CALL[ ]	/* CallFunction */";
};
width = 509;
}
);
note = k;
unicode = 107;
},
{
glyphname = l;
kernLeft = b;
kernRight = l;
layers = (
{
anchors = (
{
name = bottom;
pos = (67,0);
},
{
name = top;
pos = (190,700);
},
{
name = topright;
pos = (338,992);
}
);
layerId = m01;
shapes = (
{
closed = 1;
nodes = (
(119,0,l),
(243,700,l),
(137,700,l),
(13,0,l)
);
}
);
userData = {
assembly = "NPUSHB[ ]	/* 16 values pushed */
0 0 0 33 77 0 1 1 34 1 78 17 16 2 8 24
CALL[ ]	/* CallFunction */";
};
width = 222;
}
);
note = l;
unicode = 108;
},
{
glyphname = ldot;
layers = (
{
layerId = m01;
shapes = (
{
closed = 1;
nodes = (
(119,0,l),
(243,700,l),
(137,700,l),
(13,0,l)
);
},
{
closed = 1;
nodes = (
(324,311,o),
(357,343,o),
(357,366,qs),
(357,390,o),
(324,423,o),
(301,423,qs),
(277,423,o),
(245,390,o),
(245,366,qs),
(245,343,o),
(277,311,o),
(301,311,qs)
);
}
);
userData = {
assembly = "NPUSHB[ ]	/* 32 values pushed */
0 2 4 1 3 1 2 3 105 0 0 0 33 77 0 1 1 34 1 78 4 4 4 15 4 14 37 17 16 5 8 25
CALL[ ]	/* CallFunction */";
};
width = 347;
}
);
note = ldot;
unicode = 320;
},
{
glyphname = lslash;
kernLeft = lslash;
kernRight = lslash;
layers = (
{
layerId = m01;
shapes = (
{
closed = 1;
nodes = (
(133,0,l),
(198,368,l),
(275,396,l),
(293,496,l),
(216,468,l),
(257,700,l),
(151,700,l),
(103,429,l),
(26,402,l),
(9,301,l),
(85,328,l),
(27,0,l)
);
}
);
userData = {
assembly = "NPUSHB[ ]	/* 24 values pushed */
7 6 1 3 1 0 1 76 0 0 0 33 77 0 1 1 34 1 78 21 20 2 8 24
CALL[ ]	/* CallFunction */";
};
width = 274;
}
);
note = lslash;
unicode = 322;
},
{
glyphname = m;
kernLeft = dotlessi;
kernRight = a;
layers = (
{
layerId = m01;
shapes = (
{
closed = 1;
nodes = (
(120,0,l),
(165,257,ls),
(178,332,o),
(263,418,o),
(316,418,qs),
(359,418,o),
(404,368,o),
(404,319,qs),
(404,296,o),
(400,275,qs),
(352,0,l),
(457,0,l),
(506,273,ls),
(518,339,o),
(601,418,o),
(653,418,qs),
(696,418,o),
(742,368,o),
(742,320,qs),
(742,302,o),
(737,275,qs),
(689,0,l),
(795,0,l),
(846,285,ls),
(852,318,o),
(852,346,qs),
(852,417,o),
(769,508,o),
(686,508,qs),
(634,508,o),
(537,457,o),
(504,412,q),
(488,459,o),
(410,508,o),
(354,508,qs),
(304,508,o),
(221,462,o),
(191,421,q),
(195,496,l),
(101,496,l),
(14,0,l)
);
}
);
userData = {
assembly = "NPUSHB[ ]	/* 10 values pushed */
2 1 4 0 8 1 3 4 2 76
MPPEM[ ]	/* MeasurePixelPerEm */
PUSHB[ ]	/* 1 value pushed */
21
LT[ ]	/* LessThan */
IF[ ]	/* If */
NPUSHB[ ]	/* 21 values pushed */
6 1 4 4 0 97 2 1 2 0 0 36 77 7 5 2 3 3 34 3 78
ELSE[ ]	/* Else */
NPUSHB[ ]	/* 25 values pushed */
0 0 0 36 77 6 1 4 4 1 97 2 1 1 1 42 77 7 5 2 3 3 34 3 78
EIF[ ]	/* EndIf */
NPUSHB[ ]	/* 11 values pushed */
19 37 19 37 21 36 35 16 8 8 30
CALL[ ]	/* CallFunction */";
};
width = 887;
}
);
note = m;
unicode = 109;
},
{
glyphname = n;
kernLeft = dotlessi;
kernRight = a;
layers = (
{
anchors = (
{
name = bottom;
pos = (242,0);
},
{
name = top;
pos = (330,496);
}
);
layerId = m01;
shapes = (
{
closed = 1;
nodes = (
(120,0,l),
(167,263,ls),
(179,333,o),
(270,418,o),
(330,418,qs),
(427,418,o),
(427,320,qs),
(427,297,o),
(422,275,qs),
(374,0,l),
(480,0,l),
(530,285,ls),
(536,318,o),
(536,346,qs),
(536,424,o),
(451,508,o),
(375,508,qs),
(318,508,o),
(221,456,o),
(189,410,q),
(196,496,l),
(101,496,l),
(14,0,l)
);
}
);
userData = {
assembly = "PUSHB[ ]	/* 6 values pushed */
2 1 2 3 1 76
MPPEM[ ]	/* MeasurePixelPerEm */
PUSHB[ ]	/* 1 value pushed */
21
LT[ ]	/* LessThan */
IF[ ]	/* If */
NPUSHB[ ]	/* 18 values pushed */
0 3 3 0 97 1 1 0 0 36 77 4 1 2 2 34 2 78
ELSE[ ]	/* Else */
NPUSHB[ ]	/* 22 values pushed */
0 0 0 36 77 0 3 3 1 97 0 1 1 42 77 4 1 2 2 34 2 78
EIF[ ]	/* EndIf */
PUSHB[ ]	/* 8 values pushed */
19 36 21 35 16 5 8 27
CALL[ ]	/* CallFunction */";
};
width = 571;
}
);
note = n;
unicode = 110;
},
{
glyphname = eng;
kernLeft = dotlessi;
kernRight = a;
layers = (
{
anchors = (
{
name = bottom;
pos = (242,0);
},
{
name = top;
pos = (330,496);
}
);
layerId = m01;
shapes = (
{
closed = 1;
nodes = (
(120,0,l),
(167,263,ls),
(179,335,o),
(270,418,o),
(330,418,qs),
(427,418,o),
(427,320,qs),
(427,297,o),
(422,275,qs),
(362,-67,ls),
(355,-101,o),
(320,-129,o),
(286,-129,qs),
(252,-129,l),
(236,-220,l),
(286,-220,ls),
(360,-220,o),
(453,-148,o),
(467,-68,qs),
(530,285,ls),
(536,318,o),
(536,346,qs),
(536,424,o),
(451,508,o),
(375,508,qs),
(318,508,o),
(221,456,o),
(189,410,q),
(196,496,l),
(101,496,l),
(14,0,l)
);
}
);
userData = {
assembly = "PUSHB[ ]	/* 6 values pushed */
2 1 5 4 1 76
MPPEM[ ]	/* MeasurePixelPerEm */
PUSHB[ ]	/* 1 value pushed */
21
LT[ ]	/* LessThan */
IF[ ]	/* If */
NPUSHB[ ]	/* 27 values pushed */
0 4 4 0 97 1 1 0 0 36 77 0 5 5 34 77 0 3 3 2 97 0 2 2 38 2 78
ELSE[ ]	/* Else */
NPUSHB[ ]	/* 31 values pushed */
0 0 0 36 77 0 4 4 1 97 0 1 1 42 77 0 5 5 34 77 0 3 3 2 97 0 2 2 38 2 78
EIF[ ]	/* EndIf */
NPUSHB[ ]	/* 9 values pushed */
19 38 33 39 35 16 6 8 28
CALL[ ]	/* CallFunction */";
};
width = 571;
}
);
note = eng;
unicode = 331;
},
{
glyphname = o;
kernLeft = c;
kernRight = b;
layers = (
{
anchors = (
{
name = bottom;
pos = (249,0);
},
{
name = ogonek;
pos = (365,10);
},
{
name = top;
pos = (337,496);
},
{
name = topright;
pos = (611,496);
}
);
layerId = m01;
shapes = (
{
closed = 1;
nodes = (
(334,-12,o),
(471,69,o),
(550,208,o),
(550,292,qs),
(550,351,o),
(499,449,o),
(400,508,o),
(332,508,qs),
(250,508,o),
(113,429,o),
(34,292,o),
(34,207,qs),
(34,145,o),
(88,45,o),
(187,-12,o),
(251,-12,qs)
);
},
{
closed = 1;
nodes = (
(211,80,o),
(142,154,o),
(142,214,qs),
(142,270,o),
(187,363,o),
(267,417,o),
(317,417,qs),
(372,417,o),
(443,342,o),
(443,281,qs),
(443,225,o),
(398,133,o),
(318,80,o),
(267,80,qs)
);
}
);
userData = {
assembly = "NPUSHB[ ]	/* 41 values pushed */
0 2 2 0 97 0 0 0 42 77 5 1 3 3 1 97 4 1 1 1 40 1 78 16 16 0 0 16 29 16 28 23 21 0 15 0 14 38 6 8 23
CALL[ ]	/* CallFunction */";
};
width = 584;
}
);
note = o;
unicode = 111;
},
{
glyphname = oslash;
layers = (
{
layerId = m01;
shapes = (
{
closed = 1;
nodes = (
(327,-12,o),
(464,69,o),
(544,208,o),
(544,292,qs),
(544,363,o),
(508,418,q),
(590,496,l),
(500,496,l),
(466,464,l),
(408,508,o),
(325,508,qs),
(243,508,o),
(107,429,o),
(28,291,o),
(28,207,qs),
(28,136,o),
(65,79,q),
(-17,0,l),
(73,0,l),
(108,33,l),
(164,-12,o),
(245,-12,qs)
);
},
{
closed = 1;
nodes = (
(216,79,o),
(182,105,q),
(427,340,l),
(438,313,o),
(438,281,qs),
(438,230,o),
(396,137,o),
(315,79,o),
(261,79,qs)
);
},
{
closed = 1;
nodes = (
(145,156,l),
(134,183,o),
(134,214,qs),
(134,264,o),
(177,359,o),
(257,418,o),
(311,418,qs),
(359,418,o),
(390,391,q)
);
}
);
userData = {
assembly = "MPPEM[ ]	/* MeasurePixelPerEm */
PUSHB[ ]	/* 1 value pushed */
21
LT[ ]	/* LessThan */
IF[ ]	/* If */
NPUSHB[ ]	/* 25 values pushed */
12 1 5 1 39 38 28 27 4 4 5 1 1 0 4 3 76 15 1 5 4 1 4 2 75
ELSE[ ]	/* Else */
NPUSHB[ ]	/* 25 values pushed */
12 1 5 2 39 38 28 27 4 4 5 1 1 0 4 3 76 15 1 5 4 1 4 2 75
EIF[ ]	/* EndIf */
MPPEM[ ]	/* MeasurePixelPerEm */
PUSHB[ ]	/* 1 value pushed */
21
LT[ ]	/* LessThan */
IF[ ]	/* If */
NPUSHB[ ]	/* 25 values pushed */
0 5 5 1 97 2 1 1 1 42 77 7 1 4 4 0 97 6 3 2 0 0 34 0 78
ELSE[ ]	/* Else */
NPUSHB[ ]	/* 33 values pushed */
0 2 2 36 77 0 5 5 1 97 0 1 1 42 77 0 0 0 34 77 7 1 4 4 3 97 6 1 3 3 40 3 78
EIF[ ]	/* EndIf */
NPUSHB[ ]	/* 20 values pushed */
22 22 0 0 33 31 22 30 22 29 0 21 0 20 18 38 18 8 8 25
CALL[ ]	/* CallFunction */";
};
width = 572;
}
);
note = oslash;
unicode = 248;
},
{
glyphname = oe;
kernLeft = c;
kernRight = ae;
layers = (
{
anchors = (
{
name = bottom;
pos = (442,0);
},
{
name = top;
pos = (530,496);
}
);
layerId = m01;
shapes = (
{
closed = 1;
nodes = (
(315,-12,o),
(428,39,o),
(469,84,q),
(495,38,o),
(588,-12,o),
(649,-12,qs),
(727,-12,o),
(868,72,o),
(907,152,q),
(800,152,l),
(778,116,o),
(708,76,o),
(664,76,qs),
(611,76,o),
(543,141,o),
(543,199,qs),
(543,207,o),
(545,223,q),
(931,223,l),
(945,282,o),
(945,315,qs),
(945,369,o),
(898,456,o),
(806,508,o),
(741,508,qs),
(674,508,o),
(558,455,o),
(518,408,q),
(492,455,o),
(396,508,o),
(332,508,qs),
(250,508,o),
(113,429,o),
(34,291,o),
(34,207,qs),
(34,148,o),
(86,48,o),
(184,-12,o),
(251,-12,qs)
);
},
{
closed = 1;
nodes = (
(208,80,o),
(142,155,o),
(142,214,qs),
(142,264,o),
(184,358,o),
(264,417,o),
(317,417,qs),
(372,417,o),
(443,342,o),
(443,281,qs),
(443,230,o),
(401,137,o),
(321,80,o),
(267,80,qs)
);
},
{
closed = 1;
nodes = (
(559,296,l),
(578,355,o),
(670,421,o),
(726,421,qs),
(777,421,o),
(840,364,o),
(840,315,qs),
(840,303,o),
(839,296,q)
);
}
);
userData = {
assembly = "NPUSHB[ ]	/* 80 values pushed */
10 1 10 7 35 1 3 4 2 76 0 4 2 3 2 4 3 128 0 10 0 2 4 10 2 103 9 1 7 7 0 97 1 1 0 0 42 77 12 8 2 3 3 5 97 11 6 2 5 5 40 5 78 39 39 0 0 61 60 58 56 39 52 39 51 46 44 0 38 0 37 34 18 36 21 36 38 13 8 28
CALL[ ]	/* CallFunction */";
};
width = 967;
}
);
note = oe;
unicode = 339;
},
{
glyphname = p;
kernLeft = p;
kernRight = b;
layers = (
{
layerId = m01;
shapes = (
{
closed = 1;
nodes = (
(81,-220,l),
(134,76,l),
(153,37,o),
(238,-12,o),
(292,-12,qs),
(374,-12,o),
(505,69,o),
(579,209,o),
(579,295,qs),
(579,355,o),
(531,452,o),
(439,508,o),
(376,508,qs),
(266,508,o),
(194,420,q),
(198,496,l),
(101,496,l),
(-25,-220,l)
);
},
{
closed = 1;
nodes = (
(232,81,o),
(160,155,o),
(160,215,qs),
(160,269,o),
(204,361,o),
(287,416,o),
(341,416,qs),
(399,416,o),
(470,338,o),
(470,278,qs),
(470,222,o),
(425,132,o),
(344,81,o),
(292,81,qs)
);
}
);
userData = {
assembly = "NPUSHB[ ]	/* 10 values pushed */
2 1 4 0 15 1 2 5 2 76
MPPEM[ ]	/* MeasurePixelPerEm */
PUSHB[ ]	/* 1 value pushed */
21
LT[ ]	/* LessThan */
IF[ ]	/* If */
NPUSHB[ ]	/* 28 values pushed */
0 4 4 0 97 1 1 0 0 36 77 6 1 5 5 2 97 0 2 2 40 77 0 3 3 38 3 78
ELSE[ ]	/* Else */
NPUSHB[ ]	/* 32 values pushed */
0 0 0 36 77 0 4 4 1 97 0 1 1 42 77 6 1 5 5 2 97 0 2 2 40 77 0 3 3 38 3 78
EIF[ ]	/* EndIf */
NPUSHB[ ]	/* 14 values pushed */
18 18 18 31 18 30 38 19 38 34 16 7 8 27
CALL[ ]	/* CallFunction */";
};
width = 613;
}
);
note = p;
unicode = 112;
},
{
glyphname = thorn;
kernRight = b;
layers = (
{
layerId = m01;
shapes = (
{
closed = 1;
nodes = (
(81,-220,l),
(134,76,l),
(153,37,o),
(238,-12,o),
(292,-12,qs),
(374,-12,o),
(505,69,o),
(579,209,o),
(579,295,qs),
(579,355,o),
(531,452,o),
(439,508,o),
(376,508,qs),
(270,508,o),
(195,426,q),
(243,700,l),
(137,700,l),
(-25,-220,l)
);
},
{
closed = 1;
nodes = (
(232,81,o),
(160,155,o),
(160,215,qs),
(160,269,o),
(204,361,o),
(287,416,o),
(341,416,qs),
(399,416,o),
(470,338,o),
(470,278,qs),
(470,222,o),
(425,132,o),
(344,81,o),
(292,81,qs)
);
}
);
userData = {
assembly = "NPUSHB[ ]	/* 56 values pushed */
2 1 4 1 15 1 2 5 2 76 0 0 0 33 77 0 4 4 1 97 0 1 1 42 77 6 1 5 5 2 98 0 2 2 40 77 0 3 3 38 3 78 18 18 18 31 18 30 38 19 38 34 16 7 8 27
CALL[ ]	/* CallFunction */";
};
width = 613;
}
);
note = thorn;
unicode = 254;
},
{
glyphname = q;
kernLeft = c;
layers = (
{
layerId = m01;
shapes = (
{
closed = 1;
nodes = (
(367,-220,l),
(473,-220,l),
(599,496,l),
(504,496,l),
(479,421,l),
(459,462,o),
(377,508,o),
(316,508,qs),
(245,508,o),
(115,436,o),
(35,300,o),
(35,208,qs),
(35,152,o),
(78,52,o),
(168,-12,o),
(235,-12,qs),
(344,-12,o),
(418,77,q)
);
},
{
closed = 1;
nodes = (
(213,81,o),
(144,159,o),
(144,219,qs),
(144,266,o),
(184,357,o),
(266,416,o),
(324,416,qs),
(383,416,o),
(452,345,o),
(452,286,qs),
(452,237,o),
(411,143,o),
(329,81,o),
(272,81,qs)
);
}
);
userData = {
assembly = "MPPEM[ ]	/* MeasurePixelPerEm */
PUSHB[ ]	/* 1 value pushed */
21
LT[ ]	/* LessThan */
IF[ ]	/* If */
NPUSHB[ ]	/* 10 values pushed */
12 1 4 1 17 1 0 5 2 76
ELSE[ ]	/* Else */
NPUSHB[ ]	/* 10 values pushed */
12 1 4 2 17 1 0 5 2 76
EIF[ ]	/* EndIf */
MPPEM[ ]	/* MeasurePixelPerEm */
PUSHB[ ]	/* 1 value pushed */
21
LT[ ]	/* LessThan */
IF[ ]	/* If */
NPUSHB[ ]	/* 28 values pushed */
0 4 4 1 97 2 1 1 1 42 77 6 1 5 5 0 97 0 0 0 40 77 0 3 3 38 3 78
ELSE[ ]	/* Else */
NPUSHB[ ]	/* 32 values pushed */
0 2 2 36 77 0 4 4 1 97 0 1 1 42 77 6 1 5 5 0 97 0 0 0 40 77 0 3 3 38 3 78
EIF[ ]	/* EndIf */
NPUSHB[ ]	/* 14 values pushed */
18 18 18 31 18 30 39 17 19 38 32 7 8 27
CALL[ ]	/* CallFunction */";
};
width = 613;
}
);
note = q;
unicode = 113;
},
{
glyphname = r;
kernLeft = dotlessi;
kernRight = r;
layers = (
{
anchors = (
{
name = bottom;
pos = (73,0);
},
{
name = top;
pos = (228,496);
}
);
layerId = m01;
shapes = (
{
closed = 1;
nodes = (
(120,0,l),
(165,251,ls),
(190,397,o),
(345,397,qs),
(374,397,l),
(393,508,l),
(330,508,o),
(226,454,o),
(191,407,q),
(197,496,l),
(101,496,l),
(14,0,l)
);
}
);
userData = {
assembly = "PUSHB[ ]	/* 6 values pushed */
2 1 2 0 1 76
MPPEM[ ]	/* MeasurePixelPerEm */
PUSHB[ ]	/* 1 value pushed */
21
LT[ ]	/* LessThan */
IF[ ]	/* If */
NPUSHB[ ]	/* 17 values pushed */
0 2 2 0 97 1 1 0 0 36 77 0 3 3 34 3 78
ELSE[ ]	/* Else */
NPUSHB[ ]	/* 21 values pushed */
0 0 0 36 77 0 2 2 1 97 0 1 1 42 77 0 3 3 34 3 78
EIF[ ]	/* EndIf */
PUSHB[ ]	/* 7 values pushed */
18 33 19 16 4 8 26
CALL[ ]	/* CallFunction */";
};
width = 366;
}
);
note = r;
unicode = 114;
},
{
glyphname = s;
kernLeft = s;
kernRight = s;
layers = (
{
anchors = (
{
name = bottom;
pos = (211,0);
},
{
name = top;
pos = (299,496);
}
);
layerId = m01;
shapes = (
{
closed = 1;
nodes = (
(284,-12,o),
(387,32,o),
(444,112,o),
(444,163,qs),
(444,221,o),
(357,280,o),
(281,297,qs),
(230,309,o),
(181,336,o),
(181,360,qs),
(181,387,o),
(233,424,o),
(274,424,qs),
(314,424,o),
(362,386,o),
(361,354,q),
(464,354,l),
(467,426,o),
(369,508,o),
(285,508,qs),
(225,508,o),
(129,466,o),
(74,392,o),
(74,346,qs),
(74,273,o),
(160,239,qs),
(193,224,o),
(236,214,qs),
(286,204,o),
(334,176,o),
(334,149,qs),
(334,114,o),
(279,73,o),
(231,73,qs),
(177,73,o),
(123,124,o),
(125,165,q),
(19,165,l),
(15,112,o),
(60,32,o),
(153,-12,o),
(217,-12,qs)
);
}
);
userData = {
assembly = "MPPEM[ ]	/* MeasurePixelPerEm */
PUSHB[ ]	/* 1 value pushed */
17
LT[ ]	/* LessThan */
IF[ ]	/* If */
NPUSHB[ ]	/* 36 values pushed */
0 3 4 0 4 3 114 0 0 1 4 0 1 126 0 4 4 2 97 0 2 2 42 77 0 1 1 5 97 6 1 5 5 40 5 78
ELSE[ ]	/* Else */
MPPEM[ ]	/* MeasurePixelPerEm */
PUSHB[ ]	/* 1 value pushed */
18
LT[ ]	/* LessThan */
IF[ ]	/* If */
NPUSHB[ ]	/* 37 values pushed */
0 3 4 0 4 3 0 128 0 0 1 4 0 1 126 0 4 4 2 97 0 2 2 42 77 0 1 1 5 97 6 1 5 5 40 5 78
ELSE[ ]	/* Else */
MPPEM[ ]	/* MeasurePixelPerEm */
PUSHB[ ]	/* 1 value pushed */
19
LT[ ]	/* LessThan */
IF[ ]	/* If */
NPUSHB[ ]	/* 36 values pushed */
0 3 4 0 4 3 114 0 0 1 4 0 1 126 0 4 4 2 97 0 2 2 42 77 0 1 1 5 97 6 1 5 5 40 5 78
ELSE[ ]	/* Else */
NPUSHB[ ]	/* 37 values pushed */
0 3 4 0 4 3 0 128 0 0 1 4 0 1 126 0 4 4 2 97 0 2 2 42 77 0 1 1 5 97 6 1 5 5 40 5 78
EIF[ ]	/* EndIf */
EIF[ ]	/* EndIf */
EIF[ ]	/* EndIf */
NPUSHB[ ]	/* 14 values pushed */
0 0 0 41 0 40 34 18 44 34 19 7 8 27
CALL[ ]	/* CallFunction */";
};
width = 499;
}
);
note = s;
unicode = 115;
},
{
glyphname = scedilla;
kernLeft = s;
kernRight = s;
layers = (
{
anchors = (
{
name = bottom;
pos = (165,-261);
},
{
name = top;
pos = (299,496);
}
);
layerId = m01;
shapes = (
{
closed = 1;
nodes = (
(200,-261,ls),
(260,-261,o),
(345,-194,o),
(345,-137,qs),
(345,-97,o),
(283,-55,o),
(232,-56,q),
(240,-11,l),
(332,-6,o),
(444,90,o),
(444,163,qs),
(444,221,o),
(357,280,o),
(281,297,qs),
(230,309,o),
(181,336,o),
(181,360,qs),
(181,387,o),
(233,424,o),
(274,424,qs),
(314,424,o),
(362,386,o),
(361,354,q),
(464,354,l),
(467,426,o),
(369,508,o),
(285,508,qs),
(225,508,o),
(129,466,o),
(74,392,o),
(74,346,qs),
(74,273,o),
(160,239,qs),
(193,224,o),
(236,214,qs),
(286,204,o),
(334,176,o),
(334,149,qs),
(334,114,o),
(279,73,o),
(231,73,qs),
(177,73,o),
(123,124,o),
(125,165,q),
(19,165,l),
(13,95,o),
(95,2,o),
(172,-9,q),
(153,-115,l),
(208,-115,ls),
(263,-115,o),
(263,-148,qs),
(262,-172,o),
(225,-197,o),
(194,-197,qs),
(92,-197,l),
(81,-261,l)
);
}
);
userData = {
assembly = "PUSHB[ ]	/* 5 values pushed */
8 1 7 1 75
MPPEM[ ]	/* MeasurePixelPerEm */
PUSHB[ ]	/* 1 value pushed */
17
LT[ ]	/* LessThan */
IF[ ]	/* If */
NPUSHB[ ]	/* 50 values pushed */
0 5 6 2 6 5 114 0 2 3 6 2 3 126 0 8 0 1 0 8 1 105 0 0 0 9 0 9 100 0 6 6 4 97 0 4 4 42 77 0 3 3 7 97 0 7 7 40 7 78
ELSE[ ]	/* Else */
MPPEM[ ]	/* MeasurePixelPerEm */
PUSHB[ ]	/* 1 value pushed */
18
LT[ ]	/* LessThan */
IF[ ]	/* If */
NPUSHB[ ]	/* 51 values pushed */
0 5 6 2 6 5 2 128 0 2 3 6 2 3 126 0 8 0 1 0 8 1 105 0 0 0 9 0 9 100 0 6 6 4 97 0 4 4 42 77 0 3 3 7 97 0 7 7 40 7 78
ELSE[ ]	/* Else */
MPPEM[ ]	/* MeasurePixelPerEm */
PUSHB[ ]	/* 1 value pushed */
19
LT[ ]	/* LessThan */
IF[ ]	/* If */
NPUSHB[ ]	/* 50 values pushed */
0 5 6 2 6 5 114 0 2 3 6 2 3 126 0 8 0 1 0 8 1 105 0 0 0 9 0 9 100 0 6 6 4 97 0 4 4 42 77 0 3 3 7 97 0 7 7 40 7 78
ELSE[ ]	/* Else */
NPUSHB[ ]	/* 51 values pushed */
0 5 6 2 6 5 2 128 0 2 3 6 2 3 126 0 8 0 1 0 8 1 105 0 0 0 9 0 9 100 0 6 6 4 97 0 4 4 42 77 0 3 3 7 97 0 7 7 40 7 78
EIF[ ]	/* EndIf */
EIF[ ]	/* EndIf */
EIF[ ]	/* EndIf */
NPUSHB[ ]	/* 14 values pushed */
56 54 17 26 34 18 44 34 20 35 32 10 8 31
CALL[ ]	/* CallFunction */";
};
width = 499;
}
);
note = scedilla;
unicode = 351;
},
{
glyphname = germandbls;
kernRight = germandbls;
layers = (
{
layerId = m01;
shapes = (
{
closed = 1;
nodes = (
(468,-10,o),
(569,38,o),
(625,122,o),
(625,176,qs),
(625,228,o),
(572,292,o),
(512,314,qs),
(462,332,o),
(416,359,o),
(416,380,qs),
(416,398,o),
(446,426,o),
(480,447,qs),
(508,464,o),
(526,477,qs),
(554,498,o),
(585,551,o),
(585,587,qs),
(585,627,o),
(537,694,o),
(446,732,o),
(384,732,qs),
(266,732,o),
(122,612,o),
(105,515,qs),
(13,0,l),
(119,0,l),
(209,506,ls),
(221,572,o),
(300,643,o),
(369,643,qs),
(420,643,o),
(476,604,o),
(476,570,qs),
(476,545,o),
(448,507,o),
(416,484,o),
(371,455,qs),
(306,413,o),
(306,358,qs),
(306,319,o),
(366,267,o),
(435,242,qs),
(480,226,o),
(518,190,o),
(518,164,qs),
(518,122,o),
(461,71,o),
(414,71,qs),
(372,71,o),
(323,118,o),
(323,158,qs),
(324,172,l),
(221,172,l),
(215,89,o),
(313,-10,o),
(403,-10,qs)
);
}
);
userData = {
assembly = "PUSHB[ ]	/* 6 values pushed */
4 1 1 0 1 76
MPPEM[ ]	/* MeasurePixelPerEm */
PUSHB[ ]	/* 1 value pushed */
13
LT[ ]	/* LessThan */
IF[ ]	/* If */
NPUSHB[ ]	/* 30 values pushed */
0 0 2 1 1 0 114 0 2 2 4 97 0 4 4 41 77 0 1 1 3 98 6 5 2 3 3 34 3 78
ELSE[ ]	/* Else */
MPPEM[ ]	/* MeasurePixelPerEm */
PUSHB[ ]	/* 1 value pushed */
25
LT[ ]	/* LessThan */
IF[ ]	/* If */
NPUSHB[ ]	/* 31 values pushed */
0 0 2 1 2 0 1 128 0 2 2 4 97 0 4 4 41 77 0 1 1 3 98 6 5 2 3 3 34 3 78
ELSE[ ]	/* Else */
MPPEM[ ]	/* MeasurePixelPerEm */
PUSHB[ ]	/* 1 value pushed */
33
LT[ ]	/* LessThan */
IF[ ]	/* If */
NPUSHB[ ]	/* 35 values pushed */
0 0 2 1 2 0 1 128 0 2 2 4 97 0 4 4 41 77 0 3 3 34 77 0 1 1 5 98 6 1 5 5 40 5 78
ELSE[ ]	/* Else */
NPUSHB[ ]	/* 33 values pushed */
0 0 2 1 2 0 1 128 0 4 0 2 0 4 2 105 0 3 3 34 77 0 1 1 5 98 6 1 5 5 40 5 78
EIF[ ]	/* EndIf */
EIF[ ]	/* EndIf */
EIF[ ]	/* EndIf */
NPUSHB[ ]	/* 17 values pushed */
0 0 0 56 0 55 35 33 30 29 26 24 35 18 7 8 24
CALL[ ]	/* CallFunction */";
};
width = 670;
}
);
note = germandbls;
unicode = 223;
},
{
glyphname = t;
kernLeft = t;
kernRight = t;
layers = (
{
anchors = (
{
name = bottom;
pos = (170,0);
},
{
name = top;
pos = (230,496);
},
{
name = topright;
pos = (366,992);
}
);
layerId = m01;
shapes = (
{
closed = 1;
nodes = (
(293,0,l),
(309,91,l),
(243,91,ls),
(209,91,o),
(179,113,o),
(179,140,qs),
(181,164,l),
(225,407,l),
(364,407,l),
(381,496,l),
(240,496,l),
(262,616,l),
(155,616,l),
(134,496,l),
(55,496,l),
(39,407,l),
(118,407,l),
(75,164,ls),
(70,136,o),
(70,117,qs),
(70,55,o),
(142,0,o),
(210,0,qs)
);
}
);
userData = {
assembly = "PUSHB[ ]	/* 6 values pushed */
16 1 5 0 1 76
MPPEM[ ]	/* MeasurePixelPerEm */
PUSHB[ ]	/* 1 value pushed */
11
LT[ ]	/* LessThan */
IF[ ]	/* If */
NPUSHB[ ]	/* 30 values pushed */
0 2 1 1 2 112 4 1 0 0 1 95 3 1 1 1 36 77 0 5 5 6 95 7 1 6 6 34 6 78
ELSE[ ]	/* Else */
NPUSHB[ ]	/* 29 values pushed */
0 2 1 2 133 4 1 0 0 1 95 3 1 1 1 36 77 0 5 5 6 95 7 1 6 6 34 6 78
EIF[ ]	/* EndIf */
NPUSHB[ ]	/* 15 values pushed */
0 0 0 22 0 21 36 17 17 17 17 21 8 8 28
CALL[ ]	/* CallFunction */";
};
width = 371;
}
);
note = t;
unicode = 116;
},
{
glyphname = uni0163;
kernLeft = t;
kernRight = t;
layers = (
{
anchors = (
{
name = bottom;
pos = (124,-261);
},
{
name = top;
pos = (230,496);
},
{
name = topright;
pos = (366,992);
}
);
layerId = m01;
shapes = (
{
closed = 1;
nodes = (
(293,0,l),
(309,91,l),
(243,91,ls),
(209,91,o),
(179,113,o),
(179,140,qs),
(181,164,l),
(225,407,l),
(364,407,l),
(381,496,l),
(240,496,l),
(262,616,l),
(155,616,l),
(134,496,l),
(55,496,l),
(39,407,l),
(118,407,l),
(75,164,ls),
(70,136,o),
(70,117,qs),
(70,36,o),
(135,11,q),
(112,-115,l),
(167,-115,ls),
(222,-115,o),
(222,-148,qs),
(221,-172,o),
(184,-197,o),
(153,-197,qs),
(51,-197,l),
(40,-261,l),
(159,-261,ls),
(219,-261,o),
(304,-194,o),
(304,-137,qs),
(304,-97,o),
(242,-55,o),
(191,-56,q),
(201,0,l),
(210,0,l)
);
}
);
userData = {
assembly = "NPUSHB[ ]	/* 10 values pushed */
33 1 9 4 17 1 10 9 2 76
MPPEM[ ]	/* MeasurePixelPerEm */
PUSHB[ ]	/* 1 value pushed */
11
LT[ ]	/* LessThan */
IF[ ]	/* If */
NPUSHB[ ]	/* 45 values pushed */
0 6 5 5 6 112 0 0 0 3 2 0 3 105 0 2 0 1 2 1 99 8 1 4 4 5 95 7 1 5 5 36 77 0 9 9 10 95 11 1 10 10 34 10 78
ELSE[ ]	/* Else */
NPUSHB[ ]	/* 44 values pushed */
0 6 5 6 133 0 0 0 3 2 0 3 105 0 2 0 1 2 1 99 8 1 4 4 5 95 7 1 5 5 36 77 0 9 9 10 95 11 1 10 10 34 10 78
EIF[ ]	/* EndIf */
NPUSHB[ ]	/* 20 values pushed */
0 0 0 39 0 38 37 35 17 17 17 17 22 35 33 36 17 12 8 31
CALL[ ]	/* CallFunction */";
};
width = 371;
}
);
note = uni0163;
unicode = 355;
},
{
glyphname = u;
kernLeft = u;
layers = (
{
anchors = (
{
name = bottom;
pos = (242,0);
},
{
name = ogonek;
pos = (470,0);
},
{
name = top;
pos = (330,496);
},
{
name = topright;
pos = (600,496);
}
);
layerId = m01;
shapes = (
{
closed = 1;
nodes = (
(253,-12,o),
(350,40,o),
(382,86,q),
(376,0,l),
(470,0,l),
(557,496,l),
(451,496,l),
(405,233,ls),
(393,161,o),
(301,78,o),
(242,78,qs),
(145,78,o),
(145,177,qs),
(145,194,o),
(149,222,qs),
(198,496,l),
(92,496,l),
(41,211,ls),
(35,180,o),
(35,151,qs),
(35,73,o),
(120,-12,o),
(196,-12,qs)
);
}
);
userData = {
assembly = "PUSHB[ ]	/* 6 values pushed */
19 1 1 0 1 76
MPPEM[ ]	/* MeasurePixelPerEm */
PUSHB[ ]	/* 1 value pushed */
21
LT[ ]	/* LessThan */
IF[ ]	/* If */
NPUSHB[ ]	/* 19 values pushed */
2 1 0 0 36 77 0 1 1 3 98 5 4 2 3 3 34 3 78
ELSE[ ]	/* Else */
NPUSHB[ ]	/* 23 values pushed */
2 1 0 0 36 77 0 3 3 34 77 0 1 1 4 98 5 1 4 4 40 4 78
EIF[ ]	/* EndIf */
NPUSHB[ ]	/* 13 values pushed */
0 0 0 22 0 21 17 19 36 21 6 8 26
CALL[ ]	/* CallFunction */";
};
width = 571;
}
);
note = u;
unicode = 117;
},
{
glyphname = uogonek;
kernLeft = u;
layers = (
{
anchors = (
{
name = bottom;
pos = (242,0);
},
{
name = ogonek;
pos = (470,0);
},
{
name = top;
pos = (330,496);
},
{
name = topright;
pos = (600,496);
}
);
layerId = m01;
shapes = (
{
closed = 1;
nodes = (
(253,-12,o),
(350,40,o),
(382,86,q),
(377,20,l),
(307,-12,o),
(247,-83,o),
(247,-126,qs),
(247,-165,o),
(308,-206,o),
(357,-206,qs),
(397,-206,o),
(441,-193,q),
(452,-127,l),
(413,-142,o),
(381,-142,qs),
(358,-142,o),
(332,-122,o),
(332,-105,qs),
(332,-83,o),
(368,-46,o),
(411,-27,qs),
(470,0,l),
(557,496,l),
(451,496,l),
(405,233,ls),
(393,161,o),
(301,78,o),
(242,78,qs),
(145,78,o),
(145,177,qs),
(145,194,o),
(149,222,qs),
(198,496,l),
(92,496,l),
(41,211,ls),
(35,180,o),
(35,151,qs),
(35,73,o),
(120,-12,o),
(196,-12,qs)
);
}
);
userData = {
assembly = "NPUSHB[ ]	/* 10 values pushed */
36 1 1 0 26 1 3 5 2 76
MPPEM[ ]	/* MeasurePixelPerEm */
PUSHB[ ]	/* 1 value pushed */
35
LT[ ]	/* LessThan */
IF[ ]	/* If */
NPUSHB[ ]	/* 28 values pushed */
2 1 0 0 36 77 0 1 1 5 98 6 1 5 5 40 77 0 3 3 4 97 0 4 4 38 4 78
ELSE[ ]	/* Else */
NPUSHB[ ]	/* 25 values pushed */
0 3 0 4 3 4 101 2 1 0 0 36 77 0 1 1 5 98 6 1 5 5 40 5 78
EIF[ ]	/* EndIf */
NPUSHB[ ]	/* 14 values pushed */
0 0 0 39 0 38 35 39 19 36 21 7 8 27
CALL[ ]	/* CallFunction */";
};
width = 571;
}
);
note = uogonek;
unicode = 371;
},
{
glyphname = v;
kernLeft = v;
kernRight = v;
layers = (
{
layerId = m01;
shapes = (
{
closed = 1;
nodes = (
(283,0,l),
(562,496,l),
(450,496,l),
(237,100,l),
(163,496,l),
(53,496,l),
(155,0,l)
);
}
);
userData = {
assembly = "NPUSHB[ ]	/* 24 values pushed */
2 1 2 0 1 76 1 1 0 0 36 77 0 2 2 34 2 78 17 18 16 3 8 25
CALL[ ]	/* CallFunction */";
};
width = 527;
}
);
note = v;
unicode = 118;
},
{
glyphname = w;
kernLeft = w;
kernRight = w;
layers = (
{
anchors = (
{
name = bottom;
pos = (334,0);
},
{
name = top;
pos = (422,496);
}
);
layerId = m01;
shapes = (
{
closed = 1;
nodes = (
(220,0,l),
(403,390,l),
(448,0,l),
(558,0,l),
(790,496,l),
(685,496,l),
(523,123,l),
(481,496,l),
(362,496,l),
(188,123,l),
(158,496,l),
(53,496,l),
(111,0,l)
);
}
);
userData = {
assembly = "NPUSHB[ ]	/* 30 values pushed */
10 5 2 3 3 0 1 76 2 1 2 0 0 36 77 4 1 3 3 34 3 78 18 17 18 18 16 5 8 27
CALL[ ]	/* CallFunction */";
};
width = 755;
}
);
note = w;
unicode = 119;
},
{
glyphname = x;
kernLeft = x;
kernRight = x;
layers = (
{
layerId = m01;
shapes = (
{
closed = 1;
nodes = (
(82,0,l),
(229,180,l),
(319,0,l),
(434,0,l),
(310,247,l),
(522,496,l),
(408,496,l),
(261,317,l),
(171,496,l),
(55,496,l),
(180,250,l),
(-33,0,l)
);
}
);
userData = {
assembly = "NPUSHB[ ]	/* 28 values pushed */
9 6 3 3 2 0 1 76 1 1 0 0 36 77 3 1 2 2 34 2 78 18 18 18 17 4 8 26
CALL[ ]	/* CallFunction */";
};
width = 489;
}
);
note = x;
unicode = 120;
},
{
glyphname = y;
kernLeft = y;
kernRight = y;
layers = (
{
anchors = (
{
name = bottom;
pos = (233,0);
},
{
name = top;
pos = (321,496);
}
);
layerId = m01;
shapes = (
{
closed = 1;
nodes = (
(144,-220,l),
(590,496,l),
(478,496,l),
(255,129,l),
(165,496,l),
(52,496,l),
(179,13,l),
(32,-220,l)
);
}
);
userData = {
assembly = "NPUSHB[ ]	/* 24 values pushed */
3 1 2 0 1 76 1 1 0 0 36 77 0 2 2 38 2 78 17 18 17 3 8 25
CALL[ ]	/* CallFunction */";
};
width = 554;
}
);
note = y;
unicode = 121;
},
{
glyphname = z;
kernLeft = z;
kernRight = z;
layers = (
{
anchors = (
{
name = bottom;
pos = (190,0);
},
{
name = top;
pos = (278,496);
}
);
layerId = m01;
shapes = (
{
closed = 1;
nodes = (
(376,0,l),
(392,88,l),
(122,88,l),
(454,410,l),
(470,496,l),
(89,496,l),
(73,408,l),
(333,408,l),
(2,86,l),
(-14,0,l)
);
}
);
userData = {
assembly = "NPUSHB[ ]	/* 28 values pushed */
0 0 0 1 95 0 1 1 36 77 0 2 2 3 95 0 3 3 34 3 78 17 18 17 17 4 8 26
CALL[ ]	/* CallFunction */";
};
width = 458;
}
);
note = z;
unicode = 122;
},
{
glyphname = uniA78C;
layers = (
{
layerId = m01;
shapes = (
{
closed = 1;
nodes = (
(169,335,l),
(252,700,l),
(138,700,l),
(90,335,l)
);
}
);
userData = {
assembly = "NPUSHB[ ]	/* 16 values pushed */
0 1 1 0 95 0 0 0 33 1 78 17 16 2 8 24
CALL[ ]	/* CallFunction */";
};
width = 229;
}
);
note = uniA78C;
unicode = 42892;
},
{
glyphname = fi;
layers = (
{
anchors = (
{
name = caret_1;
pos = (280,0);
}
);
layerId = m01;
shapes = (
{
closed = 1;
nodes = (
(147,0,l),
(219,407,l),
(324,407,l),
(340,496,l),
(234,496,l),
(243,547,ls),
(250,581,o),
(285,610,o),
(320,610,qs),
(349,610,l),
(366,700,l),
(320,700,ls),
(244,700,o),
(152,627,o),
(137,548,qs),
(128,496,l),
(62,496,l),
(47,407,l),
(113,407,l),
(41,0,l)
);
},
{
closed = 1;
nodes = (
(452,0,l),
(539,496,l),
(433,496,l),
(346,0,l)
);
},
{
closed = 1;
nodes = (
(543,586,o),
(583,626,o),
(583,655,qs),
(583,684,o),
(543,723,o),
(514,723,qs),
(485,723,o),
(445,684,o),
(445,655,qs),
(445,626,o),
(485,586,o),
(514,586,qs)
);
}
);
userData = {
assembly = "MPPEM[ ]	/* MeasurePixelPerEm */
PUSHB[ ]	/* 1 value pushed */
33
LT[ ]	/* LessThan */
IF[ ]	/* If */
NPUSHB[ ]	/* 41 values pushed */
0 3 3 2 97 0 2 2 33 77 11 1 10 10 9 97 0 9 9 41 77 5 1 0 0 1 95 7 4 2 1 1 36 77 8 1 6 6 34 6 78
ELSE[ ]	/* Else */
MPPEM[ ]	/* MeasurePixelPerEm */
PUSHB[ ]	/* 1 value pushed */
45
LT[ ]	/* LessThan */
IF[ ]	/* If */
NPUSHB[ ]	/* 41 values pushed */
0 3 3 2 97 0 2 2 33 77 11 1 10 10 9 97 0 9 9 39 77 5 1 0 0 1 95 7 4 2 1 1 36 77 8 1 6 6 34 6 78
ELSE[ ]	/* Else */
NPUSHB[ ]	/* 39 values pushed */
0 9 11 1 10 1 9 10 105 0 3 3 2 97 0 2 2 33 77 5 1 0 0 1 95 7 4 2 1 1 36 77 8 1 6 6 34 6 78
EIF[ ]	/* EndIf */
EIF[ ]	/* EndIf */
NPUSHB[ ]	/* 20 values pushed */
24 24 24 35 24 34 30 28 17 17 17 17 19 33 35 17 16 12 8 31
CALL[ ]	/* CallFunction */";
};
width = 560;
}
);
note = fi;
unicode = 64257;
},
{
glyphname = fl;
layers = (
{
anchors = (
{
name = caret_1;
pos = (273,0);
}
);
layerId = m01;
shapes = (
{
closed = 1;
nodes = (
(147,0,l),
(219,407,l),
(324,407,l),
(340,496,l),
(234,496,l),
(243,547,ls),
(250,581,o),
(285,610,o),
(320,610,qs),
(349,610,l),
(366,700,l),
(320,700,ls),
(244,700,o),
(152,627,o),
(137,548,qs),
(128,496,l),
(62,496,l),
(47,407,l),
(113,407,l),
(41,0,l)
);
},
{
closed = 1;
nodes = (
(444,0,l),
(568,700,l),
(462,700,l),
(338,0,l)
);
}
);
userData = {
assembly = "NPUSHB[ ]	/* 42 values pushed */
0 3 3 2 97 7 1 2 2 33 77 5 1 0 0 1 95 4 1 1 1 36 77 8 1 6 6 34 6 78 17 17 17 17 19 33 35 17 16 9 8 31
CALL[ ]	/* CallFunction */";
};
width = 546;
}
);
note = fl;
unicode = 64258;
},
{
glyphname = ordfeminine;
layers = (
{
layerId = m01;
shapes = (
{
closed = 1;
nodes = (
(258,346,o),
(309,414,q),
(314,384,o),
(360,355,o),
(403,355,q),
(414,418,l),
(397,418,o),
(382,430,o),
(382,444,qs),
(384,463,l),
(402,564,ls),
(405,582,o),
(405,598,qs),
(405,652,o),
(339,710,o),
(278,710,qs),
(217,710,o),
(123,648,o),
(104,591,q),
(178,591,l),
(189,618,o),
(237,647,o),
(267,647,qs),
(298,647,o),
(331,616,o),
(331,587,qs),
(331,581,o),
(329,563,q),
(240,563,ls),
(168,563,o),
(71,498,o),
(71,438,qs),
(71,396,o),
(132,346,o),
(178,346,qs)
);
},
{
closed = 1;
nodes = (
(179,407,o),
(148,428,o),
(148,448,qs),
(148,479,o),
(199,511,o),
(236,511,qs),
(318,511,l),
(309,467,o),
(246,407,o),
(204,407,qs)
);
}
);
userData = {
assembly = "MPPEM[ ]	/* MeasurePixelPerEm */
PUSHB[ ]	/* 1 value pushed */
11
LT[ ]	/* LessThan */
IF[ ]	/* If */
NPUSHB[ ]	/* 10 values pushed */
25 1 4 7 32 1 5 4 2 76
ELSE[ ]	/* Else */
MPPEM[ ]	/* MeasurePixelPerEm */
PUSHB[ ]	/* 1 value pushed */
12
LT[ ]	/* LessThan */
IF[ ]	/* If */
NPUSHB[ ]	/* 10 values pushed */
25 1 4 7 32 1 8 4 2 76
ELSE[ ]	/* Else */
MPPEM[ ]	/* MeasurePixelPerEm */
PUSHB[ ]	/* 1 value pushed */
22
LT[ ]	/* LessThan */
IF[ ]	/* If */
NPUSHB[ ]	/* 10 values pushed */
25 1 4 7 32 1 5 4 2 76
ELSE[ ]	/* Else */
NPUSHB[ ]	/* 10 values pushed */
25 1 4 7 32 1 8 4 2 76
EIF[ ]	/* EndIf */
EIF[ ]	/* EndIf */
EIF[ ]	/* EndIf */
MPPEM[ ]	/* MeasurePixelPerEm */
PUSHB[ ]	/* 1 value pushed */
11
LT[ ]	/* LessThan */
IF[ ]	/* If */
NPUSHB[ ]	/* 41 values pushed */
0 2 1 0 1 2 0 128 0 0 0 7 4 0 7 103 0 1 1 3 97 0 3 3 59 77 10 8 2 4 4 5 97 9 6 2 5 5 58 5 78
ELSE[ ]	/* Else */
MPPEM[ ]	/* MeasurePixelPerEm */
PUSHB[ ]	/* 1 value pushed */
12
LT[ ]	/* LessThan */
IF[ ]	/* If */
NPUSHB[ ]	/* 52 values pushed */
0 2 1 0 1 2 0 128 0 0 0 7 4 0 7 103 0 1 1 3 97 0 3 3 59 77 0 4 4 5 97 9 6 2 5 5 58 77 10 1 8 8 5 97 9 6 2 5 5 58 5 78
ELSE[ ]	/* Else */
MPPEM[ ]	/* MeasurePixelPerEm */
PUSHB[ ]	/* 1 value pushed */
22
LT[ ]	/* LessThan */
IF[ ]	/* If */
NPUSHB[ ]	/* 41 values pushed */
0 2 1 0 1 2 0 128 0 0 0 7 4 0 7 103 0 1 1 3 97 0 3 3 59 77 10 8 2 4 4 5 97 9 6 2 5 5 58 5 78
ELSE[ ]	/* Else */
MPPEM[ ]	/* MeasurePixelPerEm */
PUSHB[ ]	/* 1 value pushed */
27
LT[ ]	/* LessThan */
IF[ ]	/* If */
NPUSHB[ ]	/* 52 values pushed */
0 2 1 0 1 2 0 128 0 0 0 7 4 0 7 103 0 1 1 3 97 0 3 3 59 77 0 4 4 5 97 9 6 2 5 5 58 77 10 1 8 8 5 97 9 6 2 5 5 58 5 78
ELSE[ ]	/* Else */
NPUSHB[ ]	/* 49 values pushed */
0 2 1 0 1 2 0 128 0 0 0 7 4 0 7 103 0 1 1 3 97 0 3 3 59 77 0 4 4 5 97 0 5 5 58 77 10 1 8 8 6 97 9 1 6 6 58 6 78
EIF[ ]	/* EndIf */
EIF[ ]	/* EndIf */
EIF[ ]	/* EndIf */
EIF[ ]	/* EndIf */
NPUSHB[ ]	/* 23 values pushed */
35 35 0 0 35 44 35 43 39 37 0 34 0 33 17 24 34 18 36 36 11 10 28
CALL[ ]	/* CallFunction */";
};
width = 414;
}
);
note = ordfeminine;
unicode = 170;
},
{
glyphname = ordmasculine;
layers = (
{
layerId = m01;
shapes = (
{
closed = 1;
nodes = (
(280,348,o),
(376,404,o),
(431,502,o),
(431,561,qs),
(431,625,o),
(349,712,o),
(278,712,qs),
(220,712,o),
(125,657,o),
(70,560,o),
(70,501,qs),
(70,435,o),
(154,348,o),
(221,348,qs)
);
},
{
closed = 1;
nodes = (
(194,412,o),
(145,464,o),
(145,506,qs),
(145,566,o),
(215,648,o),
(268,648,qs),
(307,648,o),
(356,596,o),
(356,553,qs),
(356,493,o),
(286,412,o),
(233,412,qs)
);
}
);
userData = {
assembly = "NPUSHB[ ]	/* 41 values pushed */
0 2 2 0 97 0 0 0 59 77 5 1 3 3 1 97 4 1 1 1 58 1 78 14 14 0 0 14 25 14 24 20 18 0 13 0 12 37 6 10 23
CALL[ ]	/* CallFunction */";
};
width = 401;
}
);
note = ordmasculine;
unicode = 186;
},
{
glyphname = uni042F;
layers = (
{
layerId = m01;
shapes = (
{
closed = 1;
nodes = (
(-33,0,l),
(95,0,l),
(324,303,l),
(421,303,l),
(368,0,l),
(474,0,l),
(598,700,l),
(373,700,ls),
(248,700,o),
(96,581,o),
(96,473,qs),
(96,414,o),
(163,334,o),
(222,321,q)
);
},
{
closed = 1;
nodes = (
(261,393,o),
(206,443,o),
(206,485,qs),
(206,550,o),
(280,611,o),
(359,611,qs),
(475,611,l),
(437,393,l),
(321,393,ls)
);
}
);
userData = {
assembly = "NPUSHB[ ]	/* 52 values pushed */
13 1 2 5 1 76 3 1 1 2 1 134 0 0 0 4 5 0 4 103 6 1 5 2 2 5 87 6 1 5 5 2 95 0 2 5 2 79 14 14 14 22 14 21 35 17 17 17 36 7 6 27
CALL[ ]	/* CallFunction */";
};
width = 584;
}
);
note = uni042F;
unicode = (1071,1103);
},
{
glyphname = uni0394;
layers = (
{
layerId = m01;
shapes = (
{
closed = 1;
nodes = (
(-31,0,l),
(619,0,l),
(634,82,l),
(461,700,l),
(374,700,l),
(-17,82,l)
);
},
{
closed = 1;
nodes = (
(92,82,l),
(396,580,l),
(526,82,l)
);
}
);
userData = {
assembly = "MPPEM[ ]	/* MeasurePixelPerEm */
PUSHB[ ]	/* 1 value pushed */
42
LT[ ]	/* LessThan */
IF[ ]	/* If */
NPUSHB[ ]	/* 16 values pushed */
0 0 0 23 77 0 2 2 1 95 0 1 1 24 1 78
ELSE[ ]	/* Else */
NPUSHB[ ]	/* 16 values pushed */
0 0 2 0 133 0 2 2 1 95 0 1 1 24 1 78
EIF[ ]	/* EndIf */
PUSHB[ ]	/* 6 values pushed */
19 18 16 3 7 25
CALL[ ]	/* CallFunction */";
};
width = 694;
}
);
note = uni0394;
unicode = 916;
},
{
glyphname = Pi;
layers = (
{
layerId = m01;
shapes = (
{
closed = 1;
nodes = (
(173,0,l),
(247,414,l),
(449,414,l),
(375,0,l),
(481,0,l),
(555,414,l),
(631,414,l),
(646,496,l),
(79,496,l),
(64,414,l),
(141,414,l),
(67,0,l)
);
}
);
userData = {
assembly = "NPUSHB[ ]	/* 26 values pushed */
0 1 4 2 2 0 3 1 0 103 5 1 3 3 24 3 78 17 17 17 17 17 16 6 7 28
CALL[ ]	/* CallFunction */";
};
width = 637;
}
);
note = Pi;
unicode = 928;
},
{
glyphname = uni03A9;
layers = (
{
layerId = m01;
shapes = (
{
closed = 1;
nodes = (
(288,0,l),
(303,86,l),
(241,108,o),
(166,226,o),
(166,306,qs),
(166,386,o),
(238,529,o),
(374,616,o),
(464,616,qs),
(521,616,o),
(615,570,o),
(670,477,o),
(670,410,qs),
(670,348,o),
(620,217,o),
(517,110,o),
(440,86,q),
(424,0,l),
(698,0,l),
(714,82,l),
(583,82,l),
(672,131,o),
(780,316,o),
(780,427,qs),
(780,502,o),
(713,632,o),
(578,712,o),
(481,712,qs),
(368,712,o),
(174,607,o),
(59,423,o),
(59,309,qs),
(59,248,o),
(111,120,o),
(161,82,q),
(28,82,l),
(13,0,l)
);
}
);
userData = {
assembly = "NPUSHB[ ]	/* 38 values pushed */
34 1 0 4 1 76 0 4 4 1 97 0 1 1 23 77 2 1 0 0 3 95 5 1 3 3 24 3 78 23 40 17 22 38 16 6 7 28
CALL[ ]	/* CallFunction */";
};
width = 796;
}
);
note = uni03A9;
unicode = 937;
},
{
glyphname = uni03BC;
layers = (
{
layerId = m01;
shapes = (
{
closed = 1;
nodes = (
(95,-220,l),
(136,13,l),
(169,-12,o),
(221,-12,qs),
(277,-12,o),
(375,40,o),
(406,85,q),
(400,0,l),
(495,0,l),
(582,496,l),
(476,496,l),
(430,237,ls),
(417,163,o),
(325,78,o),
(266,78,qs),
(169,78,o),
(169,174,qs),
(169,194,o),
(174,222,qs),
(222,496,l),
(116,496,l),
(-11,-220,l)
);
}
);
userData = {
assembly = "NPUSHB[ ]	/* 10 values pushed */
14 1 1 0 19 1 3 1 2 76
MPPEM[ ]	/* MeasurePixelPerEm */
PUSHB[ ]	/* 1 value pushed */
42
LT[ ]	/* LessThan */
IF[ ]	/* If */
NPUSHB[ ]	/* 27 values pushed */
2 1 0 1 0 133 0 3 3 24 77 0 1 1 4 97 0 4 4 24 77 0 5 5 25 5 78
ELSE[ ]	/* Else */
NPUSHB[ ]	/* 25 values pushed */
2 1 0 1 0 133 0 1 0 4 5 1 4 105 0 3 3 24 77 0 5 5 25 5 78
EIF[ ]	/* EndIf */
NPUSHB[ ]	/* 9 values pushed */
18 35 17 19 36 16 6 7 28
CALL[ ]	/* CallFunction */";
};
width = 591;
}
);
note = uni03BC;
unicode = 956;
},
{
glyphname = zero;
layers = (
{
layerId = m01;
shapes = (
{
closed = 1;
nodes = (
(373,-12,o),
(524,144,o),
(588,364,o),
(588,468,qs),
(588,583,o),
(487,712,o),
(378,712,qs),
(259,712,o),
(107,559,o),
(40,340,o),
(40,236,qs),
(40,121,o),
(142,-12,o),
(250,-12,qs)
);
},
{
closed = 1;
nodes = (
(148,83,o),
(148,244,qs),
(148,322,o),
(190,495,o),
(287,618,o),
(362,618,qs),
(421,618,o),
(479,535,o),
(479,458,qs),
(479,387,o),
(435,211,o),
(340,83,o),
(267,83,qs)
);
}
);
userData = {
assembly = "NPUSHB[ ]	/* 41 values pushed */
0 2 2 0 97 0 0 0 39 77 5 1 3 3 1 97 4 1 1 1 40 1 78 14 14 0 0 14 26 14 25 21 19 0 13 0 12 37 6 8 23
CALL[ ]	/* CallFunction */";
};
width = 590;
}
);
note = zero;
unicode = 48;
},
{
glyphname = one;
layers = (
{
layerId = m01;
shapes = (
{
closed = 1;
nodes = (
(514,0,l),
(530,89,l),
(358,89,l),
(467,700,l),
(411,700,l),
(153,610,l),
(136,517,l),
(345,582,l),
(257,89,l),
(56,89,l),
(40,0,l)
);
}
);
userData = {
assembly = "NPUSHB[ ]	/* 31 values pushed */
3 2 2 0 1 1 76 0 1 1 33 77 2 1 0 0 3 96 0 3 3 34 3 78 17 17 20 16 4 8 26
CALL[ ]	/* CallFunction */";
};
width = 590;
}
);
note = one;
unicode = 49;
},
{
glyphname = two;
layers = (
{
layerId = m01;
shapes = (
{
closed = 1;
nodes = (
(491,0,l),
(507,90,l),
(170,90,l),
(370,262,ls),
(439,320,o),
(512,391,o),
(565,485,o),
(565,539,qs),
(565,616,o),
(467,712,o),
(378,712,qs),
(274,712,o),
(128,592,o),
(108,487,q),
(211,487,l),
(221,545,o),
(301,622,o),
(360,622,qs),
(408,622,o),
(459,568,o),
(459,526,qs),
(459,478,o),
(375,379,o),
(300,315,qs),
(278,296,l),
(34,83,l),
(19,0,l)
);
}
);
userData = {
assembly = "NPUSHB[ ]	/* 37 values pushed */
0 1 0 3 0 1 3 128 0 0 0 2 97 0 2 2 39 77 0 3 3 4 95 0 4 4 34 4 78 17 23 34 18 39 5 8 27
CALL[ ]	/* CallFunction */";
};
width = 590;
}
);
note = two;
unicode = 50;
},
{
glyphname = three;
layers = (
{
layerId = m01;
shapes = (
{
closed = 1;
nodes = (
(341,-12,o),
(472,62,o),
(541,183,o),
(541,252,qs),
(541,304,o),
(493,383,o),
(408,426,o),
(354,426,q),
(585,614,l),
(600,700,l),
(153,700,l),
(137,611,l),
(452,611,l),
(188,399,l),
(238,327,l),
(276,347,o),
(316,347,qs),
(373,347,o),
(438,294,o),
(438,244,qs),
(438,203,o),
(399,127,o),
(322,79,o),
(268,79,qs),
(209,79,o),
(142,140,o),
(142,189,qs),
(142,198,o),
(143,203,q),
(39,203,l),
(37,181,o),
(37,174,qs),
(37,86,o),
(152,-12,o),
(252,-12,qs)
);
}
);
userData = {
assembly = "NPUSHB[ ]	/* 67 values pushed */
20 1 2 5 19 1 0 2 7 1 1 0 3 76 0 0 2 1 2 0 1 128 0 5 0 2 0 5 2 105 0 3 3 4 95 0 4 4 33 77 0 1 1 6 97 7 1 6 6 40 6 78 0 0 0 34 0 33 18 17 19 37 36 20 8 8 28
CALL[ ]	/* CallFunction */";
};
width = 590;
}
);
note = three;
unicode = 51;
},
{
glyphname = four;
layers = (
{
layerId = m01;
shapes = (
{
closed = 1;
nodes = (
(431,0,l),
(456,140,l),
(547,140,l),
(564,233,l),
(472,233,l),
(506,423,l),
(406,423,l),
(373,233,l),
(149,233,l),
(463,700,l),
(356,700,l),
(33,224,l),
(18,140,l),
(350,140,l),
(325,0,l)
);
}
);
userData = {
assembly = "NPUSHB[ ]	/* 39 values pushed */
0 3 1 2 1 3 2 128 4 1 2 5 1 0 6 2 0 104 0 1 1 33 77 0 6 6 34 6 78 17 17 17 17 17 18 16 7 8 29
CALL[ ]	/* CallFunction */";
};
width = 590;
}
);
note = four;
unicode = 52;
},
{
glyphname = five;
layers = (
{
layerId = m01;
shapes = (
{
closed = 1;
nodes = (
(339,-12,o),
(474,64,o),
(552,199,o),
(552,282,qs),
(552,338,o),
(505,428,o),
(416,481,o),
(356,481,qs),
(262,481,o),
(195,420,q),
(264,608,l),
(562,608,l),
(578,700,l),
(201,700,l),
(72,308,l),
(173,308,l),
(194,343,o),
(274,394,o),
(329,394,qs),
(383,394,o),
(448,322,o),
(448,265,qs),
(448,220,o),
(408,134,o),
(328,79,o),
(272,79,qs),
(217,79,o),
(145,140,o),
(144,193,q),
(40,193,l),
(39,191,o),
(39,182,qs),
(39,127,o),
(90,39,o),
(190,-12,o),
(258,-12,qs)
);
}
);
userData = {
assembly = "PUSHB[ ]	/* 6 values pushed */
25 1 2 6 1 76
MPPEM[ ]	/* MeasurePixelPerEm */
PUSHB[ ]	/* 1 value pushed */
33
LT[ ]	/* LessThan */
IF[ ]	/* If */
NPUSHB[ ]	/* 47 values pushed */
0 3 2 0 2 3 0 128 0 0 1 2 0 1 126 0 5 5 4 95 0 4 4 33 77 0 2 2 6 97 0 6 6 36 77 0 1 1 7 97 8 1 7 7 40 7 78
ELSE[ ]	/* Else */
NPUSHB[ ]	/* 45 values pushed */
0 3 2 0 2 3 0 128 0 0 1 2 0 1 126 0 6 0 2 3 6 2 105 0 5 5 4 95 0 4 4 33 77 0 1 1 7 97 8 1 7 7 40 7 78
EIF[ ]	/* EndIf */
NPUSHB[ ]	/* 16 values pushed */
0 0 0 35 0 34 34 17 17 18 37 34 36 9 8 29
CALL[ ]	/* CallFunction */";
};
width = 590;
}
);
note = five;
unicode = 53;
},
{
glyphname = six;
layers = (
{
layerId = m01;
shapes = (
{
closed = 1;
nodes = (
(349,-12,o),
(469,58,o),
(541,180,o),
(541,255,qs),
(541,312,o),
(494,400,o),
(409,450,o),
(356,450,qs),
(243,450,o),
(169,351,q),
(194,477,o),
(300,623,o),
(377,623,qs),
(426,623,o),
(475,565,o),
(475,515,q),
(569,515,l),
(572,564,o),
(538,654,o),
(456,712,o),
(390,712,qs),
(309,712,o),
(159,601,o),
(63,383,o),
(63,233,qs),
(63,133,o),
(161,-12,o),
(278,-12,qs)
);
},
{
closed = 1;
nodes = (
(232,80,o),
(168,146,o),
(168,201,qs),
(168,245,o),
(209,318,o),
(281,360,o),
(325,360,qs),
(378,360,o),
(441,292,o),
(441,239,qs),
(441,197,o),
(403,124,o),
(333,80,o),
(287,80,qs)
);
}
);
userData = {
assembly = "NPUSHB[ ]	/* 66 values pushed */
17 1 6 5 1 76 0 1 2 3 2 1 3 128 0 3 0 5 6 3 5 105 0 2 2 0 97 0 0 0 39 77 8 1 6 6 4 97 7 1 4 4 40 4 78 28 28 0 0 28 41 28 40 35 33 0 27 0 26 35 34 19 37 9 8 26
CALL[ ]	/* CallFunction */";
};
width = 590;
}
);
note = six;
unicode = 54;
},
{
glyphname = seven;
layers = (
{
layerId = m01;
shapes = (
{
closed = 1;
nodes = (
(211,0,l),
(609,623,l),
(622,700,l),
(120,700,l),
(104,610,l),
(493,610,l),
(98,0,l)
);
}
);
userData = {
assembly = "NPUSHB[ ]	/* 22 values pushed */
0 0 0 1 95 0 1 1 33 77 0 2 2 34 2 78 18 17 16 3 8 25
CALL[ ]	/* CallFunction */";
};
width = 590;
}
);
note = seven;
unicode = 55;
},
{
glyphname = eight;
layers = (
{
layerId = m01;
shapes = (
{
closed = 1;
nodes = (
(338,-12,o),
(463,52,o),
(531,161,o),
(531,225,qs),
(531,278,o),
(481,357,o),
(429,375,q),
(482,395,o),
(569,480,o),
(569,550,qs),
(569,624,o),
(466,712,o),
(375,712,qs),
(299,712,o),
(181,656,o),
(117,561,o),
(117,503,qs),
(117,460,o),
(165,392,o),
(207,375,q),
(136,353,o),
(41,244,o),
(41,169,qs),
(41,82,o),
(164,-12,o),
(256,-12,qs)
);
},
{
closed = 1;
nodes = (
(213,79,o),
(146,134,o),
(146,183,qs),
(146,232,o),
(196,296,o),
(271,326,o),
(308,326,qs),
(362,326,o),
(428,273,o),
(428,222,qs),
(428,177,o),
(382,112,o),
(309,79,o),
(269,79,qs)
);
},
{
closed = 1;
nodes = (
(281,409,o),
(221,456,o),
(221,502,qs),
(221,556,o),
(301,624,o),
(359,624,qs),
(409,624,o),
(463,577,o),
(463,533,qs),
(463,495,o),
(425,438,o),
(362,409,o),
(328,409,qs)
);
}
);
userData = {
assembly = "NPUSHB[ ]	/* 65 values pushed */
18 5 2 2 5 1 76 8 1 5 0 2 3 5 2 105 0 4 4 0 97 0 0 0 39 77 7 1 3 3 1 97 6 1 1 1 40 1 78 40 40 26 26 0 0 40 52 40 51 47 45 26 39 26 38 33 31 0 25 0 24 43 9 8 23
CALL[ ]	/* CallFunction */";
};
width = 590;
}
);
note = eight;
unicode = 56;
},
{
glyphname = nine;
layers = (
{
layerId = m01;
shapes = (
{
closed = 1;
nodes = (
(318,-12,o),
(468,100,o),
(564,318,o),
(564,468,qs),
(564,567,o),
(466,712,o),
(349,712,qs),
(278,712,o),
(158,643,o),
(86,521,o),
(86,445,qs),
(86,389,o),
(133,300,o),
(218,250,o),
(271,250,qs),
(383,250,o),
(458,349,q),
(433,224,o),
(327,78,o),
(250,78,qs),
(201,78,o),
(152,135,o),
(152,185,q),
(58,185,l),
(55,136,o),
(89,46,o),
(171,-12,o),
(237,-12,qs)
);
},
{
closed = 1;
nodes = (
(249,341,o),
(186,408,o),
(186,461,qs),
(186,503,o),
(224,576,o),
(294,620,o),
(340,620,qs),
(395,620,o),
(459,554,o),
(459,499,qs),
(459,455,o),
(418,382,o),
(346,341,o),
(302,341,qs)
);
}
);
userData = {
assembly = "NPUSHB[ ]	/* 66 values pushed */
10 1 6 5 1 76 0 0 2 1 2 0 1 128 8 1 6 0 2 0 6 2 105 0 5 5 3 97 0 3 3 39 77 0 1 1 4 97 7 1 4 4 40 4 78 28 28 0 0 28 41 28 40 35 33 0 27 0 26 38 35 34 19 9 8 26
CALL[ ]	/* CallFunction */";
};
width = 590;
}
);
note = nine;
unicode = 57;
},
{
glyphname = uni24EA;
layers = (
{
layerId = m01;
shapes = (
{
closed = 1;
nodes = (
(511,-12,o),
(678,85,o),
(775,252,o),
(775,350,qs),
(775,448,o),
(678,615,o),
(511,712,o),
(413,712,qs),
(315,712,o),
(148,615,o),
(51,448,o),
(51,350,qs),
(51,252,o),
(148,85,o),
(315,-12,o),
(413,-12,qs)
);
},
{
closed = 1;
nodes = (
(331,51,o),
(194,130,o),
(115,267,o),
(115,350,qs),
(115,433,o),
(194,570,o),
(331,649,o),
(413,649,qs),
(496,649,o),
(633,570,o),
(712,433,o),
(712,350,qs),
(712,267,o),
(633,130,o),
(496,51,o),
(413,51,qs)
);
},
{
closed = 1;
nodes = (
(484,165,o),
(516,215,qs),
(548,265,o),
(548,350,qs),
(548,435,o),
(516,485,qs),
(484,535,o),
(414,535,qs),
(344,535,o),
(312,484,qs),
(279,435,o),
(279,350,qs),
(279,266,o),
(312,216,qs),
(344,165,o),
(414,165,qs)
);
},
{
closed = 1;
nodes = (
(383,230,o),
(368,261,qs),
(353,294,o),
(353,350,qs),
(353,408,o),
(368,439,qs),
(383,470,o),
(414,470,qs),
(445,470,o),
(460,439,qs),
(475,404,o),
(475,350,qs),
(475,298,o),
(460,261,qs),
(445,230,o),
(414,230,qs)
);
}
);
userData = {
assembly = "NPUSHB[ ]	/* 75 values pushed */
0 4 0 6 7 4 6 105 11 1 7 10 1 5 3 7 5 105 0 2 2 0 97 0 0 0 39 77 9 1 3 3 1 97 8 1 1 1 40 1 78 48 48 32 32 16 16 0 0 48 63 48 62 56 54 32 47 32 46 40 38 16 31 16 30 24 22 0 15 0 14 38 12 8 23
CALL[ ]	/* CallFunction */";
};
width = 790;
}
);
note = uni24EA;
unicode = 9450;
},
{
glyphname = uni2780;
layers = (
{
layerId = m01;
shapes = (
{
closed = 1;
nodes = (
(511,-12,o),
(678,85,o),
(775,252,o),
(775,350,qs),
(775,448,o),
(678,615,o),
(511,712,o),
(413,712,qs),
(315,712,o),
(148,615,o),
(51,448,o),
(51,350,qs),
(51,252,o),
(148,85,o),
(315,-12,o),
(413,-12,qs)
);
},
{
closed = 1;
nodes = (
(331,51,o),
(194,130,o),
(115,267,o),
(115,350,qs),
(115,433,o),
(194,570,o),
(331,649,o),
(413,649,qs),
(496,649,o),
(633,570,o),
(712,433,o),
(712,350,qs),
(712,267,o),
(633,130,o),
(496,51,o),
(413,51,qs)
);
},
{
closed = 1;
nodes = (
(541,176,l),
(541,239,l),
(461,239,l),
(461,533,l),
(422,533,l),
(304,491,l),
(304,434,l),
(392,452,l),
(392,239,l),
(301,239,l),
(301,176,l)
);
}
);
userData = {
assembly = "NPUSHB[ ]	/* 74 values pushed */
36 35 34 3 4 5 1 76 0 5 2 4 2 5 4 128 6 1 4 0 7 3 4 7 104 0 2 2 0 97 0 0 0 39 77 9 1 3 3 1 97 8 1 1 1 40 1 78 16 16 0 0 42 41 40 39 38 37 33 32 16 31 16 30 24 22 0 15 0 14 38 10 8 23
CALL[ ]	/* CallFunction */";
};
width = 790;
}
);
note = uni2780;
unicode = 10112;
},
{
glyphname = uni2781;
layers = (
{
layerId = m01;
shapes = (
{
closed = 1;
nodes = (
(511,-12,o),
(678,85,o),
(775,252,o),
(775,350,qs),
(775,448,o),
(678,615,o),
(511,712,o),
(413,712,qs),
(315,712,o),
(148,615,o),
(51,448,o),
(51,350,qs),
(51,252,o),
(148,85,o),
(315,-12,o),
(413,-12,qs)
);
},
{
closed = 1;
nodes = (
(330,51,o),
(194,131,o),
(115,268,o),
(115,350,qs),
(115,432,o),
(194,569,o),
(330,649,o),
(413,649,qs),
(496,649,o),
(633,570,o),
(712,433,o),
(712,350,qs),
(712,267,o),
(633,130,o),
(496,51,o),
(413,51,qs)
);
},
{
closed = 1;
nodes = (
(540,176,l),
(540,239,l),
(390,239,l),
(450,300,ls),
(489,337,o),
(533,397,o),
(533,432,qs),
(533,480,o),
(470,540,o),
(415,540,qs),
(360,540,o),
(291,479,o),
(290,420,q),
(361,420,l),
(361,445,o),
(387,478,o),
(413,478,qs),
(436,478,o),
(462,453,o),
(462,430,qs),
(462,415,o),
(441,382,o),
(409,349,o),
(396,336,qs),
(290,227,l),
(290,176,l)
);
}
);
userData = {
assembly = "NPUSHB[ ]	/* 81 values pushed */
32 1 8 7 1 76 0 5 4 7 4 5 7 128 0 6 0 4 5 6 4 105 0 7 0 8 3 7 8 103 0 2 2 0 97 0 0 0 39 77 10 1 3 3 1 97 9 1 1 1 40 1 78 16 16 0 0 57 56 55 54 48 46 44 43 41 39 16 31 16 30 24 22 0 15 0 14 38 11 8 23
CALL[ ]	/* CallFunction */";
};
width = 790;
}
);
note = uni2781;
unicode = 10113;
},
{
glyphname = uni2782;
layers = (
{
layerId = m01;
shapes = (
{
closed = 1;
nodes = (
(511,-12,o),
(678,85,o),
(775,252,o),
(775,350,qs),
(775,448,o),
(678,615,o),
(511,712,o),
(413,712,qs),
(315,712,o),
(148,615,o),
(51,448,o),
(51,350,qs),
(51,252,o),
(148,85,o),
(315,-12,o),
(413,-12,qs)
);
},
{
closed = 1;
nodes = (
(331,51,o),
(194,130,o),
(115,267,o),
(115,350,qs),
(115,433,o),
(194,570,o),
(331,649,o),
(413,649,qs),
(496,649,o),
(633,570,o),
(712,433,o),
(712,350,qs),
(712,267,o),
(633,130,o),
(496,51,o),
(413,51,qs)
);
},
{
closed = 1;
nodes = (
(472,158,o),
(543,225,o),
(543,279,qs),
(543,321,o),
(496,382,o),
(447,388,q),
(532,461,l),
(532,522,l),
(294,522,l),
(294,460,l),
(441,460,l),
(338,369,l),
(377,323,l),
(396,334,o),
(415,334,qs),
(439,334,o),
(473,305,o),
(473,278,qs),
(473,250,o),
(443,221,o),
(414,221,qs),
(389,221,o),
(355,251,o),
(355,279,q),
(284,279,l),
(285,220,o),
(356,158,o),
(414,158,qs)
);
}
);
userData = {
assembly = "NPUSHB[ ]	/* 15 values pushed */
52 1 7 8 53 47 2 6 7 46 1 4 6 3 76
MPPEM[ ]	/* MeasurePixelPerEm */
PUSHB[ ]	/* 1 value pushed */
10
LT[ ]	/* LessThan */
IF[ ]	/* If */
NPUSHB[ ]	/* 54 values pushed */
0 6 7 4 7 6 114 0 4 5 7 4 5 126 0 8 0 7 6 8 7 103 0 5 12 1 9 3 5 9 105 0 2 2 0 97 0 0 0 39 77 11 1 3 3 1 98 10 1 1 1 40 1 78
ELSE[ ]	/* Else */
NPUSHB[ ]	/* 55 values pushed */
0 6 7 4 7 6 4 128 0 4 5 7 4 5 126 0 8 0 7 6 8 7 103 0 5 12 1 9 3 5 9 105 0 2 2 0 97 0 0 0 39 77 11 1 3 3 1 98 10 1 1 1 40 1 78
EIF[ ]	/* EndIf */
NPUSHB[ ]	/* 34 values pushed */
32 32 16 16 0 0 32 59 32 58 51 50 49 48 45 43 39 37 35 34 16 31 16 30 24 22 0 15 0 14 38 13 8 23
CALL[ ]	/* CallFunction */";
};
width = 790;
}
);
note = uni2782;
unicode = 10114;
},
{
glyphname = uni2783;
layers = (
{
layerId = m01;
shapes = (
{
closed = 1;
nodes = (
(511,-12,o),
(678,85,o),
(775,252,o),
(775,350,qs),
(775,448,o),
(678,615,o),
(511,712,o),
(413,712,qs),
(315,712,o),
(148,615,o),
(51,448,o),
(51,350,qs),
(51,252,o),
(148,85,o),
(315,-12,o),
(413,-12,qs)
);
},
{
closed = 1;
nodes = (
(500,176,l),
(500,239,l),
(538,239,l),
(538,302,l),
(500,302,l),
(500,392,l),
(432,392,l),
(432,302,l),
(340,302,l),
(454,533,l),
(383,533,l),
(263,298,l),
(263,239,l),
(427,239,l),
(427,176,l)
);
},
{
closed = 1;
nodes = (
(331,51,o),
(194,130,o),
(115,267,o),
(115,350,qs),
(115,433,o),
(194,570,o),
(331,649,o),
(413,649,qs),
(496,649,o),
(633,570,o),
(712,433,o),
(712,350,qs),
(712,267,o),
(633,130,o),
(496,51,o),
(413,51,qs)
);
}
);
userData = {
assembly = "PUSHB[ ]	/* 6 values pushed */
18 1 2 4 1 76
MPPEM[ ]	/* MeasurePixelPerEm */
PUSHB[ ]	/* 1 value pushed */
14
LT[ ]	/* LessThan */
IF[ ]	/* If */
NPUSHB[ ]	/* 54 values pushed */
0 3 9 5 9 3 5 128 0 5 4 4 5 112 0 8 2 10 2 8 114 6 1 4 7 1 2 8 4 2 104 0 9 9 0 97 0 0 0 39 77 12 1 10 10 1 97 11 1 1 1 40 1 78
ELSE[ ]	/* Else */
MPPEM[ ]	/* MeasurePixelPerEm */
PUSHB[ ]	/* 1 value pushed */
21
LT[ ]	/* LessThan */
IF[ ]	/* If */
NPUSHB[ ]	/* 55 values pushed */
0 3 9 5 9 3 5 128 0 5 4 9 5 4 126 0 8 2 10 2 8 114 6 1 4 7 1 2 8 4 2 104 0 9 9 0 97 0 0 0 39 77 12 1 10 10 1 97 11 1 1 1 40 1 78
ELSE[ ]	/* Else */
NPUSHB[ ]	/* 56 values pushed */
0 3 9 5 9 3 5 128 0 5 4 9 5 4 126 0 8 2 10 2 8 10 128 6 1 4 7 1 2 8 4 2 104 0 9 9 0 97 0 0 0 39 77 12 1 10 10 1 97 11 1 1 1 40 1 78
EIF[ ]	/* EndIf */
EIF[ ]	/* EndIf */
NPUSHB[ ]	/* 32 values pushed */
31 31 0 0 31 46 31 45 39 37 30 29 28 27 26 25 24 23 22 21 20 19 17 16 0 15 0 14 38 13 8 23
CALL[ ]	/* CallFunction */";
};
width = 790;
}
);
note = uni2783;
unicode = 10115;
},
{
glyphname = uni2784;
layers = (
{
layerId = m01;
shapes = (
{
closed = 1;
nodes = (
(511,-12,o),
(678,85,o),
(775,252,o),
(775,350,qs),
(775,448,o),
(678,615,o),
(511,712,o),
(413,712,qs),
(315,712,o),
(148,615,o),
(51,448,o),
(51,350,qs),
(51,252,o),
(148,85,o),
(315,-12,o),
(413,-12,qs)
);
},
{
closed = 1;
nodes = (
(331,51,o),
(194,130,o),
(115,267,o),
(115,350,qs),
(115,433,o),
(194,570,o),
(331,649,o),
(413,649,qs),
(496,649,o),
(633,570,o),
(712,433,o),
(712,350,qs),
(712,267,o),
(633,130,o),
(496,51,o),
(413,51,qs)
);
},
{
closed = 1;
nodes = (
(473,160,o),
(545,233,o),
(545,291,qs),
(545,343,o),
(486,413,o),
(430,413,qs),
(409,413,o),
(371,400,o),
(359,386,q),
(374,461,l),
(522,461,l),
(522,524,l),
(319,524,l),
(289,317,l),
(359,317,l),
(366,334,o),
(398,354,o),
(418,354,qs),
(444,354,o),
(475,318,o),
(475,290,qs),
(475,262,o),
(443,223,o),
(417,223,qs),
(394,223,o),
(361,247,o),
(356,269,q),
(285,269,l),
(287,220,o),
(361,160,o),
(417,160,qs)
);
}
);
userData = {
assembly = "PUSHB[ ]	/* 6 values pushed */
53 1 6 10 1 76
MPPEM[ ]	/* MeasurePixelPerEm */
PUSHB[ ]	/* 1 value pushed */
9
LT[ ]	/* LessThan */
IF[ ]	/* If */
NPUSHB[ ]	/* 62 values pushed */
0 7 6 4 9 7 114 0 4 5 6 4 5 126 0 8 0 9 10 8 9 103 0 10 0 6 7 10 6 105 0 5 14 1 11 3 5 11 105 0 2 2 0 97 0 0 0 39 77 13 1 3 3 1 98 12 1 1 1 40 1 78
ELSE[ ]	/* Else */
NPUSHB[ ]	/* 63 values pushed */
0 7 6 4 6 7 4 128 0 4 5 6 4 5 126 0 8 0 9 10 8 9 103 0 10 0 6 7 10 6 105 0 5 14 1 11 3 5 11 105 0 2 2 0 97 0 0 0 39 77 13 1 3 3 1 98 12 1 1 1 40 1 78
EIF[ ]	/* EndIf */
NPUSHB[ ]	/* 38 values pushed */
32 32 16 16 0 0 32 62 32 61 57 55 52 51 50 49 48 47 45 43 39 37 35 34 16 31 16 30 24 22 0 15 0 14 38 15 8 23
CALL[ ]	/* CallFunction */";
};
width = 790;
}
);
note = uni2784;
unicode = 10116;
},
{
glyphname = uni2785;
layers = (
{
layerId = m01;
shapes = (
{
closed = 1;
nodes = (
(511,-12,o),
(678,85,o),
(775,252,o),
(775,350,qs),
(775,448,o),
(678,615,o),
(511,712,o),
(413,712,qs),
(315,712,o),
(148,615,o),
(51,448,o),
(51,350,qs),
(51,252,o),
(148,85,o),
(315,-12,o),
(413,-12,qs)
);
},
{
closed = 1;
nodes = (
(331,51,o),
(194,130,o),
(115,267,o),
(115,350,qs),
(115,433,o),
(194,570,o),
(331,649,o),
(413,649,qs),
(496,649,o),
(633,570,o),
(712,433,o),
(712,350,qs),
(712,267,o),
(633,130,o),
(496,51,o),
(413,51,qs)
);
},
{
closed = 1;
nodes = (
(391,227,o),
(360,260,o),
(360,286,qs),
(360,310,o),
(392,342,o),
(415,342,qs),
(439,342,o),
(471,311,o),
(471,284,qs),
(471,257,o),
(438,227,o),
(416,227,qs)
);
},
{
closed = 1;
nodes = (
(474,165,o),
(540,237,o),
(540,287,qs),
(540,334,o),
(481,403,o),
(434,403,qs),
(407,403,o),
(363,377,o),
(352,357,q),
(354,476,o),
(417,476,qs),
(438,476,o),
(463,452,o),
(467,430,q),
(534,430,l),
(532,473,o),
(468,535,o),
(417,535,qs),
(347,535,o),
(280,421,o),
(280,339,qs),
(280,265,o),
(349,165,o),
(420,165,qs)
);
}
);
userData = {
assembly = "NPUSHB[ ]	/* 103 values pushed */
58 1 4 9 1 76 0 7 8 9 8 7 9 128 0 6 0 8 7 6 8 105 0 9 0 4 5 9 4 105 13 1 5 14 1 10 3 5 10 105 0 2 2 0 97 0 0 0 39 77 12 1 3 3 1 97 11 1 1 1 40 1 78 44 44 32 32 16 16 0 0 44 67 44 66 62 60 57 55 53 52 50 48 32 43 32 42 38 36 16 31 16 30 24 22 0 15 0 14 38 15 8 23
CALL[ ]	/* CallFunction */";
};
width = 790;
}
);
note = uni2785;
unicode = 10117;
},
{
glyphname = uni2786;
layers = (
{
layerId = m01;
shapes = (
{
closed = 1;
nodes = (
(511,-12,o),
(678,85,o),
(775,252,o),
(775,350,qs),
(775,448,o),
(678,615,o),
(511,712,o),
(413,712,qs),
(315,712,o),
(148,615,o),
(51,448,o),
(51,350,qs),
(51,252,o),
(148,85,o),
(315,-12,o),
(413,-12,qs)
);
},
{
closed = 1;
nodes = (
(408,167,l),
(549,473,l),
(549,524,l),
(283,524,l),
(283,463,l),
(471,463,l),
(333,167,l)
);
},
{
closed = 1;
nodes = (
(331,51,o),
(194,130,o),
(115,267,o),
(115,350,qs),
(115,433,o),
(194,570,o),
(331,649,o),
(413,649,qs),
(496,649,o),
(633,570,o),
(712,433,o),
(712,350,qs),
(712,267,o),
(633,130,o),
(496,51,o),
(413,51,qs)
);
}
);
userData = {
assembly = "NPUSHB[ ]	/* 69 values pushed */
20 1 2 3 1 76 0 4 2 6 2 4 6 128 0 3 0 2 4 3 2 103 0 5 5 0 97 0 0 0 39 77 8 1 6 6 1 97 7 1 1 1 40 1 78 23 23 0 0 23 38 23 37 31 29 22 21 19 18 17 16 0 15 0 14 38 9 8 23
CALL[ ]	/* CallFunction */";
};
width = 790;
}
);
note = uni2786;
unicode = 10118;
},
{
glyphname = uni2787;
layers = (
{
layerId = m01;
shapes = (
{
closed = 1;
nodes = (
(511,-12,o),
(678,85,o),
(775,252,o),
(775,350,qs),
(775,448,o),
(678,615,o),
(511,712,o),
(413,712,qs),
(315,712,o),
(149,615,o),
(51,448,o),
(51,350,qs),
(51,252,o),
(149,85,o),
(315,-12,o),
(413,-12,qs)
);
},
{
closed = 1;
nodes = (
(359,226,o),
(359,278,qs),
(359,305,o),
(390,332,o),
(415,332,qs),
(440,332,o),
(469,304,o),
(469,278,qs),
(469,253,o),
(440,226,o),
(415,226,qs)
);
},
{
closed = 1;
nodes = (
(331,51,o),
(194,131,o),
(115,268,o),
(115,350,qs),
(115,433,o),
(194,570,o),
(331,649,o),
(413,649,qs),
(496,649,o),
(633,569,o),
(712,432,o),
(712,350,qs),
(712,268,o),
(633,131,o),
(496,51,o),
(413,51,qs)
);
},
{
closed = 1;
nodes = (
(467,165,o),
(540,221,o),
(540,272,qs),
(540,304,o),
(512,352,o),
(484,364,q),
(506,374,o),
(532,415,o),
(532,439,qs),
(532,485,o),
(464,535,o),
(414,535,qs),
(361,535,o),
(295,484,o),
(295,439,qs),
(295,389,o),
(344,364,q),
(316,352,o),
(287,303,o),
(287,272,qs),
(287,223,o),
(362,165,o),
(414,165,qs)
);
},
{
closed = 1;
nodes = (
(393,385,o),
(368,410,o),
(368,430,qs),
(368,477,o),
(414,477,qs),
(436,477,o),
(460,452,o),
(460,430,qs),
(460,409,o),
(436,385,o),
(414,385,qs)
);
}
);
userData = {
assembly = "NPUSHB[ ]	/* 99 values pushed */
59 48 2 2 9 1 76 0 6 0 8 9 6 8 105 14 1 9 0 2 3 9 2 105 11 1 3 13 1 7 5 3 7 105 0 4 4 0 97 0 0 0 39 77 12 1 5 5 1 97 10 1 1 1 40 1 78 66 66 43 43 27 27 16 16 0 0 66 76 66 75 72 70 43 65 43 64 54 52 27 42 27 41 35 33 16 26 16 25 22 20 0 15 0 14 38 15 8 23
CALL[ ]	/* CallFunction */";
};
width = 790;
}
);
note = uni2787;
unicode = 10119;
},
{
glyphname = uni2788;
layers = (
{
layerId = m01;
shapes = (
{
closed = 1;
nodes = (
(511,-12,o),
(678,85,o),
(775,252,o),
(775,350,qs),
(775,448,o),
(678,615,o),
(511,712,o),
(413,712,qs),
(315,712,o),
(148,615,o),
(51,448,o),
(51,350,qs),
(51,252,o),
(148,85,o),
(315,-12,o),
(413,-12,qs)
);
},
{
closed = 1;
nodes = (
(331,51,o),
(194,130,o),
(115,267,o),
(115,350,qs),
(115,433,o),
(194,570,o),
(331,649,o),
(413,649,qs),
(496,649,o),
(633,570,o),
(712,433,o),
(712,350,qs),
(712,267,o),
(633,130,o),
(496,51,o),
(413,51,qs)
);
},
{
closed = 1;
nodes = (
(478,165,o),
(546,277,o),
(546,361,qs),
(546,434,o),
(479,535,o),
(406,535,qs),
(354,535,o),
(287,464,o),
(287,414,qs),
(287,378,o),
(318,325,o),
(367,297,o),
(393,297,qs),
(420,297,o),
(462,324,o),
(475,344,q),
(474,296,o),
(445,225,o),
(410,225,qs),
(370,225,o),
(359,270,q),
(293,270,l),
(295,226,o),
(357,165,o),
(409,165,qs)
);
},
{
closed = 1;
nodes = (
(387,359,o),
(356,391,o),
(356,416,qs),
(356,441,o),
(387,473,o),
(410,473,qs),
(435,473,o),
(467,440,o),
(467,415,qs),
(467,391,o),
(435,359,o),
(412,359,qs)
);
}
);
userData = {
assembly = "NPUSHB[ ]	/* 103 values pushed */
40 1 6 10 1 76 0 4 6 5 6 4 5 128 0 7 0 9 10 7 9 105 14 1 10 0 6 4 10 6 105 0 5 13 1 8 3 5 8 105 0 2 2 0 97 0 0 0 39 77 12 1 3 3 1 98 11 1 1 1 40 1 78 57 57 32 32 16 16 0 0 57 68 57 67 63 61 32 56 32 55 51 49 44 42 38 36 35 34 16 31 16 30 24 22 0 15 0 14 38 15 8 23
CALL[ ]	/* CallFunction */";
};
width = 790;
}
);
note = uni2788;
unicode = 10120;
},
{
glyphname = uni278A;
layers = (
{
layerId = m01;
shapes = (
{
closed = 1;
nodes = (
(511,-12,o),
(678,85,o),
(775,252,o),
(775,350,qs),
(775,448,o),
(678,615,o),
(511,712,o),
(413,712,qs),
(315,712,o),
(148,615,o),
(51,448,o),
(51,350,qs),
(51,252,o),
(148,85,o),
(315,-12,o),
(413,-12,qs)
);
},
{
closed = 1;
nodes = (
(300,239,l),
(392,239,l),
(392,452,l),
(304,434,l),
(304,491,l),
(422,533,l),
(460,533,l),
(460,239,l),
(541,239,l),
(541,176,l),
(300,176,l)
);
}
);
userData = {
assembly = "NPUSHB[ ]	/* 62 values pushed */
23 22 21 3 2 3 1 76 4 1 2 3 5 3 2 5 128 0 3 3 0 97 0 0 0 39 77 7 1 5 5 1 97 6 1 1 1 40 1 78 16 16 0 0 16 26 16 26 25 24 20 19 18 17 0 15 0 14 38 8 8 23
CALL[ ]	/* CallFunction */";
};
width = 790;
}
);
note = uni278A;
unicode = 10122;
},
{
glyphname = uni278B;
layers = (
{
layerId = m01;
shapes = (
{
closed = 1;
nodes = (
(511,-12,o),
(678,85,o),
(775,252,o),
(775,350,qs),
(775,448,o),
(678,615,o),
(511,712,o),
(413,712,qs),
(315,712,o),
(148,615,o),
(51,448,o),
(51,350,qs),
(51,252,o),
(148,85,o),
(315,-12,o),
(413,-12,qs)
);
},
{
closed = 1;
nodes = (
(290,227,l),
(396,336,ls),
(409,349,o),
(441,382,o),
(462,415,o),
(462,430,qs),
(462,453,o),
(436,478,o),
(413,478,qs),
(387,478,o),
(361,445,o),
(361,420,q),
(290,420,l),
(291,479,o),
(360,540,o),
(415,540,qs),
(470,540,o),
(533,480,o),
(533,432,qs),
(533,397,o),
(489,337,o),
(450,300,qs),
(390,239,l),
(540,239,l),
(540,176,l),
(290,176,l)
);
}
);
userData = {
assembly = "PUSHB[ ]	/* 6 values pushed */
40 1 6 2 1 76
MPPEM[ ]	/* MeasurePixelPerEm */
PUSHB[ ]	/* 1 value pushed */
27
LT[ ]	/* LessThan */
IF[ ]	/* If */
NPUSHB[ ]	/* 41 values pushed */
0 4 5 2 5 4 2 128 0 3 3 0 97 0 0 0 39 77 0 2 2 5 97 0 5 5 36 77 8 1 6 6 1 98 7 1 1 1 40 1 78
ELSE[ ]	/* Else */
NPUSHB[ ]	/* 39 values pushed */
0 4 5 2 5 4 2 128 0 5 0 2 6 5 2 103 0 3 3 0 97 0 0 0 39 77 8 1 6 6 1 98 7 1 1 1 40 1 78
EIF[ ]	/* EndIf */
NPUSHB[ ]	/* 24 values pushed */
16 16 0 0 16 41 16 41 33 31 29 28 26 24 18 17 0 15 0 14 38 9 8 23
CALL[ ]	/* CallFunction */";
};
width = 790;
}
);
note = uni278B;
unicode = 10123;
},
{
glyphname = uni278C;
layers = (
{
layerId = m01;
shapes = (
{
closed = 1;
nodes = (
(511,-12,o),
(678,85,o),
(775,252,o),
(775,350,qs),
(775,448,o),
(678,615,o),
(511,712,o),
(413,712,qs),
(315,712,o),
(148,615,o),
(51,448,o),
(51,350,qs),
(51,252,o),
(148,85,o),
(315,-12,o),
(413,-12,qs)
);
},
{
closed = 1;
nodes = (
(356,158,o),
(285,220,o),
(284,279,q),
(355,279,l),
(355,251,o),
(389,221,o),
(414,221,qs),
(443,221,o),
(473,250,o),
(473,278,qs),
(473,305,o),
(439,334,o),
(415,334,qs),
(396,334,o),
(377,323,q),
(338,369,l),
(441,460,l),
(294,460,l),
(294,522,l),
(532,522,l),
(532,461,l),
(447,388,l),
(496,382,o),
(543,321,o),
(543,279,qs),
(543,225,o),
(472,158,o),
(414,158,qs)
);
}
);
userData = {
assembly = "NPUSHB[ ]	/* 80 values pushed */
22 1 3 2 27 21 2 4 3 28 1 6 4 3 76 0 3 0 6 5 3 6 103 0 4 0 5 7 4 5 105 0 2 2 0 97 0 0 0 39 77 9 1 7 7 1 97 8 1 1 1 40 1 78 16 16 0 0 16 43 16 42 40 39 37 35 31 29 26 25 24 23 0 15 0 14 38 10 8 23
CALL[ ]	/* CallFunction */";
};
width = 790;
}
);
note = uni278C;
unicode = 10124;
},
{
glyphname = uni278D;
layers = (
{
layerId = m01;
shapes = (
{
closed = 1;
nodes = (
(511,-12,o),
(678,85,o),
(775,252,o),
(775,350,qs),
(775,448,o),
(678,615,o),
(511,712,o),
(413,712,qs),
(315,712,o),
(148,615,o),
(51,448,o),
(51,350,qs),
(51,252,o),
(148,85,o),
(315,-12,o),
(413,-12,qs)
);
},
{
closed = 1;
nodes = (
(427,239,l),
(264,239,l),
(264,298,l),
(383,533,l),
(454,533,l),
(341,302,l),
(433,302,l),
(433,392,l),
(501,392,l),
(501,302,l),
(538,302,l),
(538,239,l),
(501,239,l),
(501,176,l),
(427,176,l)
);
}
);
userData = {
assembly = "PUSHB[ ]	/* 6 values pushed */
27 1 2 3 1 76
MPPEM[ ]	/* MeasurePixelPerEm */
PUSHB[ ]	/* 1 value pushed */
9
LT[ ]	/* LessThan */
IF[ ]	/* If */
NPUSHB[ ]	/* 45 values pushed */
0 4 6 3 6 4 114 5 1 3 2 6 3 2 126 7 1 2 8 8 2 112 0 6 6 0 97 0 0 0 39 77 10 1 8 8 1 98 9 1 1 1 40 1 78
ELSE[ ]	/* Else */
MPPEM[ ]	/* MeasurePixelPerEm */
PUSHB[ ]	/* 1 value pushed */
21
LT[ ]	/* LessThan */
IF[ ]	/* If */
NPUSHB[ ]	/* 46 values pushed */
0 4 6 3 6 4 3 128 5 1 3 2 6 3 2 126 7 1 2 8 8 2 112 0 6 6 0 97 0 0 0 39 77 10 1 8 8 1 98 9 1 1 1 40 1 78
ELSE[ ]	/* Else */
NPUSHB[ ]	/* 47 values pushed */
0 4 6 3 6 4 3 128 5 1 3 2 6 3 2 126 7 1 2 8 6 2 8 126 0 6 6 0 97 0 0 0 39 77 10 1 8 8 1 98 9 1 1 1 40 1 78
EIF[ ]	/* EndIf */
EIF[ ]	/* EndIf */
NPUSHB[ ]	/* 28 values pushed */
16 16 0 0 16 30 16 30 29 28 26 25 24 23 22 21 20 19 18 17 0 15 0 14 38 11 8 23
CALL[ ]	/* CallFunction */";
};
width = 790;
}
);
note = uni278D;
unicode = 10125;
},
{
glyphname = uni278E;
layers = (
{
layerId = m01;
shapes = (
{
closed = 1;
nodes = (
(511,-12,o),
(678,85,o),
(775,252,o),
(775,350,qs),
(775,448,o),
(678,615,o),
(511,712,o),
(413,712,qs),
(315,712,o),
(149,615,o),
(51,448,o),
(51,350,qs),
(51,252,o),
(149,85,o),
(315,-12,o),
(413,-12,qs)
);
},
{
closed = 1;
nodes = (
(361,160,o),
(287,220,o),
(285,269,q),
(356,269,l),
(361,247,o),
(394,223,o),
(417,223,qs),
(443,223,o),
(475,262,o),
(475,290,qs),
(475,318,o),
(444,354,o),
(418,354,qs),
(398,354,o),
(366,334,o),
(359,317,q),
(289,317,l),
(319,524,l),
(522,524,l),
(522,461,l),
(374,461,l),
(359,386,l),
(371,400,o),
(409,413,o),
(430,413,qs),
(486,413,o),
(545,343,o),
(545,291,qs),
(545,233,o),
(473,160,o),
(417,160,qs)
);
}
);
userData = {
assembly = "NPUSHB[ ]	/* 83 values pushed */
24 1 6 2 1 76 0 3 0 2 6 3 2 105 0 5 0 8 7 5 8 103 0 6 0 7 9 6 7 105 0 4 4 0 97 0 0 0 39 77 11 1 9 9 1 97 10 1 1 1 40 1 78 16 16 0 0 16 46 16 45 43 42 40 38 34 32 30 29 28 27 26 25 22 20 0 15 0 14 38 12 8 23
CALL[ ]	/* CallFunction */";
};
width = 790;
}
);
note = uni278E;
unicode = 10126;
},
{
glyphname = uni278F;
layers = (
{
layerId = m01;
shapes = (
{
closed = 1;
nodes = (
(511,-12,o),
(678,85,o),
(775,252,o),
(775,350,qs),
(775,448,o),
(678,615,o),
(511,712,o),
(413,712,qs),
(315,712,o),
(148,615,o),
(51,448,o),
(51,350,qs),
(51,252,o),
(148,85,o),
(315,-12,o),
(413,-12,qs)
);
},
{
closed = 1;
nodes = (
(438,227,o),
(471,257,o),
(471,284,qs),
(471,311,o),
(439,342,o),
(415,342,qs),
(392,342,o),
(360,310,o),
(360,286,qs),
(360,260,o),
(391,227,o),
(416,227,qs)
);
},
{
closed = 1;
nodes = (
(349,165,o),
(280,265,o),
(280,339,qs),
(280,421,o),
(347,535,o),
(417,535,qs),
(468,535,o),
(532,473,o),
(534,430,q),
(467,430,l),
(463,452,o),
(438,476,o),
(417,476,qs),
(354,476,o),
(352,357,q),
(363,377,o),
(407,403,o),
(434,403,qs),
(481,403,o),
(540,334,o),
(540,287,qs),
(540,237,o),
(474,165,o),
(420,165,qs)
);
}
);
userData = {
assembly = "PUSHB[ ]	/* 6 values pushed */
36 1 2 4 1 76
MPPEM[ ]	/* MeasurePixelPerEm */
PUSHB[ ]	/* 1 value pushed */
25
LT[ ]	/* LessThan */
IF[ ]	/* If */
NPUSHB[ ]	/* 49 values pushed */
0 6 5 4 5 6 114 0 2 10 1 3 8 2 3 105 0 7 7 0 97 0 0 0 39 77 0 4 4 5 97 0 5 5 36 77 11 1 8 8 1 97 9 1 1 1 40 1 78
ELSE[ ]	/* Else */
MPPEM[ ]	/* MeasurePixelPerEm */
PUSHB[ ]	/* 1 value pushed */
27
LT[ ]	/* LessThan */
IF[ ]	/* If */
NPUSHB[ ]	/* 47 values pushed */
0 6 5 4 5 6 114 0 5 0 4 2 5 4 105 0 2 10 1 3 8 2 3 105 0 7 7 0 97 0 0 0 39 77 11 1 8 8 1 97 9 1 1 1 40 1 78
ELSE[ ]	/* Else */
NPUSHB[ ]	/* 48 values pushed */
0 6 5 4 5 6 4 128 0 5 0 4 2 5 4 105 0 2 10 1 3 8 2 3 105 0 7 7 0 97 0 0 0 39 77 11 1 8 8 1 97 9 1 1 1 40 1 78
EIF[ ]	/* EndIf */
EIF[ ]	/* EndIf */
NPUSHB[ ]	/* 32 values pushed */
28 28 16 16 0 0 28 51 28 50 46 44 42 41 39 37 34 32 16 27 16 26 22 20 0 15 0 14 38 12 8 23
CALL[ ]	/* CallFunction */";
};
width = 790;
}
);
note = uni278F;
unicode = 10127;
},
{
glyphname = uni2790;
layers = (
{
layerId = m01;
shapes = (
{
closed = 1;
nodes = (
(511,-12,o),
(678,85,o),
(775,252,o),
(775,350,qs),
(775,448,o),
(678,615,o),
(511,712,o),
(413,712,qs),
(315,712,o),
(148,615,o),
(51,448,o),
(51,350,qs),
(51,252,o),
(148,85,o),
(315,-12,o),
(413,-12,qs)
);
},
{
closed = 1;
nodes = (
(471,463,l),
(283,463,l),
(283,524,l),
(548,524,l),
(548,473,l),
(408,167,l),
(332,167,l)
);
}
);
userData = {
assembly = "NPUSHB[ ]	/* 57 values pushed */
17 1 3 2 1 76 0 3 2 4 2 3 4 128 0 2 2 0 97 0 0 0 39 77 6 1 4 4 1 98 5 1 1 1 40 1 78 16 16 0 0 16 22 16 22 21 20 19 18 0 15 0 14 38 7 8 23
CALL[ ]	/* CallFunction */";
};
width = 790;
}
);
note = uni2790;
unicode = 10128;
},
{
glyphname = uni2791;
layers = (
{
layerId = m01;
shapes = (
{
closed = 1;
nodes = (
(511,-12,o),
(678,85,o),
(775,252,o),
(775,350,qs),
(775,448,o),
(678,615,o),
(511,712,o),
(413,712,qs),
(315,712,o),
(148,615,o),
(51,448,o),
(51,350,qs),
(51,252,o),
(148,85,o),
(315,-12,o),
(413,-12,qs)
);
},
{
closed = 1;
nodes = (
(362,165,o),
(287,223,o),
(287,272,qs),
(287,303,o),
(316,352,o),
(344,364,q),
(295,389,o),
(295,439,qs),
(295,484,o),
(361,535,o),
(414,535,qs),
(464,535,o),
(532,485,o),
(532,439,qs),
(532,415,o),
(506,374,o),
(484,364,q),
(512,352,o),
(540,304,o),
(540,272,qs),
(540,221,o),
(467,165,o),
(414,165,qs)
);
},
{
closed = 1;
nodes = (
(440,226,o),
(469,253,o),
(469,278,qs),
(469,304,o),
(440,332,o),
(415,332,qs),
(390,332,o),
(359,305,o),
(359,278,qs),
(359,226,o),
(415,226,qs)
);
},
{
closed = 1;
nodes = (
(436,385,o),
(460,409,o),
(460,430,qs),
(460,452,o),
(436,477,o),
(414,477,qs),
(368,477,o),
(368,430,qs),
(368,410,o),
(393,385,o),
(414,385,qs)
);
}
);
userData = {
assembly = "PUSHB[ ]	/* 7 values pushed */
32 21 2 4 7 1 76
MPPEM[ ]	/* MeasurePixelPerEm */
PUSHB[ ]	/* 1 value pushed */
27
LT[ ]	/* LessThan */
IF[ ]	/* If */
NPUSHB[ ]	/* 43 values pushed */
0 4 10 1 5 3 4 5 105 0 2 2 0 97 0 0 0 39 77 11 1 7 7 6 97 0 6 6 36 77 9 1 3 3 1 97 8 1 1 1 40 1 78
ELSE[ ]	/* Else */
NPUSHB[ ]	/* 41 values pushed */
0 6 11 1 7 4 6 7 105 0 4 10 1 5 3 4 5 105 0 2 2 0 97 0 0 0 39 77 9 1 3 3 1 97 8 1 1 1 40 1 78
EIF[ ]	/* EndIf */
NPUSHB[ ]	/* 34 values pushed */
50 50 39 39 16 16 0 0 50 60 50 59 55 53 39 49 39 48 44 42 16 38 16 37 28 26 0 15 0 14 38 12 8 23
CALL[ ]	/* CallFunction */";
};
width = 790;
}
);
note = uni2791;
unicode = 10129;
},
{
glyphname = uni2792;
layers = (
{
layerId = m01;
shapes = (
{
closed = 1;
nodes = (
(511,-12,o),
(678,85,o),
(775,252,o),
(775,350,qs),
(775,448,o),
(678,615,o),
(511,712,o),
(413,712,qs),
(315,712,o),
(148,615,o),
(51,448,o),
(51,350,qs),
(51,252,o),
(148,85,o),
(315,-12,o),
(413,-12,qs)
);
},
{
closed = 1;
nodes = (
(357,165,o),
(295,226,o),
(293,270,q),
(359,270,l),
(370,225,o),
(410,225,qs),
(445,225,o),
(474,296,o),
(475,344,q),
(462,324,o),
(420,297,o),
(393,297,qs),
(367,297,o),
(318,325,o),
(287,378,o),
(287,414,qs),
(287,464,o),
(354,535,o),
(406,535,qs),
(479,535,o),
(546,434,o),
(546,361,qs),
(546,277,o),
(478,165,o),
(409,165,qs)
);
},
{
closed = 1;
nodes = (
(435,359,o),
(467,391,o),
(467,415,qs),
(467,440,o),
(435,473,o),
(410,473,qs),
(387,473,o),
(356,441,o),
(356,416,qs),
(356,391,o),
(387,359,o),
(412,359,qs)
);
}
);
userData = {
assembly = "PUSHB[ ]	/* 6 values pushed */
31 1 3 8 1 76
MPPEM[ ]	/* MeasurePixelPerEm */
PUSHB[ ]	/* 1 value pushed */
21
LT[ ]	/* LessThan */
IF[ ]	/* If */
NPUSHB[ ]	/* 50 values pushed */
0 5 3 4 3 5 4 128 0 3 0 4 6 3 4 105 0 2 2 0 97 0 0 0 39 77 11 1 8 8 7 97 0 7 7 36 77 10 1 6 6 1 97 9 1 1 1 40 1 78
ELSE[ ]	/* Else */
NPUSHB[ ]	/* 48 values pushed */
0 5 3 4 3 5 4 128 0 7 11 1 8 3 7 8 105 0 3 0 4 6 3 4 105 0 2 2 0 97 0 0 0 39 77 10 1 6 6 1 97 9 1 1 1 40 1 78
EIF[ ]	/* EndIf */
NPUSHB[ ]	/* 32 values pushed */
41 41 16 16 0 0 41 52 41 51 47 45 16 40 16 39 37 36 35 33 29 27 22 20 0 15 0 14 38 12 8 23
CALL[ ]	/* CallFunction */";
};
width = 790;
}
);
note = uni2792;
unicode = 10130;
},
{
glyphname = uni24EA.solid;
layers = (
{
layerId = m01;
shapes = (
{
closed = 1;
nodes = (
(511,-12,o),
(678,85,o),
(775,252,o),
(775,350,qs),
(775,448,o),
(678,615,o),
(511,712,o),
(413,712,qs),
(315,712,o),
(148,615,o),
(51,448,o),
(51,350,qs),
(51,252,o),
(148,85,o),
(315,-12,o),
(413,-12,qs)
);
},
{
closed = 1;
nodes = (
(344,165,o),
(311,216,qs),
(279,264,o),
(279,350,qs),
(279,436,o),
(311,484,qs),
(344,535,o),
(414,535,qs),
(483,535,o),
(516,485,qs),
(548,435,o),
(548,350,qs),
(548,265,o),
(516,215,qs),
(483,165,o),
(414,165,qs)
);
},
{
closed = 1;
nodes = (
(444,230,o),
(459,261,qs),
(474,294,o),
(474,350,qs),
(474,408,o),
(459,439,qs),
(444,470,o),
(414,470,qs),
(383,470,o),
(368,439,qs),
(353,410,o),
(353,350,qs),
(353,291,o),
(368,261,qs),
(383,230,o),
(414,230,qs)
);
}
);
userData = {
assembly = "NPUSHB[ ]	/* 58 values pushed */
0 4 8 1 5 3 4 5 105 0 2 2 0 97 0 0 0 39 77 7 1 3 3 1 97 6 1 1 1 40 1 78 32 32 16 16 0 0 32 47 32 46 40 38 16 31 16 30 24 22 0 15 0 14 38 9 8 23
CALL[ ]	/* CallFunction */";
};
width = 790;
}
);
note = uni24EA.solid;
},
{
glyphname = zero.dnom;
layers = (
{
layerId = m01;
shapes = (
{
closed = 1;
nodes = (
(175,-5,o),
(252,76,o),
(284,188,o),
(284,237,qs),
(284,294,o),
(232,358,o),
(177,358,qs),
(116,358,o),
(39,279,o),
(6,168,o),
(6,118,qs),
(6,61,o),
(57,-5,o),
(113,-5,qs)
);
},
{
closed = 1;
nodes = (
(78,59,o),
(78,127,qs),
(78,156,o),
(95,235,o),
(135,295,o),
(166,295,qs),
(211,295,o),
(211,228,qs),
(211,198,o),
(194,118,o),
(155,59,o),
(124,59,qs)
);
}
);
userData = {
assembly = "NPUSHB[ ]	/* 39 values pushed */
0 0 0 2 3 0 2 105 5 1 3 3 1 97 4 1 1 1 34 1 78 14 14 0 0 14 25 14 24 20 18 0 13 0 12 37 6 8 23
CALL[ ]	/* CallFunction */";
};
width = 315;
}
);
note = zero.dnom;
},
{
glyphname = one.dnom;
layers = (
{
layerId = m01;
shapes = (
{
closed = 1;
nodes = (
(234,0,l),
(245,62,l),
(163,62,l),
(215,353,l),
(178,353,l),
(50,309,l),
(40,254,l),
(133,274,l),
(96,62,l),
(3,62,l),
(-8,0,l)
);
}
);
userData = {
assembly = "NPUSHB[ ]	/* 31 values pushed */
3 2 2 0 1 1 76 0 1 0 1 133 2 1 0 0 3 96 0 3 3 34 3 78 17 17 20 16 4 8 26
CALL[ ]	/* CallFunction */";
};
width = 306;
}
);
note = one.dnom;
},
{
glyphname = two.dnom;
layers = (
{
layerId = m01;
shapes = (
{
closed = 1;
nodes = (
(229,0,l),
(240,62,l),
(92,62,l),
(158,118,ls),
(201,155,o),
(238,188,o),
(269,240,o),
(269,270,qs),
(269,307,o),
(219,358,o),
(169,358,qs),
(115,358,o),
(38,297,o),
(26,240,q),
(96,240,l),
(100,265,o),
(132,298,o),
(157,298,qs),
(176,298,o),
(198,278,o),
(198,261,qs),
(198,239,o),
(158,194,o),
(117,158,qs),
(100,143,l),
(-8,50,l),
(-16,0,l)
);
}
);
userData = {
assembly = "NPUSHB[ ]	/* 35 values pushed */
0 1 0 3 0 1 3 128 0 2 0 0 1 2 0 105 0 3 3 4 95 0 4 4 34 4 78 17 23 34 18 39 5 8 27
CALL[ ]	/* CallFunction */";
};
width = 302;
}
);
note = two.dnom;
},
{
glyphname = three.dnom;
layers = (
{
layerId = m01;
shapes = (
{
closed = 1;
nodes = (
(157,-5,o),
(225,34,o),
(260,99,o),
(260,135,qs),
(260,169,o),
(220,215,o),
(183,221,q),
(279,296,l),
(289,353,l),
(57,353,l),
(46,292,l),
(187,292,l),
(71,202,l),
(102,156,l),
(124,167,o),
(141,167,qs),
(163,167,o),
(190,145,o),
(190,125,qs),
(190,96,o),
(153,57,o),
(121,57,qs),
(97,57,o),
(71,80,o),
(71,100,qs),
(71,107,o),
(72,111,q),
(3,111,l),
(1,95,o),
(1,87,qs),
(1,43,o),
(59,-5,o),
(110,-5,qs)
);
}
);
userData = {
assembly = "NPUSHB[ ]	/* 16 values pushed */
25 19 2 2 3 18 1 0 2 7 2 2 1 0 3 76
MPPEM[ ]	/* MeasurePixelPerEm */
PUSHB[ ]	/* 1 value pushed */
11
LT[ ]	/* LessThan */
IF[ ]	/* If */
NPUSHB[ ]	/* 33 values pushed */
0 2 3 0 3 2 114 0 0 1 1 0 112 0 4 0 3 2 4 3 103 0 1 1 5 98 6 1 5 5 34 5 78
ELSE[ ]	/* Else */
MPPEM[ ]	/* MeasurePixelPerEm */
PUSHB[ ]	/* 1 value pushed */
23
LT[ ]	/* LessThan */
IF[ ]	/* If */
NPUSHB[ ]	/* 34 values pushed */
0 2 3 0 3 2 0 128 0 0 1 1 0 112 0 4 0 3 2 4 3 103 0 1 1 5 98 6 1 5 5 34 5 78
ELSE[ ]	/* Else */
NPUSHB[ ]	/* 35 values pushed */
0 2 3 0 3 2 0 128 0 0 1 3 0 1 126 0 4 0 3 2 4 3 103 0 1 1 5 98 6 1 5 5 34 5 78
EIF[ ]	/* EndIf */
EIF[ ]	/* EndIf */
NPUSHB[ ]	/* 14 values pushed */
0 0 0 32 0 31 17 19 36 36 20 7 8 27
CALL[ ]	/* CallFunction */";
};
width = 309;
}
);
note = three.dnom;
},
{
glyphname = four.dnom;
layers = (
{
layerId = m01;
shapes = (
{
closed = 1;
nodes = (
(205,0,l),
(216,65,l),
(256,65,l),
(268,127,l),
(228,127,l),
(243,213,l),
(176,213,l),
(161,127,l),
(71,127,l),
(223,353,l),
(152,353,l),
(-7,120,l),
(-17,65,l),
(146,65,l),
(134,0,l)
);
}
);
userData = {
assembly = "MPPEM[ ]	/* MeasurePixelPerEm */
PUSHB[ ]	/* 1 value pushed */
15
LT[ ]	/* LessThan */
IF[ ]	/* If */
NPUSHB[ ]	/* 27 values pushed */
0 1 3 1 133 0 3 2 2 3 112 4 1 2 5 1 0 6 2 0 104 0 6 6 34 6 78
ELSE[ ]	/* Else */
NPUSHB[ ]	/* 26 values pushed */
0 1 3 1 133 0 3 2 3 133 4 1 2 5 1 0 6 2 0 104 0 6 6 34 6 78
EIF[ ]	/* EndIf */
NPUSHB[ ]	/* 10 values pushed */
17 17 17 17 17 18 16 7 8 29
CALL[ ]	/* CallFunction */";
};
width = 299;
}
);
note = four.dnom;
},
{
glyphname = five.dnom;
layers = (
{
layerId = m01;
shapes = (
{
closed = 1;
nodes = (
(147,-5,o),
(218,36,o),
(259,107,o),
(259,149,qs),
(259,191,o),
(208,245,o),
(162,245,qs),
(122,245,o),
(93,224,q),
(118,291,l),
(262,291,l),
(274,353,l),
(76,353,l),
(9,149,l),
(76,149,l),
(87,167,o),
(120,187,o),
(141,187,qs),
(163,187,o),
(189,160,o),
(189,137,qs),
(189,105,o),
(148,57,o),
(117,57,qs),
(94,57,o),
(66,83,o),
(66,103,q),
(-4,103,l),
(-9,55,o),
(49,-5,o),
(106,-5,qs)
);
}
);
userData = {
assembly = "PUSHB[ ]	/* 6 values pushed */
21 1 2 6 1 76
MPPEM[ ]	/* MeasurePixelPerEm */
PUSHB[ ]	/* 1 value pushed */
27
LT[ ]	/* LessThan */
IF[ ]	/* If */
NPUSHB[ ]	/* 42 values pushed */
0 3 2 0 2 3 0 128 0 0 1 1 0 112 0 4 0 5 6 4 5 103 0 6 0 2 3 6 2 105 0 1 1 7 98 8 1 7 7 34 7 78
ELSE[ ]	/* Else */
NPUSHB[ ]	/* 43 values pushed */
0 3 2 0 2 3 0 128 0 0 1 2 0 1 126 0 4 0 5 6 4 5 103 0 6 0 2 3 6 2 105 0 1 1 7 98 8 1 7 7 34 7 78
EIF[ ]	/* EndIf */
NPUSHB[ ]	/* 16 values pushed */
0 0 0 30 0 29 34 17 17 18 36 34 18 9 8 29
CALL[ ]	/* CallFunction */";
};
width = 303;
}
);
note = five.dnom;
},
{
glyphname = six.dnom;
layers = (
{
layerId = m01;
shapes = (
{
closed = 1;
nodes = (
(155,-5,o),
(220,36,o),
(258,103,o),
(258,139,qs),
(258,180,o),
(207,231,o),
(168,231,qs),
(145,231,o),
(101,210,o),
(85,192,q),
(96,242,o),
(138,299,o),
(168,299,qs),
(207,299,o),
(209,256,q),
(274,256,l),
(277,301,o),
(226,358,o),
(178,358,qs),
(124,358,o),
(46,283,o),
(6,171,o),
(6,118,qs),
(6,62,o),
(60,-5,o),
(116,-5,qs)
);
},
{
closed = 1;
nodes = (
(103,57,o),
(78,82,o),
(78,102,qs),
(78,129,o),
(117,170,o),
(143,170,qs),
(164,170,o),
(188,146,o),
(188,126,qs),
(188,98,o),
(152,57,o),
(124,57,qs)
);
}
);
userData = {
assembly = "PUSHB[ ]	/* 6 values pushed */
15 1 5 3 1 76
MPPEM[ ]	/* MeasurePixelPerEm */
PUSHB[ ]	/* 1 value pushed */
29
LT[ ]	/* LessThan */
IF[ ]	/* If */
NPUSHB[ ]	/* 36 values pushed */
0 1 2 3 2 1 114 0 0 0 2 1 0 2 105 0 3 0 5 6 3 5 105 8 1 6 6 4 97 7 1 4 4 34 4 78
ELSE[ ]	/* Else */
NPUSHB[ ]	/* 37 values pushed */
0 1 2 3 2 1 3 128 0 0 0 2 1 0 2 105 0 3 0 5 6 3 5 105 8 1 6 6 4 97 7 1 4 4 34 4 78
EIF[ ]	/* EndIf */
NPUSHB[ ]	/* 21 values pushed */
26 26 0 0 26 37 26 36 32 30 0 25 0 24 36 33 18 37 9 8 26
CALL[ ]	/* CallFunction */";
};
width = 303;
}
);
note = six.dnom;
},
{
glyphname = seven.dnom;
layers = (
{
layerId = m01;
shapes = (
{
closed = 1;
nodes = (
(101,0,l),
(294,303,l),
(303,353,l),
(43,353,l),
(32,291,l),
(215,291,l),
(27,0,l)
);
}
);
userData = {
assembly = "NPUSHB[ ]	/* 20 values pushed */
0 1 0 0 2 1 0 103 0 2 2 34 2 78 18 17 16 3 8 25
CALL[ ]	/* CallFunction */";
};
width = 308;
}
);
note = seven.dnom;
},
{
glyphname = eight.dnom;
layers = (
{
layerId = m01;
shapes = (
{
closed = 1;
nodes = (
(172,-5,o),
(250,65,o),
(250,116,qs),
(250,169,o),
(204,190,q),
(268,219,o),
(268,276,qs),
(268,313,o),
(216,358,o),
(169,358,qs),
(111,358,o),
(32,300,o),
(32,252,qs),
(32,213,o),
(72,190,q),
(37,177,o),
(-3,121,o),
(-3,87,qs),
(-3,47,o),
(54,-5,o),
(107,-5,qs)
);
},
{
closed = 1;
nodes = (
(94,54,o),
(66,78,o),
(66,98,qs),
(66,126,o),
(107,158,o),
(133,158,qs),
(155,158,o),
(182,135,o),
(182,115,qs),
(182,87,o),
(142,54,o),
(116,54,qs)
);
},
{
closed = 1;
nodes = (
(124,210,o),
(101,231,o),
(101,249,qs),
(101,271,o),
(134,300,o),
(157,300,qs),
(176,300,o),
(198,279,o),
(198,262,qs),
(198,240,o),
(165,210,o),
(143,210,qs)
);
}
);
userData = {
assembly = "NPUSHB[ ]	/* 63 values pushed */
15 5 2 2 5 1 76 0 0 0 4 5 0 4 105 8 1 5 0 2 3 5 2 105 7 1 3 3 1 97 6 1 1 1 34 1 78 33 33 21 21 0 0 33 44 33 43 39 37 21 32 21 31 27 25 0 20 0 19 41 9 8 23
CALL[ ]	/* CallFunction */";
};
width = 299;
}
);
note = eight.dnom;
},
{
glyphname = nine.dnom;
layers = (
{
layerId = m01;
shapes = (
{
closed = 1;
nodes = (
(154,-5,o),
(232,71,o),
(272,183,o),
(272,236,qs),
(272,291,o),
(218,358,o),
(162,358,qs),
(123,358,o),
(58,317,o),
(20,251,o),
(20,217,qs),
(20,176,o),
(69,123,o),
(110,123,qs),
(133,123,o),
(178,144,o),
(194,161,q),
(183,111,o),
(141,55,o),
(111,55,qs),
(72,55,o),
(70,99,q),
(5,99,l),
(2,52,o),
(52,-5,o),
(100,-5,qs)
);
},
{
closed = 1;
nodes = (
(115,184,o),
(90,208,o),
(90,228,qs),
(90,256,o),
(127,297,o),
(155,297,qs),
(175,297,o),
(201,271,o),
(201,251,qs),
(201,225,o),
(162,184,o),
(136,184,qs)
);
}
);
userData = {
assembly = "PUSHB[ ]	/* 6 values pushed */
8 1 2 6 1 76
MPPEM[ ]	/* MeasurePixelPerEm */
PUSHB[ ]	/* 1 value pushed */
29
LT[ ]	/* LessThan */
IF[ ]	/* If */
NPUSHB[ ]	/* 36 values pushed */
0 0 2 1 1 0 114 0 3 0 5 6 3 5 105 8 1 6 0 2 0 6 2 105 0 1 1 4 98 7 1 4 4 34 4 78
ELSE[ ]	/* Else */
NPUSHB[ ]	/* 37 values pushed */
0 0 2 1 2 0 1 128 0 3 0 5 6 3 5 105 8 1 6 0 2 0 6 2 105 0 1 1 4 98 7 1 4 4 34 4 78
EIF[ ]	/* EndIf */
NPUSHB[ ]	/* 21 values pushed */
26 26 0 0 26 37 26 36 32 30 0 25 0 24 37 36 33 18 9 8 26
CALL[ ]	/* CallFunction */";
};
width = 303;
}
);
note = nine.dnom;
},
{
glyphname = zero.numr;
layers = (
{
layerId = m01;
shapes = (
{
closed = 1;
nodes = (
(236,342,o),
(313,422,o),
(345,534,o),
(345,584,qs),
(345,641,o),
(294,705,o),
(238,705,qs),
(177,705,o),
(100,625,o),
(67,514,o),
(67,465,qs),
(67,408,o),
(119,342,o),
(174,342,qs)
);
},
{
closed = 1;
nodes = (
(164,406,o),
(139,439,o),
(139,473,qs),
(139,503,o),
(156,582,o),
(195,642,o),
(227,642,qs),
(273,642,o),
(273,574,qs),
(273,544,o),
(256,465,o),
(216,406,o),
(185,406,qs)
);
}
);
userData = {
assembly = "NPUSHB[ ]	/* 38 values pushed */
5 1 3 4 1 1 3 1 101 0 2 2 0 97 0 0 0 33 2 78 14 14 0 0 14 26 14 25 20 18 0 13 0 12 37 6 8 23
CALL[ ]	/* CallFunction */";
};
width = 315;
}
);
note = zero.numr;
},
{
glyphname = one.numr;
layers = (
{
layerId = m01;
shapes = (
{
closed = 1;
nodes = (
(295,347,l),
(306,409,l),
(224,409,l),
(276,700,l),
(239,700,l),
(111,656,l),
(101,601,l),
(195,621,l),
(157,409,l),
(64,409,l),
(53,347,l)
);
}
);
userData = {
assembly = "NPUSHB[ ]	/* 28 values pushed */
3 2 2 0 1 1 76 2 1 0 0 3 0 3 100 0 1 1 33 1 78 17 17 20 16 4 8 26
CALL[ ]	/* CallFunction */";
};
width = 306;
}
);
note = one.numr;
},
{
glyphname = two.numr;
layers = (
{
layerId = m01;
shapes = (
{
closed = 1;
nodes = (
(290,347,l),
(301,409,l),
(153,409,l),
(219,465,ls),
(262,502,o),
(299,535,o),
(330,587,o),
(330,617,qs),
(330,654,o),
(280,705,o),
(230,705,qs),
(176,705,o),
(99,644,o),
(87,587,q),
(157,587,l),
(161,612,o),
(193,645,o),
(218,645,qs),
(237,645,o),
(259,625,o),
(259,608,qs),
(259,586,o),
(219,541,o),
(178,505,qs),
(161,490,l),
(53,397,l),
(45,347,l)
);
}
);
userData = {
assembly = "NPUSHB[ ]	/* 34 values pushed */
0 1 0 3 0 1 3 128 0 3 0 4 3 4 99 0 0 0 2 97 0 2 2 33 0 78 17 23 34 18 39 5 8 27
CALL[ ]	/* CallFunction */";
};
width = 302;
}
);
note = two.numr;
},
{
glyphname = three.numr;
layers = (
{
layerId = m01;
shapes = (
{
closed = 1;
nodes = (
(218,342,o),
(286,381,o),
(321,446,o),
(321,482,qs),
(321,516,o),
(281,562,o),
(244,568,q),
(340,643,l),
(350,700,l),
(118,700,l),
(107,639,l),
(248,639,l),
(132,549,l),
(163,503,l),
(185,514,o),
(202,514,qs),
(224,514,o),
(251,492,o),
(251,472,qs),
(251,443,o),
(214,404,o),
(182,404,qs),
(158,404,o),
(132,427,o),
(132,447,qs),
(132,454,o),
(133,458,q),
(64,458,l),
(62,442,o),
(62,434,qs),
(62,390,o),
(120,342,o),
(171,342,qs)
);
}
);
userData = {
assembly = "NPUSHB[ ]	/* 16 values pushed */
25 19 2 2 3 18 1 0 2 7 2 2 1 0 3 76
MPPEM[ ]	/* MeasurePixelPerEm */
PUSHB[ ]	/* 1 value pushed */
11
LT[ ]	/* LessThan */
IF[ ]	/* If */
NPUSHB[ ]	/* 32 values pushed */
0 2 3 0 3 2 114 0 0 1 1 0 112 0 1 6 1 5 1 5 102 0 3 3 4 95 0 4 4 33 3 78
ELSE[ ]	/* Else */
MPPEM[ ]	/* MeasurePixelPerEm */
PUSHB[ ]	/* 1 value pushed */
23
LT[ ]	/* LessThan */
IF[ ]	/* If */
NPUSHB[ ]	/* 33 values pushed */
0 2 3 0 3 2 0 128 0 0 1 1 0 112 0 1 6 1 5 1 5 102 0 3 3 4 95 0 4 4 33 3 78
ELSE[ ]	/* Else */
NPUSHB[ ]	/* 34 values pushed */
0 2 3 0 3 2 0 128 0 0 1 3 0 1 126 0 1 6 1 5 1 5 102 0 3 3 4 95 0 4 4 33 3 78
EIF[ ]	/* EndIf */
EIF[ ]	/* EndIf */
NPUSHB[ ]	/* 14 values pushed */
0 0 0 32 0 31 17 19 36 36 20 7 8 27
CALL[ ]	/* CallFunction */";
};
width = 309;
}
);
note = three.numr;
},
{
glyphname = four.numr;
layers = (
{
layerId = m01;
shapes = (
{
closed = 1;
nodes = (
(266,347,l),
(278,412,l),
(318,412,l),
(329,474,l),
(289,474,l),
(304,560,l),
(238,560,l),
(223,474,l),
(133,474,l),
(284,700,l),
(213,700,l),
(54,467,l),
(44,412,l),
(207,412,l),
(196,347,l)
);
}
);
userData = {
assembly = "MPPEM[ ]	/* MeasurePixelPerEm */
PUSHB[ ]	/* 1 value pushed */
15
LT[ ]	/* LessThan */
IF[ ]	/* If */
NPUSHB[ ]	/* 31 values pushed */
0 3 1 2 2 3 114 0 6 0 0 6 113 0 1 1 33 77 5 1 0 0 2 95 4 1 2 2 36 0 78
ELSE[ ]	/* Else */
MPPEM[ ]	/* MeasurePixelPerEm */
PUSHB[ ]	/* 1 value pushed */
19
LT[ ]	/* LessThan */
IF[ ]	/* If */
NPUSHB[ ]	/* 32 values pushed */
0 3 1 2 1 3 2 128 0 6 0 0 6 113 0 1 1 33 77 5 1 0 0 2 95 4 1 2 2 36 0 78
ELSE[ ]	/* Else */
MPPEM[ ]	/* MeasurePixelPerEm */
PUSHB[ ]	/* 1 value pushed */
23
LT[ ]	/* LessThan */
IF[ ]	/* If */
NPUSHB[ ]	/* 31 values pushed */
0 3 1 2 1 3 2 128 0 6 0 6 134 0 1 1 33 77 5 1 0 0 2 95 4 1 2 2 36 0 78
ELSE[ ]	/* Else */
NPUSHB[ ]	/* 29 values pushed */
0 3 1 2 1 3 2 128 0 6 0 6 134 4 1 2 5 1 0 6 2 0 104 0 1 1 33 1 78
EIF[ ]	/* EndIf */
EIF[ ]	/* EndIf */
EIF[ ]	/* EndIf */
NPUSHB[ ]	/* 10 values pushed */
17 17 17 17 17 18 16 7 8 29
CALL[ ]	/* CallFunction */";
};
width = 300;
}
);
note = four.numr;
},
{
glyphname = five.numr;
layers = (
{
layerId = m01;
shapes = (
{
closed = 1;
nodes = (
(210,342,o),
(279,383,o),
(320,454,o),
(320,496,qs),
(320,538,o),
(269,592,o),
(223,592,qs),
(183,592,o),
(154,571,q),
(179,638,l),
(324,638,l),
(335,700,l),
(137,700,l),
(70,496,l),
(137,496,l),
(148,514,o),
(182,534,o),
(203,534,qs),
(225,534,o),
(250,507,o),
(250,484,qs),
(250,452,o),
(209,404,o),
(179,404,qs),
(156,404,o),
(128,430,o),
(127,450,q),
(57,450,l),
(52,402,o),
(111,342,o),
(168,342,qs)
);
}
);
userData = {
assembly = "PUSHB[ ]	/* 6 values pushed */
21 1 2 6 1 76
MPPEM[ ]	/* MeasurePixelPerEm */
PUSHB[ ]	/* 1 value pushed */
27
LT[ ]	/* LessThan */
IF[ ]	/* If */
NPUSHB[ ]	/* 41 values pushed */
0 3 2 0 2 3 0 128 0 0 1 1 0 112 0 6 0 2 3 6 2 105 0 1 8 1 7 1 7 102 0 5 5 4 95 0 4 4 33 5 78
ELSE[ ]	/* Else */
NPUSHB[ ]	/* 42 values pushed */
0 3 2 0 2 3 0 128 0 0 1 2 0 1 126 0 6 0 2 3 6 2 105 0 1 8 1 7 1 7 102 0 5 5 4 95 0 4 4 33 5 78
EIF[ ]	/* EndIf */
NPUSHB[ ]	/* 16 values pushed */
0 0 0 30 0 29 34 17 17 18 36 34 18 9 8 29
CALL[ ]	/* CallFunction */";
};
width = 303;
}
);
note = five.numr;
},
{
glyphname = six.numr;
layers = (
{
layerId = m01;
shapes = (
{
closed = 1;
nodes = (
(216,342,o),
(280,383,o),
(318,450,o),
(318,485,qs),
(318,527,o),
(268,578,o),
(229,578,qs),
(206,578,o),
(161,557,o),
(145,539,q),
(156,589,o),
(198,646,o),
(228,646,qs),
(267,646,o),
(269,603,q),
(334,603,l),
(337,649,o),
(287,705,o),
(239,705,qs),
(185,705,o),
(107,629,o),
(67,517,o),
(67,465,qs),
(67,409,o),
(121,342,o),
(177,342,qs)
);
},
{
closed = 1;
nodes = (
(164,404,o),
(138,429,o),
(138,449,qs),
(138,476,o),
(177,517,o),
(203,517,qs),
(224,517,o),
(249,493,o),
(249,472,qs),
(249,445,o),
(212,404,o),
(184,404,qs)
);
}
);
userData = {
assembly = "PUSHB[ ]	/* 6 values pushed */
15 1 5 3 1 76
MPPEM[ ]	/* MeasurePixelPerEm */
PUSHB[ ]	/* 1 value pushed */
29
LT[ ]	/* LessThan */
IF[ ]	/* If */
NPUSHB[ ]	/* 35 values pushed */
0 1 2 3 2 1 114 0 3 0 5 6 3 5 105 8 1 6 7 1 4 6 4 101 0 2 2 0 97 0 0 0 33 2 78
ELSE[ ]	/* Else */
NPUSHB[ ]	/* 36 values pushed */
0 1 2 3 2 1 3 128 0 3 0 5 6 3 5 105 8 1 6 7 1 4 6 4 101 0 2 2 0 97 0 0 0 33 2 78
EIF[ ]	/* EndIf */
NPUSHB[ ]	/* 21 values pushed */
26 26 0 0 26 37 26 36 32 30 0 25 0 24 36 33 18 37 9 8 26
CALL[ ]	/* CallFunction */";
};
width = 303;
}
);
note = six.numr;
},
{
glyphname = seven.numr;
layers = (
{
layerId = m01;
shapes = (
{
closed = 1;
nodes = (
(162,347,l),
(355,650,l),
(364,700,l),
(104,700,l),
(93,638,l),
(277,638,l),
(88,347,l)
);
}
);
userData = {
assembly = "NPUSHB[ ]	/* 22 values pushed */
0 2 0 2 134 0 0 0 1 95 0 1 1 33 0 78 18 17 16 3 8 25
CALL[ ]	/* CallFunction */";
};
width = 308;
}
);
note = seven.numr;
},
{
glyphname = eight.numr;
layers = (
{
layerId = m01;
shapes = (
{
closed = 1;
nodes = (
(233,342,o),
(312,413,o),
(312,463,qs),
(312,515,o),
(266,537,q),
(330,567,o),
(330,623,qs),
(330,660,o),
(277,705,o),
(230,705,qs),
(172,705,o),
(94,647,o),
(94,599,qs),
(94,560,o),
(133,537,q),
(99,524,o),
(58,468,o),
(58,434,qs),
(58,394,o),
(116,342,o),
(169,342,qs)
);
},
{
closed = 1;
nodes = (
(156,401,o),
(128,425,o),
(128,445,qs),
(128,473,o),
(169,505,o),
(194,505,qs),
(217,505,o),
(243,482,o),
(243,462,qs),
(243,434,o),
(203,401,o),
(178,401,qs)
);
},
{
closed = 1;
nodes = (
(185,557,o),
(162,578,o),
(162,596,qs),
(162,618,o),
(195,647,o),
(219,647,qs),
(238,647,o),
(260,626,o),
(260,609,qs),
(260,587,o),
(227,557,o),
(205,557,qs)
);
}
);
userData = {
assembly = "NPUSHB[ ]	/* 62 values pushed */
15 5 2 2 5 1 76 8 1 5 0 2 3 5 2 105 7 1 3 6 1 1 3 1 101 0 4 4 0 97 0 0 0 33 4 78 33 33 21 21 0 0 33 44 33 43 39 37 21 32 21 31 27 25 0 20 0 19 41 9 8 23
CALL[ ]	/* CallFunction */";
};
width = 299;
}
);
note = eight.numr;
},
{
glyphname = nine.numr;
layers = (
{
layerId = m01;
shapes = (
{
closed = 1;
nodes = (
(216,342,o),
(294,417,o),
(334,528,o),
(334,582,qs),
(334,638,o),
(280,705,o),
(224,705,qs),
(185,705,o),
(120,664,o),
(82,598,o),
(82,563,qs),
(82,523,o),
(130,470,o),
(171,470,qs),
(194,470,o),
(239,491,o),
(255,508,q),
(244,458,o),
(202,402,o),
(172,402,qs),
(133,402,o),
(131,446,q),
(66,446,l),
(63,399,o),
(114,342,o),
(162,342,qs)
);
},
{
closed = 1;
nodes = (
(176,531,o),
(152,555,o),
(152,575,qs),
(152,603,o),
(188,644,o),
(216,644,qs),
(237,644,o),
(262,619,o),
(262,599,qs),
(262,571,o),
(223,531,o),
(197,531,qs)
);
}
);
userData = {
assembly = "PUSHB[ ]	/* 6 values pushed */
8 1 2 6 1 76
MPPEM[ ]	/* MeasurePixelPerEm */
PUSHB[ ]	/* 1 value pushed */
21
LT[ ]	/* LessThan */
IF[ ]	/* If */
NPUSHB[ ]	/* 37 values pushed */
0 0 2 1 1 0 114 0 1 7 1 4 1 4 102 0 5 5 3 97 0 3 3 33 77 0 2 2 6 97 8 1 6 6 42 2 78
ELSE[ ]	/* Else */
MPPEM[ ]	/* MeasurePixelPerEm */
PUSHB[ ]	/* 1 value pushed */
29
LT[ ]	/* LessThan */
IF[ ]	/* If */
NPUSHB[ ]	/* 35 values pushed */
0 0 2 1 1 0 114 8 1 6 0 2 0 6 2 105 0 1 7 1 4 1 4 102 0 5 5 3 97 0 3 3 33 5 78
ELSE[ ]	/* Else */
NPUSHB[ ]	/* 36 values pushed */
0 0 2 1 2 0 1 128 8 1 6 0 2 0 6 2 105 0 1 7 1 4 1 4 102 0 5 5 3 97 0 3 3 33 5 78
EIF[ ]	/* EndIf */
EIF[ ]	/* EndIf */
NPUSHB[ ]	/* 21 values pushed */
26 26 0 0 26 37 26 36 32 30 0 25 0 24 37 36 33 18 9 8 26
CALL[ ]	/* CallFunction */";
};
width = 304;
}
);
note = nine.numr;
},
{
glyphname = fraction;
layers = (
{
layerId = m01;
shapes = (
{
closed = 1;
nodes = (
(28,0,l),
(672,700,l),
(588,700,l),
(-56,0,l)
);
}
);
userData = {
assembly = "NPUSHB[ ]	/* 16 values pushed */
0 0 0 33 77 0 1 1 34 1 78 17 16 2 8 24
CALL[ ]	/* CallFunction */";
};
width = 575;
}
);
note = fraction;
unicode = 8260;
},
{
glyphname = onehalf;
layers = (
{
layerId = m01;
shapes = (
{
closed = 1;
nodes = (
(127,0,l),
(771,700,l),
(687,700,l),
(43,0,l)
);
},
{
closed = 1;
nodes = (
(291,347,l),
(302,409,l),
(221,409,l),
(273,700,l),
(235,700,l),
(108,657,l),
(98,601,l),
(191,621,l),
(153,409,l),
(61,409,l),
(50,347,l)
);
},
{
closed = 1;
nodes = (
(674,0,l),
(685,62,l),
(537,62,l),
(603,118,ls),
(646,155,o),
(683,188,o),
(714,240,o),
(714,270,qs),
(714,307,o),
(664,358,o),
(614,358,qs),
(560,358,o),
(483,297,o),
(471,240,q),
(541,240,l),
(545,265,o),
(577,298,o),
(602,298,qs),
(621,298,o),
(643,278,o),
(643,261,qs),
(643,239,o),
(603,194,o),
(562,158,qs),
(545,143,l),
(437,50,l),
(429,0,l)
);
}
);
userData = {
assembly = "PUSHB[ ]	/* 2 values pushed */
6 100
WCVTP[ ]	/* WriteCVTInPixels */
NPUSHB[ ]	/* 71 values pushed */
7 6 2 2 0 1 76 3 1 0 2 0 133 0 7 6 9 6 7 9 128 4 1 2 0 5 6 2 5 104 0 8 0 6 7 8 6 105 0 9 1 1 9 87 0 9 9 1 95 10 1 1 9 1 79 41 40 39 38 34 18 40 17 17 20 17 17 16 11 8 31
CALL[ ]	/* CallFunction */
PUSHB[ ]	/* 2 values pushed */
6 0
WCVTP[ ]	/* WriteCVTInPixels */";
};
width = 758;
}
);
note = onehalf;
unicode = 189;
},
{
glyphname = onequarter;
layers = (
{
layerId = m01;
shapes = (
{
closed = 1;
nodes = (
(124,0,l),
(768,700,l),
(684,700,l),
(40,0,l)
);
},
{
closed = 1;
nodes = (
(291,347,l),
(302,409,l),
(221,409,l),
(273,700,l),
(235,700,l),
(108,657,l),
(98,601,l),
(191,621,l),
(153,409,l),
(61,409,l),
(50,347,l)
);
},
{
closed = 1;
nodes = (
(633,0,l),
(644,65,l),
(684,65,l),
(696,127,l),
(656,127,l),
(671,213,l),
(604,213,l),
(589,127,l),
(499,127,l),
(651,353,l),
(580,353,l),
(421,120,l),
(411,65,l),
(574,65,l),
(562,0,l)
);
}
);
userData = {
assembly = "PUSHB[ ]	/* 2 values pushed */
6 100
WCVTP[ ]	/* WriteCVTInPixels */
PUSHB[ ]	/* 7 values pushed */
7 6 2 2 0 1 76
MPPEM[ ]	/* MeasurePixelPerEm */
PUSHB[ ]	/* 1 value pushed */
15
LT[ ]	/* LessThan */
IF[ ]	/* If */
NPUSHB[ ]	/* 56 values pushed */
3 1 0 2 0 133 0 7 2 5 2 7 5 128 0 9 5 8 8 9 114 12 1 1 6 6 1 113 4 1 2 0 5 9 2 5 104 10 1 8 6 6 8 87 10 1 8 8 6 96 11 1 6 8 6 80
ELSE[ ]	/* Else */
MPPEM[ ]	/* MeasurePixelPerEm */
PUSHB[ ]	/* 1 value pushed */
19
LT[ ]	/* LessThan */
IF[ ]	/* If */
NPUSHB[ ]	/* 57 values pushed */
3 1 0 2 0 133 0 7 2 5 2 7 5 128 0 9 5 8 5 9 8 128 12 1 1 6 6 1 113 4 1 2 0 5 9 2 5 104 10 1 8 6 6 8 87 10 1 8 8 6 96 11 1 6 8 6 80
ELSE[ ]	/* Else */
NPUSHB[ ]	/* 56 values pushed */
3 1 0 2 0 133 0 7 2 5 2 7 5 128 0 9 5 8 5 9 8 128 12 1 1 6 1 134 4 1 2 0 5 9 2 5 104 10 1 8 6 6 8 87 10 1 8 8 6 96 11 1 6 8 6 80
EIF[ ]	/* EndIf */
EIF[ ]	/* EndIf */
NPUSHB[ ]	/* 20 values pushed */
29 28 27 26 25 24 23 22 17 18 17 17 17 20 17 17 16 13 8 31
CALL[ ]	/* CallFunction */
PUSHB[ ]	/* 2 values pushed */
6 0
WCVTP[ ]	/* WriteCVTInPixels */";
};
width = 752;
}
);
note = onequarter;
unicode = 188;
},
{
glyphname = threequarters;
layers = (
{
layerId = m01;
shapes = (
{
closed = 1;
nodes = (
(129,0,l),
(773,700,l),
(688,700,l),
(45,0,l)
);
},
{
closed = 1;
nodes = (
(637,0,l),
(649,65,l),
(689,65,l),
(700,127,l),
(660,127,l),
(675,213,l),
(609,213,l),
(594,127,l),
(504,127,l),
(655,353,l),
(584,353,l),
(425,120,l),
(415,65,l),
(578,65,l),
(567,0,l)
);
},
{
closed = 1;
nodes = (
(226,342,o),
(294,381,o),
(329,446,o),
(329,482,qs),
(329,516,o),
(289,562,o),
(252,568,q),
(348,643,l),
(358,700,l),
(126,700,l),
(115,639,l),
(256,639,l),
(140,549,l),
(171,503,l),
(193,514,o),
(210,514,qs),
(232,514,o),
(259,492,o),
(259,472,qs),
(259,443,o),
(222,404,o),
(190,404,qs),
(166,404,o),
(140,427,o),
(140,447,qs),
(140,454,o),
(141,458,q),
(72,458,l),
(70,442,o),
(70,434,qs),
(70,390,o),
(128,342,o),
(179,342,qs)
);
}
);
userData = {
assembly = "PUSHB[ ]	/* 2 values pushed */
6 100
WCVTP[ ]	/* WriteCVTInPixels */
NPUSHB[ ]	/* 16 values pushed */
44 38 2 11 12 37 1 9 11 26 21 2 10 9 3 76
MPPEM[ ]	/* MeasurePixelPerEm */
PUSHB[ ]	/* 1 value pushed */
11
LT[ ]	/* LessThan */
IF[ ]	/* If */
NPUSHB[ ]	/* 72 values pushed */
0 11 12 9 12 11 114 0 9 10 10 9 112 0 3 10 14 10 3 14 128 0 5 14 4 4 5 114 8 1 1 2 2 1 113 13 1 0 0 12 11 0 12 103 0 10 15 1 14 5 10 14 106 6 1 4 2 2 4 87 6 1 4 4 2 96 7 1 2 4 2 80
ELSE[ ]	/* Else */
MPPEM[ ]	/* MeasurePixelPerEm */
PUSHB[ ]	/* 1 value pushed */
15
LT[ ]	/* LessThan */
IF[ ]	/* If */
NPUSHB[ ]	/* 73 values pushed */
0 11 12 9 12 11 9 128 0 9 10 10 9 112 0 3 10 14 10 3 14 128 0 5 14 4 4 5 114 8 1 1 2 2 1 113 13 1 0 0 12 11 0 12 103 0 10 15 1 14 5 10 14 106 6 1 4 2 2 4 87 6 1 4 4 2 96 7 1 2 4 2 80
ELSE[ ]	/* Else */
MPPEM[ ]	/* MeasurePixelPerEm */
PUSHB[ ]	/* 1 value pushed */
19
LT[ ]	/* LessThan */
IF[ ]	/* If */
NPUSHB[ ]	/* 74 values pushed */
0 11 12 9 12 11 9 128 0 9 10 10 9 112 0 3 10 14 10 3 14 128 0 5 14 4 14 5 4 128 8 1 1 2 2 1 113 13 1 0 0 12 11 0 12 103 0 10 15 1 14 5 10 14 106 6 1 4 2 2 4 87 6 1 4 4 2 96 7 1 2 4 2 80
ELSE[ ]	/* Else */
MPPEM[ ]	/* MeasurePixelPerEm */
PUSHB[ ]	/* 1 value pushed */
23
LT[ ]	/* LessThan */
IF[ ]	/* If */
NPUSHB[ ]	/* 73 values pushed */
0 11 12 9 12 11 9 128 0 9 10 10 9 112 0 3 10 14 10 3 14 128 0 5 14 4 14 5 4 128 8 1 1 2 1 134 13 1 0 0 12 11 0 12 103 0 10 15 1 14 5 10 14 106 6 1 4 2 2 4 87 6 1 4 4 2 96 7 1 2 4 2 80
ELSE[ ]	/* Else */
NPUSHB[ ]	/* 74 values pushed */
0 11 12 9 12 11 9 128 0 9 10 12 9 10 126 0 3 10 14 10 3 14 128 0 5 14 4 14 5 4 128 8 1 1 2 1 134 13 1 0 0 12 11 0 12 103 0 10 15 1 14 5 10 14 106 6 1 4 2 2 4 87 6 1 4 4 2 96 7 1 2 4 2 80
EIF[ ]	/* EndIf */
EIF[ ]	/* EndIf */
EIF[ ]	/* EndIf */
EIF[ ]	/* EndIf */
NPUSHB[ ]	/* 28 values pushed */
19 19 19 51 19 50 42 41 40 39 36 34 30 28 24 23 17 17 17 17 17 18 17 17 16 16 8 31
CALL[ ]	/* CallFunction */
PUSHB[ ]	/* 2 values pushed */
6 0
WCVTP[ ]	/* WriteCVTInPixels */";
};
width = 757;
}
);
note = threequarters;
unicode = 190;
},
{
glyphname = oneeighth;
layers = (
{
layerId = m01;
shapes = (
{
closed = 1;
nodes = (
(125,0,l),
(769,700,l),
(684,700,l),
(41,0,l)
);
},
{
closed = 1;
nodes = (
(291,347,l),
(302,409,l),
(221,409,l),
(273,700,l),
(235,700,l),
(108,657,l),
(98,601,l),
(191,621,l),
(153,409,l),
(61,409,l),
(50,347,l)
);
},
{
closed = 1;
nodes = (
(536,54,o),
(508,78,o),
(508,98,qs),
(508,126,o),
(549,158,o),
(575,158,qs),
(597,158,o),
(624,135,o),
(624,115,qs),
(624,87,o),
(584,54,o),
(558,54,qs)
);
},
{
closed = 1;
nodes = (
(614,-5,o),
(692,65,o),
(692,116,qs),
(692,169,o),
(646,190,q),
(710,219,o),
(710,276,qs),
(710,313,o),
(658,358,o),
(611,358,qs),
(553,358,o),
(474,300,o),
(474,252,qs),
(474,213,o),
(514,190,q),
(479,177,o),
(439,121,o),
(439,87,qs),
(439,47,o),
(496,-5,o),
(549,-5,qs)
);
},
{
closed = 1;
nodes = (
(566,210,o),
(543,231,o),
(543,249,qs),
(543,271,o),
(576,300,o),
(599,300,qs),
(618,300,o),
(640,279,o),
(640,262,qs),
(640,240,o),
(607,210,o),
(585,210,qs)
);
}
);
userData = {
assembly = "NPUSHB[ ]	/* 12 values pushed */
7 6 2 2 0 42 32 2 6 11 2 76
MPPEM[ ]	/* MeasurePixelPerEm */
PUSHB[ ]	/* 1 value pushed */
46
LT[ ]	/* LessThan */
IF[ ]	/* If */
NPUSHB[ ]	/* 46 values pushed */
4 1 2 0 5 10 2 5 104 0 8 0 10 11 8 10 105 14 1 11 0 6 7 11 6 105 3 1 0 0 33 77 12 1 7 7 1 97 13 9 2 1 1 34 1 78
ELSE[ ]	/* Else */
NPUSHB[ ]	/* 50 values pushed */
4 1 2 0 5 10 2 5 104 0 8 0 10 11 8 10 105 14 1 11 0 6 7 11 6 105 3 1 0 0 33 77 0 1 1 34 77 12 1 7 7 9 97 13 1 9 9 34 9 78
EIF[ ]	/* EndIf */
NPUSHB[ ]	/* 32 values pushed */
48 48 27 27 15 15 48 59 48 58 54 52 27 47 27 46 38 36 15 26 15 25 37 17 17 20 17 17 16 15 8 29
CALL[ ]	/* CallFunction */";
};
width = 754;
}
);
note = oneeighth;
unicode = 8539;
},
{
glyphname = threeeighths;
layers = (
{
layerId = m01;
shapes = (
{
closed = 1;
nodes = (
(124,0,l),
(768,700,l),
(683,700,l),
(40,0,l)
);
},
{
closed = 1;
nodes = (
(226,342,o),
(294,381,o),
(329,446,o),
(329,482,qs),
(329,516,o),
(289,562,o),
(252,568,q),
(348,643,l),
(358,700,l),
(126,700,l),
(115,639,l),
(256,639,l),
(140,549,l),
(171,503,l),
(193,514,o),
(210,514,qs),
(232,514,o),
(259,492,o),
(259,472,qs),
(259,443,o),
(222,404,o),
(190,404,qs),
(166,404,o),
(140,427,o),
(140,447,qs),
(140,454,o),
(141,458,q),
(72,458,l),
(70,442,o),
(70,434,qs),
(70,390,o),
(128,342,o),
(179,342,qs)
);
},
{
closed = 1;
nodes = (
(614,-5,o),
(692,65,o),
(692,116,qs),
(692,169,o),
(646,190,q),
(710,219,o),
(710,276,qs),
(710,313,o),
(658,358,o),
(611,358,qs),
(553,358,o),
(474,300,o),
(474,252,qs),
(474,213,o),
(514,190,q),
(479,177,o),
(439,121,o),
(439,87,qs),
(439,47,o),
(496,-5,o),
(549,-5,qs)
);
},
{
closed = 1;
nodes = (
(536,54,o),
(508,78,o),
(508,98,qs),
(508,126,o),
(549,158,o),
(575,158,qs),
(597,158,o),
(624,135,o),
(624,115,qs),
(624,87,o),
(584,54,o),
(558,54,qs)
);
},
{
closed = 1;
nodes = (
(566,210,o),
(543,231,o),
(543,249,qs),
(543,271,o),
(576,300,o),
(599,300,qs),
(618,300,o),
(640,279,o),
(640,262,qs),
(640,240,o),
(607,210,o),
(585,210,qs)
);
}
);
userData = {
assembly = "NPUSHB[ ]	/* 21 values pushed */
29 23 2 4 5 22 1 2 4 11 6 2 3 2 52 42 2 10 13 4 76
MPPEM[ ]	/* MeasurePixelPerEm */
PUSHB[ ]	/* 1 value pushed */
11
LT[ ]	/* LessThan */
IF[ ]	/* If */
NPUSHB[ ]	/* 64 values pushed */
0 4 5 2 5 4 114 0 2 3 3 2 112 0 3 14 1 7 12 3 7 106 0 8 0 12 13 8 12 105 17 1 13 0 10 11 13 10 105 0 5 5 0 95 6 1 0 0 33 77 16 1 11 11 1 97 15 9 2 1 1 34 1 78
ELSE[ ]	/* Else */
MPPEM[ ]	/* MeasurePixelPerEm */
PUSHB[ ]	/* 1 value pushed */
23
LT[ ]	/* LessThan */
IF[ ]	/* If */
NPUSHB[ ]	/* 65 values pushed */
0 4 5 2 5 4 2 128 0 2 3 3 2 112 0 3 14 1 7 12 3 7 106 0 8 0 12 13 8 12 105 17 1 13 0 10 11 13 10 105 0 5 5 0 95 6 1 0 0 33 77 16 1 11 11 1 97 15 9 2 1 1 34 1 78
ELSE[ ]	/* Else */
MPPEM[ ]	/* MeasurePixelPerEm */
PUSHB[ ]	/* 1 value pushed */
46
LT[ ]	/* LessThan */
IF[ ]	/* If */
NPUSHB[ ]	/* 66 values pushed */
0 4 5 2 5 4 2 128 0 2 3 5 2 3 126 0 3 14 1 7 12 3 7 106 0 8 0 12 13 8 12 105 17 1 13 0 10 11 13 10 105 0 5 5 0 95 6 1 0 0 33 77 16 1 11 11 1 97 15 9 2 1 1 34 1 78
ELSE[ ]	/* Else */
NPUSHB[ ]	/* 70 values pushed */
0 4 5 2 5 4 2 128 0 2 3 5 2 3 126 0 3 14 1 7 12 3 7 106 0 8 0 12 13 8 12 105 17 1 13 0 10 11 13 10 105 0 5 5 0 95 6 1 0 0 33 77 0 1 1 34 77 16 1 11 11 9 97 15 1 9 9 34 9 78
EIF[ ]	/* EndIf */
EIF[ ]	/* EndIf */
EIF[ ]	/* EndIf */
NPUSHB[ ]	/* 40 values pushed */
70 70 58 58 37 37 4 4 70 81 70 80 76 74 58 69 58 68 64 62 37 57 37 56 48 46 4 36 4 35 17 19 36 36 21 17 16 18 8 29
CALL[ ]	/* CallFunction */";
};
width = 751;
}
);
note = threeeighths;
unicode = 8540;
},
{
glyphname = fiveeighths;
layers = (
{
layerId = m01;
shapes = (
{
closed = 1;
nodes = (
(128,0,l),
(772,700,l),
(687,700,l),
(43,0,l)
);
},
{
closed = 1;
nodes = (
(225,342,o),
(294,383,o),
(335,454,o),
(335,496,qs),
(335,538,o),
(284,592,o),
(238,592,qs),
(198,592,o),
(169,571,q),
(194,638,l),
(339,638,l),
(350,700,l),
(152,700,l),
(85,496,l),
(152,496,l),
(163,514,o),
(197,534,o),
(218,534,qs),
(240,534,o),
(265,507,o),
(265,484,qs),
(265,452,o),
(224,404,o),
(194,404,qs),
(171,404,o),
(143,430,o),
(142,450,q),
(72,450,l),
(67,402,o),
(126,342,o),
(183,342,qs)
);
},
{
closed = 1;
nodes = (
(618,-5,o),
(696,65,o),
(696,116,qs),
(696,169,o),
(650,190,q),
(714,219,o),
(714,276,qs),
(714,313,o),
(662,358,o),
(615,358,qs),
(557,358,o),
(478,300,o),
(478,252,qs),
(478,213,o),
(518,190,q),
(483,177,o),
(443,121,o),
(443,87,qs),
(443,47,o),
(500,-5,o),
(553,-5,qs)
);
},
{
closed = 1;
nodes = (
(540,54,o),
(512,78,o),
(512,98,qs),
(512,126,o),
(553,158,o),
(579,158,qs),
(601,158,o),
(628,135,o),
(628,115,qs),
(628,87,o),
(588,54,o),
(562,54,qs)
);
},
{
closed = 1;
nodes = (
(570,210,o),
(547,231,o),
(547,249,qs),
(547,271,o),
(580,300,o),
(603,300,qs),
(622,300,o),
(644,279,o),
(644,262,qs),
(644,240,o),
(611,210,o),
(589,210,qs)
);
}
);
userData = {
assembly = "NPUSHB[ ]	/* 11 values pushed */
25 1 4 8 50 40 2 12 15 2 76
MPPEM[ ]	/* MeasurePixelPerEm */
PUSHB[ ]	/* 1 value pushed */
27
LT[ ]	/* LessThan */
IF[ ]	/* If */
NPUSHB[ ]	/* 73 values pushed */
0 5 4 2 4 5 2 128 0 2 3 3 2 112 0 8 0 4 5 8 4 105 0 3 16 1 9 14 3 9 106 0 10 0 14 15 10 14 105 19 1 15 0 12 13 15 12 105 0 7 7 0 95 6 1 0 0 33 77 18 1 13 13 1 97 17 11 2 1 1 34 1 78
ELSE[ ]	/* Else */
MPPEM[ ]	/* MeasurePixelPerEm */
PUSHB[ ]	/* 1 value pushed */
46
LT[ ]	/* LessThan */
IF[ ]	/* If */
NPUSHB[ ]	/* 74 values pushed */
0 5 4 2 4 5 2 128 0 2 3 4 2 3 126 0 8 0 4 5 8 4 105 0 3 16 1 9 14 3 9 106 0 10 0 14 15 10 14 105 19 1 15 0 12 13 15 12 105 0 7 7 0 95 6 1 0 0 33 77 18 1 13 13 1 97 17 11 2 1 1 34 1 78
ELSE[ ]	/* Else */
NPUSHB[ ]	/* 78 values pushed */
0 5 4 2 4 5 2 128 0 2 3 4 2 3 126 0 8 0 4 5 8 4 105 0 3 16 1 9 14 3 9 106 0 10 0 14 15 10 14 105 19 1 15 0 12 13 15 12 105 0 7 7 0 95 6 1 0 0 33 77 0 1 1 34 77 18 1 13 13 11 97 17 1 11 11 34 11 78
EIF[ ]	/* EndIf */
EIF[ ]	/* EndIf */
NPUSHB[ ]	/* 42 values pushed */
68 68 56 56 35 35 4 4 68 79 68 78 74 72 56 67 56 66 62 60 35 55 35 54 46 44 4 34 4 33 34 17 17 18 36 34 19 17 16 20 8 31
CALL[ ]	/* CallFunction */";
};
width = 755;
}
);
note = fiveeighths;
unicode = 8541;
},
{
glyphname = seveneighths;
layers = (
{
layerId = m01;
shapes = (
{
closed = 1;
nodes = (
(95,0,l),
(739,700,l),
(654,700,l),
(10,0,l)
);
},
{
closed = 1;
nodes = (
(188,347,l),
(381,650,l),
(390,700,l),
(130,700,l),
(119,638,l),
(303,638,l),
(114,347,l)
);
},
{
closed = 1;
nodes = (
(596,-5,o),
(674,65,o),
(674,116,qs),
(674,169,o),
(628,190,q),
(692,219,o),
(692,276,qs),
(692,313,o),
(640,358,o),
(593,358,qs),
(535,358,o),
(456,300,o),
(456,252,qs),
(456,213,o),
(496,190,q),
(461,177,o),
(421,121,o),
(421,87,qs),
(421,47,o),
(478,-5,o),
(531,-5,qs)
);
},
{
closed = 1;
nodes = (
(518,54,o),
(490,78,o),
(490,98,qs),
(490,126,o),
(531,158,o),
(557,158,qs),
(579,158,o),
(606,135,o),
(606,115,qs),
(606,87,o),
(566,54,o),
(540,54,qs)
);
},
{
closed = 1;
nodes = (
(548,210,o),
(525,231,o),
(525,249,qs),
(525,271,o),
(558,300,o),
(581,300,qs),
(600,300,o),
(622,279,o),
(622,262,qs),
(622,240,o),
(589,210,o),
(567,210,qs)
);
}
);
userData = {
assembly = "PUSHB[ ]	/* 7 values pushed */
26 16 2 7 10 1 76
MPPEM[ ]	/* MeasurePixelPerEm */
PUSHB[ ]	/* 1 value pushed */
46
LT[ ]	/* LessThan */
IF[ ]	/* If */
NPUSHB[ ]	/* 50 values pushed */
0 4 5 9 5 4 9 128 0 5 0 9 10 5 9 105 13 1 10 0 7 8 10 7 105 0 2 2 0 95 3 1 0 0 33 77 12 1 8 8 1 97 11 6 2 1 1 34 1 78
ELSE[ ]	/* Else */
NPUSHB[ ]	/* 54 values pushed */
0 4 5 9 5 4 9 128 0 5 0 9 10 5 9 105 13 1 10 0 7 8 10 7 105 0 2 2 0 95 3 1 0 0 33 77 0 1 1 34 77 12 1 8 8 6 97 11 1 6 6 34 6 78
EIF[ ]	/* EndIf */
NPUSHB[ ]	/* 31 values pushed */
44 44 32 32 11 11 44 55 44 54 50 48 32 43 32 42 38 36 11 31 11 30 42 18 17 17 17 16 14 8 28
CALL[ ]	/* CallFunction */";
};
width = 731;
}
);
note = seveneighths;
unicode = 8542;
},
{
glyphname = uni2080;
layers = (
{
layerId = m01;
shapes = (
{
closed = 1;
nodes = (
(175,-5,o),
(252,76,o),
(284,188,o),
(284,237,qs),
(284,294,o),
(232,358,o),
(177,358,qs),
(116,358,o),
(39,279,o),
(6,168,o),
(6,118,qs),
(6,61,o),
(57,-5,o),
(113,-5,qs)
);
},
{
closed = 1;
nodes = (
(78,59,o),
(78,127,qs),
(78,156,o),
(95,235,o),
(135,295,o),
(166,295,qs),
(211,295,o),
(211,228,qs),
(211,198,o),
(194,118,o),
(155,59,o),
(124,59,qs)
);
}
);
userData = {
assembly = "NPUSHB[ ]	/* 41 values pushed */
0 2 2 0 97 0 0 0 51 77 5 1 3 3 1 97 4 1 1 1 52 1 78 14 14 0 0 14 25 14 24 20 18 0 13 0 12 37 6 9 23
CALL[ ]	/* CallFunction */";
};
width = 315;
}
);
note = uni2080;
unicode = 8320;
},
{
glyphname = uni2081;
layers = (
{
layerId = m01;
shapes = (
{
closed = 1;
nodes = (
(234,0,l),
(245,62,l),
(163,62,l),
(215,353,l),
(178,353,l),
(50,309,l),
(40,254,l),
(133,274,l),
(96,62,l),
(3,62,l),
(-8,0,l)
);
}
);
userData = {
assembly = "NPUSHB[ ]	/* 31 values pushed */
3 2 2 0 1 1 76 0 1 1 49 77 2 1 0 0 3 96 0 3 3 50 3 78 17 17 20 16 4 9 26
CALL[ ]	/* CallFunction */";
};
width = 306;
}
);
note = uni2081;
unicode = 8321;
},
{
glyphname = uni2082;
layers = (
{
layerId = m01;
shapes = (
{
closed = 1;
nodes = (
(229,0,l),
(240,62,l),
(92,62,l),
(158,118,ls),
(201,155,o),
(238,188,o),
(269,240,o),
(269,270,qs),
(269,307,o),
(219,358,o),
(169,358,qs),
(115,358,o),
(38,297,o),
(26,240,q),
(96,240,l),
(100,265,o),
(132,298,o),
(157,298,qs),
(176,298,o),
(198,278,o),
(198,261,qs),
(198,239,o),
(158,194,o),
(117,158,qs),
(100,143,l),
(-8,50,l),
(-16,0,l)
);
}
);
userData = {
assembly = "NPUSHB[ ]	/* 37 values pushed */
0 1 0 3 0 1 3 128 0 0 0 2 97 0 2 2 51 77 0 3 3 4 95 0 4 4 50 4 78 17 23 34 18 39 5 9 27
CALL[ ]	/* CallFunction */";
};
width = 302;
}
);
note = uni2082;
unicode = 8322;
},
{
glyphname = uni2083;
layers = (
{
layerId = m01;
shapes = (
{
closed = 1;
nodes = (
(157,-5,o),
(225,34,o),
(260,99,o),
(260,135,qs),
(260,169,o),
(220,215,o),
(183,221,q),
(279,296,l),
(289,353,l),
(57,353,l),
(46,292,l),
(187,292,l),
(71,202,l),
(102,156,l),
(124,167,o),
(141,167,qs),
(163,167,o),
(190,145,o),
(190,125,qs),
(190,96,o),
(153,57,o),
(121,57,qs),
(97,57,o),
(71,80,o),
(71,100,qs),
(71,107,o),
(72,111,q),
(3,111,l),
(1,95,o),
(1,87,qs),
(1,43,o),
(59,-5,o),
(110,-5,qs)
);
}
);
userData = {
assembly = "NPUSHB[ ]	/* 16 values pushed */
25 19 2 2 3 18 1 0 2 7 2 2 1 0 3 76
MPPEM[ ]	/* MeasurePixelPerEm */
PUSHB[ ]	/* 1 value pushed */
10
LT[ ]	/* LessThan */
IF[ ]	/* If */
NPUSHB[ ]	/* 35 values pushed */
0 2 3 0 3 2 114 0 0 1 1 0 112 0 3 3 4 95 0 4 4 49 77 0 1 1 5 98 6 1 5 5 52 5 78
ELSE[ ]	/* Else */
MPPEM[ ]	/* MeasurePixelPerEm */
PUSHB[ ]	/* 1 value pushed */
24
LT[ ]	/* LessThan */
IF[ ]	/* If */
NPUSHB[ ]	/* 36 values pushed */
0 2 3 0 3 2 0 128 0 0 1 1 0 112 0 3 3 4 95 0 4 4 49 77 0 1 1 5 98 6 1 5 5 52 5 78
ELSE[ ]	/* Else */
NPUSHB[ ]	/* 37 values pushed */
0 2 3 0 3 2 0 128 0 0 1 3 0 1 126 0 3 3 4 95 0 4 4 49 77 0 1 1 5 98 6 1 5 5 52 5 78
EIF[ ]	/* EndIf */
EIF[ ]	/* EndIf */
NPUSHB[ ]	/* 14 values pushed */
0 0 0 32 0 31 17 19 36 36 20 7 9 27
CALL[ ]	/* CallFunction */";
};
width = 309;
}
);
note = uni2083;
unicode = 8323;
},
{
glyphname = uni2084;
layers = (
{
layerId = m01;
shapes = (
{
closed = 1;
nodes = (
(205,0,l),
(216,65,l),
(256,65,l),
(268,127,l),
(228,127,l),
(243,213,l),
(176,213,l),
(161,127,l),
(71,127,l),
(223,353,l),
(152,353,l),
(-7,120,l),
(-17,65,l),
(146,65,l),
(134,0,l)
);
}
);
userData = {
assembly = "MPPEM[ ]	/* MeasurePixelPerEm */
PUSHB[ ]	/* 1 value pushed */
15
LT[ ]	/* LessThan */
IF[ ]	/* If */
NPUSHB[ ]	/* 28 values pushed */
0 3 1 2 2 3 114 4 1 2 5 1 0 6 2 0 104 0 1 1 49 77 0 6 6 50 6 78
ELSE[ ]	/* Else */
NPUSHB[ ]	/* 29 values pushed */
0 3 1 2 1 3 2 128 4 1 2 5 1 0 6 2 0 104 0 1 1 49 77 0 6 6 50 6 78
EIF[ ]	/* EndIf */
NPUSHB[ ]	/* 10 values pushed */
17 17 17 17 17 18 16 7 9 29
CALL[ ]	/* CallFunction */";
};
width = 299;
}
);
note = uni2084;
unicode = 8324;
},
{
glyphname = uni2085;
layers = (
{
layerId = m01;
shapes = (
{
closed = 1;
nodes = (
(147,-5,o),
(218,36,o),
(259,107,o),
(259,149,qs),
(259,191,o),
(208,245,o),
(162,245,qs),
(122,245,o),
(93,224,q),
(118,291,l),
(262,291,l),
(274,353,l),
(76,353,l),
(9,149,l),
(76,149,l),
(87,167,o),
(120,187,o),
(141,187,qs),
(163,187,o),
(189,160,o),
(189,137,qs),
(189,105,o),
(148,57,o),
(117,57,qs),
(94,57,o),
(66,83,o),
(66,103,q),
(-4,103,l),
(-9,55,o),
(49,-5,o),
(106,-5,qs)
);
}
);
userData = {
assembly = "PUSHB[ ]	/* 6 values pushed */
21 1 2 6 1 76
MPPEM[ ]	/* MeasurePixelPerEm */
PUSHB[ ]	/* 1 value pushed */
27
LT[ ]	/* LessThan */
IF[ ]	/* If */
NPUSHB[ ]	/* 44 values pushed */
0 3 2 0 2 3 0 128 0 0 1 1 0 112 0 6 0 2 3 6 2 105 0 5 5 4 95 0 4 4 49 77 0 1 1 7 98 8 1 7 7 52 7 78
ELSE[ ]	/* Else */
NPUSHB[ ]	/* 45 values pushed */
0 3 2 0 2 3 0 128 0 0 1 2 0 1 126 0 6 0 2 3 6 2 105 0 5 5 4 95 0 4 4 49 77 0 1 1 7 98 8 1 7 7 52 7 78
EIF[ ]	/* EndIf */
NPUSHB[ ]	/* 16 values pushed */
0 0 0 30 0 29 34 17 17 18 36 34 18 9 9 29
CALL[ ]	/* CallFunction */";
};
width = 303;
}
);
note = uni2085;
unicode = 8325;
},
{
glyphname = uni2086;
layers = (
{
layerId = m01;
shapes = (
{
closed = 1;
nodes = (
(155,-5,o),
(220,36,o),
(258,103,o),
(258,139,qs),
(258,180,o),
(207,231,o),
(168,231,qs),
(145,231,o),
(101,210,o),
(85,192,q),
(96,242,o),
(138,299,o),
(168,299,qs),
(207,299,o),
(209,256,q),
(274,256,l),
(277,301,o),
(226,358,o),
(178,358,qs),
(124,358,o),
(46,283,o),
(6,171,o),
(6,118,qs),
(6,62,o),
(60,-5,o),
(116,-5,qs)
);
},
{
closed = 1;
nodes = (
(103,57,o),
(78,82,o),
(78,102,qs),
(78,129,o),
(117,170,o),
(143,170,qs),
(164,170,o),
(188,146,o),
(188,126,qs),
(188,98,o),
(152,57,o),
(124,57,qs)
);
}
);
userData = {
assembly = "PUSHB[ ]	/* 6 values pushed */
15 1 5 3 1 76
MPPEM[ ]	/* MeasurePixelPerEm */
PUSHB[ ]	/* 1 value pushed */
29
LT[ ]	/* LessThan */
IF[ ]	/* If */
NPUSHB[ ]	/* 38 values pushed */
0 1 2 3 2 1 114 0 3 0 5 6 3 5 105 0 2 2 0 97 0 0 0 51 77 8 1 6 6 4 97 7 1 4 4 52 4 78
ELSE[ ]	/* Else */
NPUSHB[ ]	/* 39 values pushed */
0 1 2 3 2 1 3 128 0 3 0 5 6 3 5 105 0 2 2 0 97 0 0 0 51 77 8 1 6 6 4 97 7 1 4 4 52 4 78
EIF[ ]	/* EndIf */
NPUSHB[ ]	/* 21 values pushed */
26 26 0 0 26 37 26 36 32 30 0 25 0 24 36 33 18 37 9 9 26
CALL[ ]	/* CallFunction */";
};
width = 303;
}
);
note = uni2086;
unicode = 8326;
},
{
glyphname = uni2087;
layers = (
{
layerId = m01;
shapes = (
{
closed = 1;
nodes = (
(101,0,l),
(294,303,l),
(303,353,l),
(43,353,l),
(32,291,l),
(215,291,l),
(27,0,l)
);
}
);
userData = {
assembly = "NPUSHB[ ]	/* 22 values pushed */
0 0 0 1 95 0 1 1 49 77 0 2 2 50 2 78 18 17 16 3 9 25
CALL[ ]	/* CallFunction */";
};
width = 308;
}
);
note = uni2087;
unicode = 8327;
},
{
glyphname = uni2088;
layers = (
{
layerId = m01;
shapes = (
{
closed = 1;
nodes = (
(172,-5,o),
(250,65,o),
(250,116,qs),
(250,169,o),
(204,190,q),
(268,219,o),
(268,276,qs),
(268,313,o),
(216,358,o),
(169,358,qs),
(111,358,o),
(32,300,o),
(32,252,qs),
(32,213,o),
(72,190,q),
(37,177,o),
(-3,121,o),
(-3,87,qs),
(-3,47,o),
(54,-5,o),
(107,-5,qs)
);
},
{
closed = 1;
nodes = (
(94,54,o),
(66,78,o),
(66,98,qs),
(66,126,o),
(107,158,o),
(133,158,qs),
(155,158,o),
(182,135,o),
(182,115,qs),
(182,87,o),
(142,54,o),
(116,54,qs)
);
},
{
closed = 1;
nodes = (
(124,210,o),
(101,231,o),
(101,249,qs),
(101,271,o),
(134,300,o),
(157,300,qs),
(176,300,o),
(198,279,o),
(198,262,qs),
(198,240,o),
(165,210,o),
(143,210,qs)
);
}
);
userData = {
assembly = "NPUSHB[ ]	/* 65 values pushed */
15 5 2 2 5 1 76 8 1 5 0 2 3 5 2 105 0 4 4 0 97 0 0 0 51 77 7 1 3 3 1 97 6 1 1 1 52 1 78 33 33 21 21 0 0 33 44 33 43 39 37 21 32 21 31 27 25 0 20 0 19 41 9 9 23
CALL[ ]	/* CallFunction */";
};
width = 299;
}
);
note = uni2088;
unicode = 8328;
},
{
glyphname = uni2089;
layers = (
{
layerId = m01;
shapes = (
{
closed = 1;
nodes = (
(154,-5,o),
(232,71,o),
(272,183,o),
(272,236,qs),
(272,291,o),
(218,358,o),
(162,358,qs),
(123,358,o),
(58,317,o),
(20,251,o),
(20,217,qs),
(20,176,o),
(69,123,o),
(110,123,qs),
(133,123,o),
(178,144,o),
(194,161,q),
(183,111,o),
(141,55,o),
(111,55,qs),
(72,55,o),
(70,99,q),
(5,99,l),
(2,52,o),
(52,-5,o),
(100,-5,qs)
);
},
{
closed = 1;
nodes = (
(115,184,o),
(90,208,o),
(90,228,qs),
(90,256,o),
(127,297,o),
(155,297,qs),
(175,297,o),
(201,271,o),
(201,251,qs),
(201,225,o),
(162,184,o),
(136,184,qs)
);
}
);
userData = {
assembly = "PUSHB[ ]	/* 6 values pushed */
8 1 2 6 1 76
MPPEM[ ]	/* MeasurePixelPerEm */
PUSHB[ ]	/* 1 value pushed */
29
LT[ ]	/* LessThan */
IF[ ]	/* If */
NPUSHB[ ]	/* 38 values pushed */
0 0 2 1 1 0 114 8 1 6 0 2 0 6 2 105 0 5 5 3 97 0 3 3 51 77 0 1 1 4 98 7 1 4 4 52 4 78
ELSE[ ]	/* Else */
NPUSHB[ ]	/* 39 values pushed */
0 0 2 1 2 0 1 128 8 1 6 0 2 0 6 2 105 0 5 5 3 97 0 3 3 51 77 0 1 1 4 98 7 1 4 4 52 4 78
EIF[ ]	/* EndIf */
NPUSHB[ ]	/* 21 values pushed */
26 26 0 0 26 37 26 36 32 30 0 25 0 24 37 36 33 18 9 9 26
CALL[ ]	/* CallFunction */";
};
width = 303;
}
);
note = uni2089;
unicode = 8329;
},
{
glyphname = uni2070;
layers = (
{
layerId = m01;
shapes = (
{
closed = 1;
nodes = (
(236,342,o),
(313,422,o),
(345,534,o),
(345,584,qs),
(345,641,o),
(294,705,o),
(238,705,qs),
(177,705,o),
(100,625,o),
(67,514,o),
(67,465,qs),
(67,408,o),
(119,342,o),
(174,342,qs)
);
},
{
closed = 1;
nodes = (
(164,406,o),
(139,439,o),
(139,473,qs),
(139,503,o),
(156,582,o),
(195,642,o),
(227,642,qs),
(273,642,o),
(273,574,qs),
(273,544,o),
(256,465,o),
(216,406,o),
(185,406,qs)
);
}
);
userData = {
assembly = "NPUSHB[ ]	/* 41 values pushed */
0 2 2 0 97 0 0 0 59 77 5 1 3 3 1 97 4 1 1 1 60 1 78 14 14 0 0 14 26 14 25 20 18 0 13 0 12 37 6 10 23
CALL[ ]	/* CallFunction */";
};
width = 315;
}
);
note = uni2070;
unicode = 8304;
},
{
glyphname = uni00B9;
layers = (
{
layerId = m01;
shapes = (
{
closed = 1;
nodes = (
(295,347,l),
(306,409,l),
(224,409,l),
(276,700,l),
(239,700,l),
(111,656,l),
(101,601,l),
(195,621,l),
(157,409,l),
(64,409,l),
(53,347,l)
);
}
);
userData = {
assembly = "NPUSHB[ ]	/* 31 values pushed */
3 2 2 0 1 1 76 0 1 1 57 77 2 1 0 0 3 96 0 3 3 58 3 78 17 17 20 16 4 10 26
CALL[ ]	/* CallFunction */";
};
width = 301;
}
);
note = uni00B9;
unicode = 185;
},
{
glyphname = uni00B2;
layers = (
{
layerId = m01;
shapes = (
{
closed = 1;
nodes = (
(290,347,l),
(301,409,l),
(153,409,l),
(219,465,ls),
(262,502,o),
(299,535,o),
(330,587,o),
(330,617,qs),
(330,654,o),
(280,705,o),
(230,705,qs),
(176,705,o),
(99,644,o),
(87,587,q),
(157,587,l),
(161,612,o),
(193,645,o),
(218,645,qs),
(237,645,o),
(259,625,o),
(259,608,qs),
(259,586,o),
(219,541,o),
(178,505,qs),
(161,490,l),
(53,397,l),
(45,347,l)
);
}
);
userData = {
assembly = "NPUSHB[ ]	/* 37 values pushed */
0 1 0 3 0 1 3 128 0 0 0 2 97 0 2 2 59 77 0 3 3 4 95 0 4 4 58 4 78 17 23 34 18 39 5 10 27
CALL[ ]	/* CallFunction */";
};
width = 302;
}
);
note = uni00B2;
unicode = 178;
},
{
glyphname = uni00B3;
layers = (
{
layerId = m01;
shapes = (
{
closed = 1;
nodes = (
(218,342,o),
(286,381,o),
(321,446,o),
(321,482,qs),
(321,516,o),
(281,562,o),
(244,568,q),
(340,643,l),
(350,700,l),
(118,700,l),
(107,639,l),
(248,639,l),
(132,549,l),
(163,503,l),
(185,514,o),
(202,514,qs),
(224,514,o),
(251,492,o),
(251,472,qs),
(251,443,o),
(214,404,o),
(182,404,qs),
(158,404,o),
(132,427,o),
(132,447,qs),
(132,454,o),
(133,458,q),
(64,458,l),
(62,442,o),
(62,434,qs),
(62,390,o),
(120,342,o),
(171,342,qs)
);
}
);
userData = {
assembly = "NPUSHB[ ]	/* 16 values pushed */
25 19 2 2 3 18 1 0 2 7 2 2 1 0 3 76
MPPEM[ ]	/* MeasurePixelPerEm */
PUSHB[ ]	/* 1 value pushed */
10
LT[ ]	/* LessThan */
IF[ ]	/* If */
NPUSHB[ ]	/* 35 values pushed */
0 2 3 0 3 2 114 0 0 1 1 0 112 0 3 3 4 95 0 4 4 57 77 0 1 1 5 98 6 1 5 5 60 5 78
ELSE[ ]	/* Else */
MPPEM[ ]	/* MeasurePixelPerEm */
PUSHB[ ]	/* 1 value pushed */
24
LT[ ]	/* LessThan */
IF[ ]	/* If */
NPUSHB[ ]	/* 36 values pushed */
0 2 3 0 3 2 0 128 0 0 1 1 0 112 0 3 3 4 95 0 4 4 57 77 0 1 1 5 98 6 1 5 5 60 5 78
ELSE[ ]	/* Else */
NPUSHB[ ]	/* 37 values pushed */
0 2 3 0 3 2 0 128 0 0 1 3 0 1 126 0 3 3 4 95 0 4 4 57 77 0 1 1 5 98 6 1 5 5 60 5 78
EIF[ ]	/* EndIf */
EIF[ ]	/* EndIf */
NPUSHB[ ]	/* 14 values pushed */
0 0 0 32 0 31 17 19 36 36 20 7 10 27
CALL[ ]	/* CallFunction */";
};
width = 309;
}
);
note = uni00B3;
unicode = 179;
},
{
glyphname = uni2074;
layers = (
{
layerId = m01;
shapes = (
{
closed = 1;
nodes = (
(266,347,l),
(278,412,l),
(318,412,l),
(329,474,l),
(289,474,l),
(304,560,l),
(238,560,l),
(223,474,l),
(133,474,l),
(284,700,l),
(213,700,l),
(54,467,l),
(44,412,l),
(207,412,l),
(196,347,l)
);
}
);
userData = {
assembly = "MPPEM[ ]	/* MeasurePixelPerEm */
PUSHB[ ]	/* 1 value pushed */
15
LT[ ]	/* LessThan */
IF[ ]	/* If */
NPUSHB[ ]	/* 28 values pushed */
0 3 1 2 2 3 114 4 1 2 5 1 0 6 2 0 104 0 1 1 57 77 0 6 6 58 6 78
ELSE[ ]	/* Else */
NPUSHB[ ]	/* 29 values pushed */
0 3 1 2 1 3 2 128 4 1 2 5 1 0 6 2 0 104 0 1 1 57 77 0 6 6 58 6 78
EIF[ ]	/* EndIf */
NPUSHB[ ]	/* 10 values pushed */
17 17 17 17 17 18 16 7 10 29
CALL[ ]	/* CallFunction */";
};
width = 300;
}
);
note = uni2074;
unicode = 8308;
},
{
glyphname = uni2075;
layers = (
{
layerId = m01;
shapes = (
{
closed = 1;
nodes = (
(210,342,o),
(279,383,o),
(320,454,o),
(320,496,qs),
(320,538,o),
(269,592,o),
(223,592,qs),
(183,592,o),
(154,571,q),
(179,638,l),
(324,638,l),
(335,700,l),
(137,700,l),
(70,496,l),
(137,496,l),
(148,514,o),
(182,534,o),
(203,534,qs),
(225,534,o),
(250,507,o),
(250,484,qs),
(250,452,o),
(209,404,o),
(179,404,qs),
(156,404,o),
(128,430,o),
(127,450,q),
(57,450,l),
(52,402,o),
(111,342,o),
(168,342,qs)
);
}
);
userData = {
assembly = "PUSHB[ ]	/* 6 values pushed */
21 1 2 6 1 76
MPPEM[ ]	/* MeasurePixelPerEm */
PUSHB[ ]	/* 1 value pushed */
27
LT[ ]	/* LessThan */
IF[ ]	/* If */
NPUSHB[ ]	/* 44 values pushed */
0 3 2 0 2 3 0 128 0 0 1 1 0 112 0 6 0 2 3 6 2 105 0 5 5 4 95 0 4 4 57 77 0 1 1 7 98 8 1 7 7 60 7 78
ELSE[ ]	/* Else */
NPUSHB[ ]	/* 45 values pushed */
0 3 2 0 2 3 0 128 0 0 1 2 0 1 126 0 6 0 2 3 6 2 105 0 5 5 4 95 0 4 4 57 77 0 1 1 7 98 8 1 7 7 60 7 78
EIF[ ]	/* EndIf */
NPUSHB[ ]	/* 16 values pushed */
0 0 0 30 0 29 34 17 17 18 36 34 18 9 10 29
CALL[ ]	/* CallFunction */";
};
width = 303;
}
);
note = uni2075;
unicode = 8309;
},
{
glyphname = uni2076;
layers = (
{
layerId = m01;
shapes = (
{
closed = 1;
nodes = (
(216,342,o),
(280,383,o),
(318,450,o),
(318,485,qs),
(318,527,o),
(268,578,o),
(229,578,qs),
(206,578,o),
(161,557,o),
(145,539,q),
(156,589,o),
(198,646,o),
(228,646,qs),
(267,646,o),
(269,603,q),
(334,603,l),
(337,649,o),
(287,705,o),
(239,705,qs),
(185,705,o),
(107,629,o),
(67,517,o),
(67,465,qs),
(67,409,o),
(121,342,o),
(177,342,qs)
);
},
{
closed = 1;
nodes = (
(164,404,o),
(138,429,o),
(138,449,qs),
(138,476,o),
(177,517,o),
(203,517,qs),
(224,517,o),
(249,493,o),
(249,472,qs),
(249,445,o),
(212,404,o),
(184,404,qs)
);
}
);
userData = {
assembly = "PUSHB[ ]	/* 6 values pushed */
15 1 5 3 1 76
MPPEM[ ]	/* MeasurePixelPerEm */
PUSHB[ ]	/* 1 value pushed */
29
LT[ ]	/* LessThan */
IF[ ]	/* If */
NPUSHB[ ]	/* 38 values pushed */
0 1 2 3 2 1 114 0 3 0 5 6 3 5 105 0 2 2 0 97 0 0 0 59 77 8 1 6 6 4 97 7 1 4 4 60 4 78
ELSE[ ]	/* Else */
NPUSHB[ ]	/* 39 values pushed */
0 1 2 3 2 1 3 128 0 3 0 5 6 3 5 105 0 2 2 0 97 0 0 0 59 77 8 1 6 6 4 97 7 1 4 4 60 4 78
EIF[ ]	/* EndIf */
NPUSHB[ ]	/* 21 values pushed */
26 26 0 0 26 37 26 36 32 30 0 25 0 24 36 33 18 37 9 10 26
CALL[ ]	/* CallFunction */";
};
width = 303;
}
);
note = uni2076;
unicode = 8310;
},
{
glyphname = uni2077;
layers = (
{
layerId = m01;
shapes = (
{
closed = 1;
nodes = (
(162,347,l),
(355,650,l),
(364,700,l),
(104,700,l),
(93,638,l),
(277,638,l),
(88,347,l)
);
}
);
userData = {
assembly = "NPUSHB[ ]	/* 22 values pushed */
0 0 0 1 95 0 1 1 57 77 0 2 2 58 2 78 18 17 16 3 10 25
CALL[ ]	/* CallFunction */";
};
width = 308;
}
);
note = uni2077;
unicode = 8311;
},
{
glyphname = uni2078;
layers = (
{
layerId = m01;
shapes = (
{
closed = 1;
nodes = (
(233,342,o),
(312,413,o),
(312,463,qs),
(312,515,o),
(266,537,q),
(330,567,o),
(330,623,qs),
(330,660,o),
(277,705,o),
(230,705,qs),
(172,705,o),
(94,647,o),
(94,599,qs),
(94,560,o),
(133,537,q),
(99,524,o),
(58,468,o),
(58,434,qs),
(58,394,o),
(116,342,o),
(169,342,qs)
);
},
{
closed = 1;
nodes = (
(156,401,o),
(128,425,o),
(128,445,qs),
(128,473,o),
(169,505,o),
(194,505,qs),
(217,505,o),
(243,482,o),
(243,462,qs),
(243,434,o),
(203,401,o),
(178,401,qs)
);
},
{
closed = 1;
nodes = (
(185,557,o),
(162,578,o),
(162,596,qs),
(162,618,o),
(195,647,o),
(219,647,qs),
(238,647,o),
(260,626,o),
(260,609,qs),
(260,587,o),
(227,557,o),
(205,557,qs)
);
}
);
userData = {
assembly = "NPUSHB[ ]	/* 65 values pushed */
15 5 2 2 5 1 76 8 1 5 0 2 3 5 2 105 0 4 4 0 97 0 0 0 59 77 7 1 3 3 1 97 6 1 1 1 60 1 78 33 33 21 21 0 0 33 44 33 43 39 37 21 32 21 31 27 25 0 20 0 19 41 9 10 23
CALL[ ]	/* CallFunction */";
};
width = 299;
}
);
note = uni2078;
unicode = 8312;
},
{
glyphname = uni2079;
layers = (
{
layerId = m01;
shapes = (
{
closed = 1;
nodes = (
(216,342,o),
(294,417,o),
(334,528,o),
(334,582,qs),
(334,638,o),
(280,705,o),
(224,705,qs),
(185,705,o),
(120,664,o),
(82,598,o),
(82,563,qs),
(82,523,o),
(130,470,o),
(171,470,qs),
(194,470,o),
(239,491,o),
(255,508,q),
(244,458,o),
(202,402,o),
(172,402,qs),
(133,402,o),
(131,446,q),
(66,446,l),
(63,399,o),
(114,342,o),
(162,342,qs)
);
},
{
closed = 1;
nodes = (
(176,531,o),
(152,555,o),
(152,575,qs),
(152,603,o),
(188,644,o),
(216,644,qs),
(237,644,o),
(262,619,o),
(262,599,qs),
(262,571,o),
(223,531,o),
(197,531,qs)
);
}
);
userData = {
assembly = "PUSHB[ ]	/* 6 values pushed */
8 1 2 6 1 76
MPPEM[ ]	/* MeasurePixelPerEm */
PUSHB[ ]	/* 1 value pushed */
29
LT[ ]	/* LessThan */
IF[ ]	/* If */
NPUSHB[ ]	/* 38 values pushed */
0 0 2 1 1 0 114 8 1 6 0 2 0 6 2 105 0 5 5 3 97 0 3 3 59 77 0 1 1 4 98 7 1 4 4 60 4 78
ELSE[ ]	/* Else */
NPUSHB[ ]	/* 39 values pushed */
0 0 2 1 2 0 1 128 8 1 6 0 2 0 6 2 105 0 5 5 3 97 0 3 3 59 77 0 1 1 4 98 7 1 4 4 60 4 78
EIF[ ]	/* EndIf */
NPUSHB[ ]	/* 21 values pushed */
26 26 0 0 26 37 26 36 32 30 0 25 0 24 37 36 33 18 9 10 26
CALL[ ]	/* CallFunction */";
};
width = 304;
}
);
note = uni2079;
unicode = 8313;
},
{
glyphname = period;
kernLeft = period;
kernRight = period;
layers = (
{
layerId = m01;
shapes = (
{
closed = 1;
nodes = (
(102,-8,o),
(142,33,o),
(142,62,qs),
(142,91,o),
(102,132,o),
(72,132,qs),
(42,132,o),
(2,91,o),
(2,62,qs),
(2,33,o),
(42,-8,o),
(72,-8,qs)
);
}
);
userData = {
assembly = "NPUSHB[ ]	/* 22 values pushed */
0 0 0 1 97 2 1 1 1 40 1 78 0 0 0 11 0 10 36 3 8 23
CALL[ ]	/* CallFunction */";
};
width = 209;
}
);
note = period;
unicode = 46;
},
{
glyphname = comma;
kernLeft = comma;
kernRight = comma;
layers = (
{
layerId = m01;
shapes = (
{
closed = 1;
nodes = (
(8,-117,l),
(142,118,l),
(36,118,l),
(-63,-117,l)
);
}
);
userData = {
assembly = "NPUSHB[ ]	/* 14 values pushed */
0 0 1 0 133 0 1 1 118 17 16 2 8 24
CALL[ ]	/* CallFunction */";
};
width = 195;
}
);
note = comma;
unicode = 44;
},
{
glyphname = colon;
kernLeft = colon;
kernRight = colon;
layers = (
{
layerId = m01;
shapes = (
{
closed = 1;
nodes = (
(169,370,o),
(209,411,o),
(209,440,qs),
(209,469,o),
(169,510,o),
(139,510,qs),
(109,510,o),
(69,469,o),
(69,440,qs),
(69,411,o),
(109,370,o),
(139,370,qs)
);
},
{
closed = 1;
nodes = (
(102,-8,o),
(142,33,o),
(142,62,qs),
(142,91,o),
(102,132,o),
(72,132,qs),
(42,132,o),
(2,91,o),
(2,62,qs),
(2,33,o),
(42,-8,o),
(72,-8,qs)
);
}
);
userData = {
assembly = "NPUSHB[ ]	/* 41 values pushed */
4 1 1 1 0 97 0 0 0 42 77 0 2 2 3 97 5 1 3 3 40 3 78 12 12 0 0 12 23 12 22 18 16 0 11 0 10 36 6 8 23
CALL[ ]	/* CallFunction */";
};
width = 211;
}
);
note = colon;
unicode = 58;
},
{
glyphname = semicolon;
kernLeft = semicolon;
kernRight = semicolon;
layers = (
{
layerId = m01;
shapes = (
{
closed = 1;
nodes = (
(22,-117,l),
(155,118,l),
(50,118,l),
(-49,-117,l)
);
},
{
closed = 1;
nodes = (
(194,370,o),
(234,411,o),
(234,440,qs),
(234,469,o),
(194,510,o),
(164,510,qs),
(134,510,o),
(94,469,o),
(94,440,qs),
(94,411,o),
(134,370,o),
(164,370,qs)
);
}
);
userData = {
assembly = "NPUSHB[ ]	/* 36 values pushed */
0 0 3 1 3 0 1 128 0 1 1 132 4 1 3 3 2 97 0 2 2 42 3 78 4 4 4 15 4 14 37 17 16 5 8 25
CALL[ ]	/* CallFunction */";
};
width = 235;
}
);
note = semicolon;
unicode = 59;
},
{
glyphname = ellipsis;
kernLeft = period;
kernRight = period;
layers = (
{
layerId = m01;
shapes = (
{
closed = 1;
nodes = (
(508,-8,o),
(549,33,o),
(549,62,qs),
(549,91,o),
(508,132,o),
(479,132,qs),
(449,132,o),
(408,91,o),
(408,62,qs),
(408,33,o),
(449,-8,o),
(479,-8,qs)
);
},
{
closed = 1;
nodes = (
(103,-8,o),
(144,33,o),
(144,62,qs),
(144,91,o),
(103,132,o),
(74,132,qs),
(44,132,o),
(3,91,o),
(3,62,qs),
(3,33,o),
(44,-8,o),
(74,-8,qs)
);
},
{
closed = 1;
nodes = (
(306,-8,o),
(346,33,o),
(346,62,qs),
(346,91,o),
(306,132,o),
(276,132,qs),
(246,132,o),
(206,91,o),
(206,62,qs),
(206,33,o),
(246,-8,o),
(276,-8,qs)
);
}
);
userData = {
assembly = "NPUSHB[ ]	/* 44 values pushed */
4 2 2 0 0 1 97 8 5 7 3 6 5 1 1 40 1 78 24 24 12 12 0 0 24 35 24 34 30 28 12 23 12 22 18 16 0 11 0 10 36 9 8 23
CALL[ ]	/* CallFunction */";
};
width = 618;
}
);
note = ellipsis;
unicode = 8230;
},
{
glyphname = exclam;
layers = (
{
layerId = m01;
shapes = (
{
closed = 1;
nodes = (
(161,208,l),
(260,700,l),
(146,700,l),
(71,208,l)
);
},
{
closed = 1;
nodes = (
(129,-8,o),
(170,33,o),
(170,62,qs),
(170,91,o),
(129,132,o),
(100,132,qs),
(70,132,o),
(29,91,o),
(29,62,qs),
(29,33,o),
(70,-8,o),
(100,-8,qs)
);
}
);
userData = {
assembly = "NPUSHB[ ]	/* 34 values pushed */
0 1 1 0 95 0 0 0 33 77 0 2 2 3 97 4 1 3 3 40 3 78 4 4 4 15 4 14 37 17 16 5 8 25
CALL[ ]	/* CallFunction */";
};
width = 264;
}
);
note = exclam;
unicode = 33;
},
{
glyphname = exclamdown;
kernLeft = exclamdown;
kernRight = exclamdown;
layers = (
{
layerId = m01;
shapes = (
{
closed = 1;
nodes = (
(130,-141,l),
(205,352,l),
(115,352,l),
(16,-141,l)
);
},
{
closed = 1;
nodes = (
(206,428,o),
(247,469,o),
(247,498,qs),
(247,527,o),
(206,568,o),
(176,568,qs),
(147,568,o),
(106,527,o),
(106,498,qs),
(106,469,o),
(147,428,o),
(176,428,qs)
);
}
);
userData = {
assembly = "NPUSHB[ ]	/* 37 values pushed */
0 2 4 1 3 0 2 3 105 0 0 1 1 0 87 0 0 0 1 95 0 1 0 1 79 4 4 4 15 4 14 37 17 16 5 8 25
CALL[ ]	/* CallFunction */";
};
width = 265;
}
);
note = exclamdown;
unicode = 161;
},
{
glyphname = question;
kernLeft = question;
kernRight = question;
layers = (
{
layerId = m01;
shapes = (
{
closed = 1;
nodes = (
(220,207,l),
(240,299,l),
(323,299,o),
(385,327,qs),
(450,355,o),
(520,463,o),
(520,538,qs),
(520,618,o),
(416,712,o),
(328,712,qs),
(257,712,o),
(205,686,qs),
(149,660,o),
(78,568,o),
(68,508,q),
(168,508,l),
(178,561,o),
(255,624,o),
(312,624,qs),
(360,624,o),
(416,570,o),
(416,526,qs),
(416,465,o),
(387,433,qs),
(332,370,o),
(190,370,qs),
(153,370,l),
(128,207,l)
);
},
{
closed = 1;
nodes = (
(183,-8,o),
(223,33,o),
(223,62,qs),
(223,91,o),
(183,132,o),
(153,132,qs),
(123,132,o),
(83,91,o),
(83,62,qs),
(83,33,o),
(123,-8,o),
(153,-8,qs)
);
}
);
userData = {
assembly = "MPPEM[ ]	/* MeasurePixelPerEm */
PUSHB[ ]	/* 1 value pushed */
13
LT[ ]	/* LessThan */
IF[ ]	/* If */
NPUSHB[ ]	/* 45 values pushed */
0 2 1 0 1 2 0 128 0 5 4 6 4 5 114 0 0 0 4 5 0 4 105 0 1 1 3 97 0 3 3 39 77 0 6 6 7 97 8 1 7 7 40 7 78
ELSE[ ]	/* Else */
NPUSHB[ ]	/* 46 values pushed */
0 2 1 0 1 2 0 128 0 5 4 6 4 5 6 128 0 0 0 4 5 0 4 105 0 1 1 3 97 0 3 3 39 77 0 6 6 7 97 8 1 7 7 40 7 78
EIF[ ]	/* EndIf */
NPUSHB[ ]	/* 16 values pushed */
28 28 28 39 28 38 37 17 22 36 18 37 32 9 8 29
CALL[ ]	/* CallFunction */";
};
width = 512;
}
);
note = question;
unicode = 63;
},
{
glyphname = questiondown;
kernLeft = questiondown;
kernRight = questiondown;
layers = (
{
layerId = m01;
shapes = (
{
closed = 1;
nodes = (
(253,-160,o),
(363,-115,o),
(443,-23,o),
(454,44,q),
(354,44,l),
(344,-9,o),
(267,-71,o),
(210,-71,qs),
(162,-71,o),
(106,-18,o),
(106,26,qs),
(106,106,o),
(217,182,o),
(332,182,qs),
(369,182,l),
(394,345,l),
(302,345,l),
(282,254,l),
(211,253,o),
(84,207,o),
(2,100,o),
(2,15,qs),
(2,-66,o),
(106,-160,o),
(194,-160,qs)
);
},
{
closed = 1;
nodes = (
(399,421,o),
(439,462,o),
(439,491,qs),
(439,520,o),
(399,561,o),
(369,561,qs),
(339,561,o),
(299,520,o),
(299,491,qs),
(299,462,o),
(339,421,o),
(369,421,qs)
);
}
);
userData = {
assembly = "MPPEM[ ]	/* MeasurePixelPerEm */
PUSHB[ ]	/* 1 value pushed */
13
LT[ ]	/* LessThan */
IF[ ]	/* If */
NPUSHB[ ]	/* 49 values pushed */
0 1 7 0 0 1 114 0 4 2 3 2 4 3 128 0 6 9 1 7 1 6 7 105 0 0 0 2 4 0 2 106 0 3 5 5 3 89 0 3 3 5 97 8 1 5 3 5 81
ELSE[ ]	/* Else */
NPUSHB[ ]	/* 50 values pushed */
0 1 7 0 7 1 0 128 0 4 2 3 2 4 3 128 0 6 9 1 7 1 6 7 105 0 0 0 2 4 0 2 106 0 3 5 5 3 89 0 3 3 5 97 8 1 5 3 5 81
EIF[ ]	/* EndIf */
NPUSHB[ ]	/* 22 values pushed */
25 25 0 0 25 36 25 35 31 29 0 24 0 23 18 36 33 17 21 10 8 27
CALL[ ]	/* CallFunction */";
};
width = 512;
}
);
note = questiondown;
unicode = 191;
},
{
glyphname = periodcentered;
layers = (
{
layerId = m01;
shapes = (
{
closed = 1;
nodes = (
(151,270,o),
(191,311,o),
(191,340,qs),
(191,370,o),
(151,410,o),
(121,410,qs),
(91,410,o),
(51,370,o),
(51,340,qs),
(51,311,o),
(91,270,o),
(121,270,qs)
);
}
);
userData = {
assembly = "NPUSHB[ ]	/* 27 values pushed */
0 0 1 1 0 89 0 0 0 1 97 2 1 1 0 1 81 0 0 0 11 0 10 36 3 8 23
CALL[ ]	/* CallFunction */";
};
width = 209;
}
);
note = periodcentered;
unicode = 183;
},
{
glyphname = bullet;
layers = (
{
layerId = m01;
shapes = (
{
closed = 1;
nodes = (
(247,206,o),
(322,280,o),
(322,333,qs),
(322,387,o),
(247,462,o),
(193,462,qs),
(140,462,o),
(66,387,o),
(66,333,qs),
(66,299,o),
(100,240,o),
(159,206,o),
(193,206,qs)
);
}
);
userData = {
assembly = "NPUSHB[ ]	/* 27 values pushed */
0 0 1 1 0 89 0 0 0 1 97 2 1 1 0 1 81 0 0 0 12 0 11 37 3 8 23
CALL[ ]	/* CallFunction */";
};
width = 357;
}
);
note = bullet;
unicode = 8226;
},
{
glyphname = asterisk;
kernLeft = asterisk;
kernRight = asterisk;
layers = (
{
layerId = m01;
shapes = (
{
closed = 1;
nodes = (
(288,358,l),
(311,487,l),
(411,423,l),
(457,483,l),
(356,547,l),
(479,611,l),
(455,671,l),
(332,607,l),
(354,735,l),
(285,735,l),
(263,607,l),
(163,671,l),
(118,611,l),
(217,547,l),
(96,483,l),
(119,423,l),
(242,487,l),
(219,358,l)
);
}
);
userData = {
assembly = "NPUSHB[ ]	/* 39 values pushed */
15 14 13 12 11 10 9 6 5 4 3 2 1 13 1 0 1 76 0 0 1 1 0 87 0 0 0 1 95 0 1 0 1 79 24 23 2 8 24
CALL[ ]	/* CallFunction */";
};
width = 480;
}
);
note = asterisk;
unicode = 42;
},
{
glyphname = numbersign;
layers = (
{
layerId = m01;
shapes = (
{
closed = 1;
nodes = (
(191,0,l),
(264,186,l),
(466,186,l),
(393,0,l),
(494,0,l),
(566,186,l),
(726,186,l),
(743,281,l),
(603,281,l),
(664,436,l),
(819,436,l),
(835,530,l),
(701,530,l),
(773,715,l),
(673,715,l),
(600,530,l),
(399,530,l),
(470,715,l),
(370,715,l),
(298,530,l),
(129,530,l),
(113,436,l),
(261,436,l),
(201,281,l),
(38,281,l),
(21,186,l),
(164,186,l),
(91,0,l)
);
},
{
closed = 1;
nodes = (
(362,436,l),
(564,436,l),
(503,281,l),
(301,281,l)
);
}
);
userData = {
assembly = "MPPEM[ ]	/* MeasurePixelPerEm */
PUSHB[ ]	/* 1 value pushed */
33
LT[ ]	/* LessThan */
IF[ ]	/* If */
NPUSHB[ ]	/* 38 values pushed */
7 5 2 3 14 8 2 2 1 3 2 104 16 15 9 3 1 12 10 2 0 11 1 0 103 6 1 4 4 33 77 13 1 11 11 34 11 78
ELSE[ ]	/* Else */
NPUSHB[ ]	/* 38 values pushed */
6 1 4 3 4 133 7 5 2 3 14 8 2 2 1 3 2 104 16 15 9 3 1 12 10 2 0 11 1 0 103 13 1 11 11 34 11 78
EIF[ ]	/* EndIf */
NPUSHB[ ]	/* 30 values pushed */
28 28 28 31 28 31 30 29 27 26 25 24 23 22 21 20 19 18 17 17 17 17 17 17 17 17 16 17 8 31
CALL[ ]	/* CallFunction */";
};
width = 827;
}
);
note = numbersign;
unicode = 35;
},
{
glyphname = slash;
kernLeft = slash;
kernRight = slash;
layers = (
{
layerId = m01;
shapes = (
{
closed = 1;
nodes = (
(62,-103,l),
(467,771,l),
(363,771,l),
(-41,-103,l)
);
}
);
userData = {
assembly = "NPUSHB[ ]	/* 14 values pushed */
0 0 1 0 133 0 1 1 118 17 16 2 8 24
CALL[ ]	/* CallFunction */";
};
width = 396;
}
);
note = slash;
unicode = 47;
},
{
glyphname = backslash;
kernLeft = backslash;
kernRight = backslash;
layers = (
{
layerId = m01;
shapes = (
{
closed = 1;
nodes = (
(313,-103,l),
(217,771,l),
(113,771,l),
(210,-103,l)
);
}
);
userData = {
assembly = "NPUSHB[ ]	/* 21 values pushed */
0 0 1 1 0 87 0 0 0 1 95 0 1 0 1 79 17 16 2 8 24
CALL[ ]	/* CallFunction */";
};
width = 396;
}
);
note = backslash;
unicode = 92;
},
{
glyphname = periodcentered.loclCAT;
layers = (
{
layerId = m01;
shapes = (
{
closed = 1;
nodes = (
(118,270,o),
(158,311,o),
(158,340,qs),
(158,370,o),
(118,410,o),
(88,410,qs),
(58,410,o),
(18,370,o),
(18,340,qs),
(18,311,o),
(58,270,o),
(88,270,qs)
);
}
);
userData = {
assembly = "NPUSHB[ ]	/* 27 values pushed */
0 0 1 1 0 89 0 0 0 1 97 2 1 1 0 1 81 0 0 0 11 0 10 36 3 8 23
CALL[ ]	/* CallFunction */";
};
width = 143;
}
);
note = periodcentered.loclCAT;
},
{
glyphname = periodcentered.loclCAT.case;
layers = (
{
layerId = m01;
shapes = (
{
closed = 1;
nodes = (
(-104,280,o),
(-63,321,o),
(-63,350,qs),
(-63,380,o),
(-104,420,o),
(-133,420,qs),
(-163,420,o),
(-203,380,o),
(-203,350,qs),
(-203,321,o),
(-163,280,o),
(-133,280,qs)
);
}
);
userData = {
assembly = "NPUSHB[ ]	/* 27 values pushed */
0 0 1 1 0 89 0 0 0 1 97 2 1 1 0 1 81 0 0 0 11 0 10 36 3 8 23
CALL[ ]	/* CallFunction */";
};
width = 0;
}
);
note = periodcentered.loclCAT.case;
},
{
glyphname = hyphen;
kernLeft = hyphen;
kernRight = hyphen;
layers = (
{
layerId = m01;
shapes = (
{
closed = 1;
nodes = (
(424,246,l),
(440,335,l),
(72,335,l),
(57,246,l)
);
}
);
userData = {
assembly = "NPUSHB[ ]	/* 21 values pushed */
0 0 1 1 0 87 0 0 0 1 95 0 1 0 1 79 17 16 2 8 24
CALL[ ]	/* CallFunction */";
};
width = 481;
}
);
note = hyphen;
unicode = 45;
},
{
glyphname = endash;
kernLeft = hyphen;
kernRight = hyphen;
layers = (
{
layerId = m01;
shapes = (
{
closed = 1;
nodes = (
(583,246,l),
(599,335,l),
(67,335,l),
(52,246,l)
);
}
);
userData = {
assembly = "NPUSHB[ ]	/* 21 values pushed */
0 0 1 1 0 87 0 0 0 1 95 0 1 0 1 79 17 16 2 8 24
CALL[ ]	/* CallFunction */";
};
width = 636;
}
);
note = endash;
unicode = 8211;
},
{
glyphname = emdash;
kernLeft = hyphen;
kernRight = hyphen;
layers = (
{
layerId = m01;
shapes = (
{
closed = 1;
nodes = (
(796,246,l),
(811,335,l),
(67,335,l),
(52,246,l)
);
}
);
userData = {
assembly = "NPUSHB[ ]	/* 21 values pushed */
0 0 1 1 0 87 0 0 0 1 95 0 1 0 1 79 17 16 2 8 24
CALL[ ]	/* CallFunction */";
};
width = 848;
}
);
note = emdash;
unicode = 8212;
},
